<svg width="112" height="110" viewBox="0 0 112 110" fill="none" xmlns="http://www.w3.org/2000/svg">
<g clip-path="url(#clip0)">
<path d="M111.207 105.466C111.207 108.122 109.02 110.168 106.495 110.168H5.53186C2.87024 110.168 0.820557 107.986 0.820557 105.466V4.70199C0.820557 2.04563 3.00689 0 5.53186 0H106.489C109.151 0 111.201 2.18201 111.201 4.70199V105.466H111.207Z" fill="#F08705"/>
<path d="M111.207 105.466C111.207 108.122 109.02 110.168 106.495 110.168H38.5942L16.6002 87.8732L30.2648 65.5788L70.8426 15.2681L111.076 56.6491L111.207 105.466Z" fill="#DF6C0C"/>
<path d="M91.4642 61.5588H79.8493L67.5512 40.6993C70.2841 40.1538 72.3338 37.699 72.3338 34.8351V19.0867C72.3338 15.7485 69.6722 13.0862 66.3214 13.0862H45.8364C42.4916 13.0862 39.824 15.7425 39.824 19.0867V34.8351C39.824 37.7642 41.8737 40.1538 44.5353 40.6993L32.2372 61.6299H20.6283C17.2834 61.6299 14.6158 64.2863 14.6158 67.6305V83.3789C14.6158 86.7171 17.2775 89.3794 20.6283 89.3794H41.1192C44.464 89.3794 47.1316 86.723 47.1316 83.3789V67.6305C47.1316 64.2922 44.4699 61.6299 41.1192 61.6299H39.1408L51.3022 40.9068H60.7961L73.023 61.6299H70.9733C67.6284 61.6299 64.9609 64.2863 64.9609 67.6305V83.3789C64.9609 86.7171 67.6225 89.3794 70.9733 89.3794H91.4642C94.809 89.3794 97.4766 86.723 97.4766 83.3789V67.6305C97.4766 64.2863 94.815 61.5588 91.4642 61.5588V61.5588Z" fill="white"/>
</g>
<defs>
<clipPath id="clip0">
<rect width="110.386" height="110" fill="white" transform="translate(0.820557)"/>
</clipPath>
</defs>
</svg>
