<svg width="179" height="38" viewBox="0 0 179 38" fill="none" xmlns="http://www.w3.org/2000/svg">
<path d="M9.40448 17.9725L26.6231 4.6664H32.3587L20.8831 17.9725H32.3104V20.2874H20.8831L32.3587 33.595H26.6231L9.40448 20.2874H3.66592L5.96165 17.9725H9.40448Z" fill="#0067B1"/>
<path d="M9.40448 17.9725L26.6231 4.6664H32.3587L20.8831 17.9725H32.3104V20.2874H20.8831L32.3587 33.595H26.6231L9.40448 20.2874H3.66592L5.96165 17.9725H9.40448Z" fill="white"/>
<path fill-rule="evenodd" clip-rule="evenodd" d="M43.6353 15.4234V17.6153H53.914V20.6629H43.6353V22.873H54.924V26.3781H39.5338V11.8986H54.921V15.4234H43.6353ZM56.9695 26.3781V11.8986H63.8717L68.7028 20.941L73.5325 11.8986H80.5553V26.3781H76.4417V16.0725H76.2728L70.7287 26.3781H66.6739L61.169 16.0649H61.0635V26.3781H56.9695ZM82.6204 26.3781V11.8986H94.7245C97.7363 11.8986 99.1969 13.2118 99.1969 15.9418C99.1969 17.4982 98.5683 18.4498 97.2192 19.0076C98.9181 19.3101 99.6582 20.3817 99.6582 22.455C99.6582 25.2442 98.3287 26.3781 95.3531 26.3781H82.6204ZM94.9838 16.34C94.9838 15.6241 94.5587 15.1453 93.9317 15.1453H86.7264V17.5347H93.9317C94.613 17.5347 94.9838 17.1182 94.9838 16.34ZM95.4285 21.7573C95.4285 20.9806 94.9838 20.4835 94.301 20.4835H86.7264V23.0934H94.301C95.0215 23.0934 95.4285 22.6115 95.4285 21.7573ZM131.907 20.485L129.157 15.3657L126.468 20.485H131.907ZM118.725 26.3781L126.468 11.8986H131.984L139.594 26.3781H134.834L133.468 23.9674H124.828L123.443 26.3781H118.725ZM161.106 15.5025V19.0471H168.926C170.072 19.0471 170.405 18.5106 170.405 17.1365C170.405 16.0208 169.98 15.5025 168.926 15.5025H161.106ZM174.58 16.6379C174.58 19.0274 174.026 20.2251 172.345 20.6629C173.75 21.0201 174.469 21.9366 174.469 23.4126V26.3781H170.369V24.168C170.369 22.9322 169.868 22.6738 168.518 22.6738H161.105V26.3781H156.986V11.8986H169.072C173.139 11.8986 174.58 12.8744 174.58 16.6379ZM105.362 15.5025V19.0471H113.181C114.325 19.0471 114.658 18.5106 114.658 17.1365C114.658 16.0208 114.233 15.5025 113.181 15.5025H105.362ZM118.833 16.6379C118.833 19.0274 118.28 20.2251 116.598 20.6629C118.004 21.0201 118.725 21.9366 118.725 23.4126V26.3781H114.622V24.168C114.622 22.9322 114.121 22.6738 112.774 22.6738H105.362V26.3781H101.239V11.8986H113.328C117.391 11.8986 118.833 12.8744 118.833 16.6379ZM143.694 15.4234V17.6153H153.969V20.6629H143.694V22.873H154.983V26.3781H139.593V11.8986H154.979V15.4234H143.694Z" fill="#0067B1"/>
<path fill-rule="evenodd" clip-rule="evenodd" d="M43.6353 15.4234V17.6153H53.914V20.6629H43.6353V22.873H54.924V26.3781H39.5338V11.8986H54.921V15.4234H43.6353ZM56.9695 26.3781V11.8986H63.8717L68.7028 20.941L73.5325 11.8986H80.5553V26.3781H76.4417V16.0725H76.2728L70.7287 26.3781H66.6739L61.169 16.0649H61.0635V26.3781H56.9695ZM82.6204 26.3781V11.8986H94.7245C97.7363 11.8986 99.1969 13.2118 99.1969 15.9418C99.1969 17.4982 98.5683 18.4498 97.2192 19.0076C98.9181 19.3101 99.6582 20.3817 99.6582 22.455C99.6582 25.2442 98.3287 26.3781 95.3531 26.3781H82.6204ZM94.9838 16.34C94.9838 15.6241 94.5587 15.1453 93.9317 15.1453H86.7264V17.5347H93.9317C94.613 17.5347 94.9838 17.1182 94.9838 16.34ZM95.4285 21.7573C95.4285 20.9806 94.9838 20.4835 94.301 20.4835H86.7264V23.0934H94.301C95.0215 23.0934 95.4285 22.6115 95.4285 21.7573ZM131.907 20.485L129.157 15.3657L126.468 20.485H131.907ZM118.725 26.3781L126.468 11.8986H131.984L139.594 26.3781H134.834L133.468 23.9674H124.828L123.443 26.3781H118.725ZM161.106 15.5025V19.0471H168.926C170.072 19.0471 170.405 18.5106 170.405 17.1365C170.405 16.0208 169.98 15.5025 168.926 15.5025H161.106ZM174.58 16.6379C174.58 19.0274 174.026 20.2251 172.345 20.6629C173.75 21.0201 174.469 21.9366 174.469 23.4126V26.3781H170.369V24.168C170.369 22.9322 169.868 22.6738 168.518 22.6738H161.105V26.3781H156.986V11.8986H169.072C173.139 11.8986 174.58 12.8744 174.58 16.6379ZM105.362 15.5025V19.0471H113.181C114.325 19.0471 114.658 18.5106 114.658 17.1365C114.658 16.0208 114.233 15.5025 113.181 15.5025H105.362ZM118.833 16.6379C118.833 19.0274 118.28 20.2251 116.598 20.6629C118.004 21.0201 118.725 21.9366 118.725 23.4126V26.3781H114.622V24.168C114.622 22.9322 114.121 22.6738 112.774 22.6738H105.362V26.3781H101.239V11.8986H113.328C117.391 11.8986 118.833 12.8744 118.833 16.6379ZM143.694 15.4234V17.6153H153.969V20.6629H143.694V22.873H154.983V26.3781H139.593V11.8986H154.979V15.4234H143.694Z" fill="white"/>
</svg>
