<svg width="110" height="110" viewBox="0 0 110 110" fill="none" xmlns="http://www.w3.org/2000/svg">
<rect width="110" height="110" rx="20" fill="#262626"/>
<g clip-path="url(#clip0)">
<path d="M43.2646 89.9999C49.7426 89.9999 55.0001 84.7733 55.0001 78.3333V66.6666H43.2646C36.7867 66.6666 31.5292 71.8933 31.5292 78.3333C31.5292 84.7733 36.7867 89.9999 43.2646 89.9999Z" fill="#5ECB89"/>
<path d="M31.5292 55C31.5292 48.56 36.7867 43.3334 43.2646 43.3334H55.0001V66.6667H43.2646C36.7867 66.6667 31.5292 61.44 31.5292 55Z" fill="#9762F6"/>
<path d="M31.5321 31.6667C31.5321 25.2267 36.7896 20 43.2676 20H55.003V43.3333H43.2676C36.7896 43.3333 31.5321 38.1067 31.5321 31.6667Z" fill="#E15A32"/>
<path d="M55 20H66.7355C73.2134 20 78.4709 25.2267 78.4709 31.6667C78.4709 38.1067 73.2134 43.3333 66.7355 43.3333H55V20Z" fill="#EF7A69"/>
<path d="M78.4709 55C78.4709 61.44 73.2134 66.6667 66.7355 66.6667C60.2575 66.6667 55 61.44 55 55C55 48.56 60.2575 43.3334 66.7355 43.3334C73.2134 43.3334 78.4709 48.56 78.4709 55Z" fill="#54BBF8"/>
</g>
<defs>
<clipPath id="clip0">
<rect width="46.9512" height="70" fill="white" transform="translate(31.5244 20)"/>
</clipPath>
</defs>
</svg>
