<svg width="113" height="110" viewBox="0 0 113 110" fill="none" xmlns="http://www.w3.org/2000/svg">
<g clip-path="url(#clip0)">
<path d="M19.9786 0H92.8419C103.889 0 112.821 8.93162 112.821 19.9786V90.0214C112.821 101.068 103.889 110 92.8419 110H19.9786C8.93162 110 0 101.068 0 90.0214V19.9786C0 8.93162 8.93162 0 19.9786 0Z" fill="#330000"/>
<path d="M54.671 66.0001H37.1838L33.6111 77.0471C33.5171 77.4702 33.141 77.7522 32.718 77.7052H23.8804C23.3633 77.7052 23.2222 77.4232 23.3633 76.8591L38.5 33.2821C38.641 32.812 38.7821 32.295 38.9701 31.7309C39.1581 30.7437 39.2522 29.7095 39.2522 28.6753C39.2051 28.4403 39.3932 28.2052 39.6282 28.1582C39.6752 28.1582 39.7222 28.1582 39.7692 28.1582H51.8034C52.1795 28.1582 52.3675 28.2992 52.4145 28.5343L69.5727 76.9531C69.7137 77.4702 69.5727 77.7052 69.1026 77.7052H59.2778C58.9487 77.7522 58.6197 77.5172 58.5257 77.1881L54.671 66.0001ZM39.9103 56.4573H51.8504C51.5684 55.4702 51.1923 54.295 50.7692 53.0727C50.3462 51.8035 49.9231 50.4403 49.5 49.03C49.0299 47.5727 48.6069 46.1625 48.1368 44.7052C47.6667 43.2479 47.2436 41.8847 46.8675 40.5214C46.4915 39.2052 46.1624 37.983 45.8334 36.8548H45.7393C45.3163 38.8762 44.7992 40.8975 44.141 42.9189C43.4359 45.1753 42.7308 47.5257 41.9787 49.8761C41.3205 52.2736 40.6154 54.483 39.9103 56.4573Z" fill="#FF9A00"/>
<path d="M79.8205 36.1966C78.2693 36.2436 76.765 35.6325 75.6368 34.5513C74.5556 33.3761 73.9915 31.8248 74.0385 30.2265C73.9915 28.6282 74.6026 27.124 75.7308 26.0428C76.859 24.9616 78.3633 24.3975 79.9145 24.3975C81.7479 24.3975 83.1581 24.9616 84.1923 26.0428C85.2265 27.171 85.7906 28.6752 85.7436 30.2265C85.7906 31.8248 85.2265 33.3761 84.0983 34.5513C83.0171 35.6795 81.4188 36.2906 79.8205 36.1966ZM74.5556 77V40.8034C74.5556 40.3334 74.7436 40.1453 75.1667 40.1453H84.4744C84.8975 40.1453 85.0855 40.3804 85.0855 40.8034V77C85.0855 77.5171 84.8975 77.7522 84.4744 77.7522H75.2607C74.7906 77.7522 74.5556 77.4701 74.5556 77Z" fill="#FF9A00"/>
</g>
<defs>
<clipPath id="clip0">
<rect width="112.821" height="110" fill="white"/>
</clipPath>
</defs>
</svg>
