<svg width="692" height="635" viewBox="0 0 692 635" fill="none" xmlns="http://www.w3.org/2000/svg">
<path d="M446.5 36.0001C426.11 36.0001 414.891 43.0132 409.177 56.5001" stroke="#313131" stroke-width="2" stroke-linecap="round" stroke-linejoin="round"/>
<path d="M445 35.9501C445 38.4354 447.015 40.4501 449.5 40.4501V31.4501C447.015 31.4501 445 33.4648 445 35.9501Z" fill="white"/>
<rect x="449.5" y="21.5001" width="30" height="28.9" rx="3" fill="white"/>
<path d="M470.75 39.4001C470.75 39.8143 471.086 40.1501 471.5 40.1501C471.914 40.1501 472.25 39.8143 472.25 39.4001H470.75ZM456.97 33.9698C456.677 34.2627 456.677 34.7376 456.97 35.0305L461.743 39.8034C462.036 40.0963 462.51 40.0963 462.803 39.8034C463.096 39.5105 463.096 39.0357 462.803 38.7428L458.561 34.5001L462.803 30.2575C463.096 29.9646 463.096 29.4897 462.803 29.1968C462.51 28.9039 462.036 28.9039 461.743 29.1968L456.97 33.9698ZM471.5 39.4001C472.25 39.4001 472.25 39.3997 472.25 39.3993C472.25 39.3992 472.25 39.3987 472.25 39.3984C472.25 39.3978 472.25 39.3971 472.25 39.3963C472.25 39.3947 472.25 39.3928 472.25 39.3906C472.25 39.3862 472.25 39.3807 472.25 39.374C472.25 39.3605 472.249 39.3425 472.248 39.3201C472.247 39.2754 472.244 39.2132 472.239 39.1361C472.228 38.9822 472.206 38.7672 472.163 38.5112C472.079 38.0027 471.908 37.3132 471.558 36.6147C471.208 35.9132 470.67 35.189 469.849 34.6417C469.023 34.0913 467.956 33.7501 466.6 33.7501V35.2501C467.694 35.2501 468.464 35.5214 469.017 35.8898C469.574 36.2613 469.955 36.762 470.217 37.2855C470.48 37.812 470.615 38.3475 470.684 38.7578C470.718 38.9611 470.734 39.129 470.742 39.243C470.746 39.2999 470.748 39.343 470.749 39.3701C470.75 39.3836 470.75 39.393 470.75 39.3982C470.75 39.4007 470.75 39.4022 470.75 39.4025C470.75 39.4027 470.75 39.4026 470.75 39.4022C470.75 39.402 470.75 39.4017 470.75 39.4014C470.75 39.4012 470.75 39.4009 470.75 39.4008C470.75 39.4005 470.75 39.4001 471.5 39.4001ZM466.6 33.7501C466.59 33.7501 466.581 33.7501 466.571 33.7501C466.562 33.7501 466.552 33.7501 466.543 33.7501C466.533 33.7501 466.524 33.7501 466.514 33.7501C466.504 33.7501 466.495 33.7501 466.485 33.7501C466.476 33.7501 466.466 33.7501 466.457 33.7501C466.447 33.7501 466.438 33.7501 466.428 33.7501C466.419 33.7501 466.409 33.7501 466.399 33.7501C466.39 33.7501 466.38 33.7501 466.371 33.7501C466.361 33.7501 466.352 33.7501 466.342 33.7501C466.333 33.7501 466.323 33.7501 466.314 33.7501C466.304 33.7501 466.295 33.7501 466.285 33.7501C466.276 33.7501 466.266 33.7501 466.257 33.7501C466.247 33.7501 466.238 33.7501 466.228 33.7501C466.219 33.7501 466.209 33.7501 466.2 33.7501C466.19 33.7501 466.181 33.7501 466.171 33.7501C466.162 33.7501 466.152 33.7501 466.143 33.7501C466.133 33.7501 466.124 33.7501 466.114 33.7501C466.105 33.7501 466.095 33.7501 466.086 33.7501C466.077 33.7501 466.067 33.7501 466.058 33.7501C466.048 33.7501 466.039 33.7501 466.029 33.7501C466.02 33.7501 466.01 33.7501 466.001 33.7501C465.991 33.7501 465.982 33.7501 465.973 33.7501C465.963 33.7501 465.954 33.7501 465.944 33.7501C465.935 33.7501 465.925 33.7501 465.916 33.7501C465.907 33.7501 465.897 33.7501 465.888 33.7501C465.878 33.7501 465.869 33.7501 465.859 33.7501C465.85 33.7501 465.841 33.7501 465.831 33.7501C465.822 33.7501 465.812 33.7501 465.803 33.7501C465.794 33.7501 465.784 33.7501 465.775 33.7501C465.765 33.7501 465.756 33.7501 465.747 33.7501C465.737 33.7501 465.728 33.7501 465.718 33.7501C465.709 33.7501 465.7 33.7501 465.69 33.7501C465.681 33.7501 465.672 33.7501 465.662 33.7501C465.653 33.7501 465.644 33.7501 465.634 33.7501C465.625 33.7501 465.615 33.7501 465.606 33.7501C465.597 33.7501 465.587 33.7501 465.578 33.7501C465.569 33.7501 465.559 33.7501 465.55 33.7501C465.541 33.7501 465.531 33.7501 465.522 33.7501C465.513 33.7501 465.503 33.7501 465.494 33.7501C465.485 33.7501 465.475 33.7501 465.466 33.7501C465.457 33.7501 465.447 33.7501 465.438 33.7501C465.429 33.7501 465.42 33.7501 465.41 33.7501C465.401 33.7501 465.392 33.7501 465.382 33.7501C465.373 33.7501 465.364 33.7501 465.355 33.7501C465.345 33.7501 465.336 33.7501 465.327 33.7501C465.317 33.7501 465.308 33.7501 465.299 33.7501C465.29 33.7501 465.28 33.7501 465.271 33.7501C465.262 33.7501 465.253 33.7501 465.243 33.7501C465.234 33.7501 465.225 33.7501 465.216 33.7501C465.206 33.7501 465.197 33.7501 465.188 33.7501C465.179 33.7501 465.169 33.7501 465.16 33.7501C465.151 33.7501 465.142 33.7501 465.132 33.7501C465.123 33.7501 465.114 33.7501 465.105 33.7501C465.096 33.7501 465.086 33.7501 465.077 33.7501C465.068 33.7501 465.059 33.7501 465.05 33.7501C465.04 33.7501 465.031 33.7501 465.022 33.7501C465.013 33.7501 465.004 33.7501 464.994 33.7501C464.985 33.7501 464.976 33.7501 464.967 33.7501C464.958 33.7501 464.949 33.7501 464.939 33.7501C464.93 33.7501 464.921 33.7501 464.912 33.7501C464.903 33.7501 464.894 33.7501 464.884 33.7501C464.875 33.7501 464.866 33.7501 464.857 33.7501C464.848 33.7501 464.839 33.7501 464.83 33.7501C464.82 33.7501 464.811 33.7501 464.802 33.7501C464.793 33.7501 464.784 33.7501 464.775 33.7501C464.766 33.7501 464.757 33.7501 464.748 33.7501C464.738 33.7501 464.729 33.7501 464.72 33.7501C464.711 33.7501 464.702 33.7501 464.693 33.7501C464.684 33.7501 464.675 33.7501 464.666 33.7501C464.657 33.7501 464.648 33.7501 464.638 33.7501C464.629 33.7501 464.62 33.7501 464.611 33.7501C464.602 33.7501 464.593 33.7501 464.584 33.7501C464.575 33.7501 464.566 33.7501 464.557 33.7501C464.548 33.7501 464.539 33.7501 464.53 33.7501C464.521 33.7501 464.512 33.7501 464.503 33.7501C464.494 33.7501 464.485 33.7501 464.476 33.7501C464.467 33.7501 464.458 33.7501 464.449 33.7501C464.44 33.7501 464.431 33.7501 464.422 33.7501C464.413 33.7501 464.404 33.7501 464.395 33.7501C464.386 33.7501 464.377 33.7501 464.368 33.7501C464.359 33.7501 464.35 33.7501 464.341 33.7501C464.332 33.7501 464.323 33.7501 464.314 33.7501C464.305 33.7501 464.296 33.7501 464.287 33.7501C464.278 33.7501 464.269 33.7501 464.26 33.7501C464.251 33.7501 464.242 33.7501 464.234 33.7501C464.225 33.7501 464.216 33.7501 464.207 33.7501C464.198 33.7501 464.189 33.7501 464.18 33.7501C464.171 33.7501 464.162 33.7501 464.153 33.7501C464.144 33.7501 464.136 33.7501 464.127 33.7501C464.118 33.7501 464.109 33.7501 464.1 33.7501C464.091 33.7501 464.082 33.7501 464.073 33.7501C464.064 33.7501 464.056 33.7501 464.047 33.7501C464.038 33.7501 464.029 33.7501 464.02 33.7501C464.011 33.7501 464.003 33.7501 463.994 33.7501C463.985 33.7501 463.976 33.7501 463.967 33.7501C463.958 33.7501 463.95 33.7501 463.941 33.7501C463.932 33.7501 463.923 33.7501 463.914 33.7501C463.905 33.7501 463.897 33.7501 463.888 33.7501C463.879 33.7501 463.87 33.7501 463.861 33.7501C463.853 33.7501 463.844 33.7501 463.835 33.7501C463.826 33.7501 463.818 33.7501 463.809 33.7501C463.8 33.7501 463.791 33.7501 463.783 33.7501C463.774 33.7501 463.765 33.7501 463.756 33.7501C463.748 33.7501 463.739 33.7501 463.73 33.7501C463.721 33.7501 463.713 33.7501 463.704 33.7501C463.695 33.7501 463.686 33.7501 463.678 33.7501C463.669 33.7501 463.66 33.7501 463.652 33.7501C463.643 33.7501 463.634 33.7501 463.626 33.7501C463.617 33.7501 463.608 33.7501 463.6 33.7501C463.591 33.7501 463.582 33.7501 463.573 33.7501C463.565 33.7501 463.556 33.7501 463.548 33.7501C463.539 33.7501 463.53 33.7501 463.522 33.7501C463.513 33.7501 463.504 33.7501 463.496 33.7501C463.487 33.7501 463.478 33.7501 463.47 33.7501C463.461 33.7501 463.453 33.7501 463.444 33.7501C463.435 33.7501 463.427 33.7501 463.418 33.7501C463.409 33.7501 463.401 33.7501 463.392 33.7501C463.384 33.7501 463.375 33.7501 463.367 33.7501C463.358 33.7501 463.349 33.7501 463.341 33.7501C463.332 33.7501 463.324 33.7501 463.315 33.7501C463.307 33.7501 463.298 33.7501 463.29 33.7501C463.281 33.7501 463.272 33.7501 463.264 33.7501C463.255 33.7501 463.247 33.7501 463.238 33.7501C463.23 33.7501 463.221 33.7501 463.213 33.7501C463.204 33.7501 463.196 33.7501 463.187 33.7501C463.179 33.7501 463.17 33.7501 463.162 33.7501C463.153 33.7501 463.145 33.7501 463.136 33.7501C463.128 33.7501 463.119 33.7501 463.111 33.7501C463.103 33.7501 463.094 33.7501 463.086 33.7501C463.077 33.7501 463.069 33.7501 463.06 33.7501C463.052 33.7501 463.043 33.7501 463.035 33.7501C463.027 33.7501 463.018 33.7501 463.01 33.7501C463.001 33.7501 462.993 33.7501 462.985 33.7501C462.976 33.7501 462.968 33.7501 462.959 33.7501C462.951 33.7501 462.943 33.7501 462.934 33.7501C462.926 33.7501 462.917 33.7501 462.909 33.7501C462.901 33.7501 462.892 33.7501 462.884 33.7501C462.876 33.7501 462.867 33.7501 462.859 33.7501C462.851 33.7501 462.842 33.7501 462.834 33.7501C462.826 33.7501 462.817 33.7501 462.809 33.7501C462.801 33.7501 462.792 33.7501 462.784 33.7501C462.776 33.7501 462.768 33.7501 462.759 33.7501C462.751 33.7501 462.743 33.7501 462.734 33.7501C462.726 33.7501 462.718 33.7501 462.71 33.7501C462.701 33.7501 462.693 33.7501 462.685 33.7501C462.677 33.7501 462.668 33.7501 462.66 33.7501C462.652 33.7501 462.644 33.7501 462.635 33.7501C462.627 33.7501 462.619 33.7501 462.611 33.7501C462.603 33.7501 462.594 33.7501 462.586 33.7501C462.578 33.7501 462.57 33.7501 462.562 33.7501C462.553 33.7501 462.545 33.7501 462.537 33.7501C462.529 33.7501 462.521 33.7501 462.513 33.7501C462.505 33.7501 462.496 33.7501 462.488 33.7501C462.48 33.7501 462.472 33.7501 462.464 33.7501C462.456 33.7501 462.448 33.7501 462.439 33.7501C462.431 33.7501 462.423 33.7501 462.415 33.7501C462.407 33.7501 462.399 33.7501 462.391 33.7501C462.383 33.7501 462.375 33.7501 462.367 33.7501C462.358 33.7501 462.35 33.7501 462.342 33.7501C462.334 33.7501 462.326 33.7501 462.318 33.7501C462.31 33.7501 462.302 33.7501 462.294 33.7501C462.286 33.7501 462.278 33.7501 462.27 33.7501C462.262 33.7501 462.254 33.7501 462.246 33.7501C462.238 33.7501 462.23 33.7501 462.222 33.7501C462.214 33.7501 462.206 33.7501 462.198 33.7501C462.19 33.7501 462.182 33.7501 462.174 33.7501C462.166 33.7501 462.158 33.7501 462.15 33.7501C462.142 33.7501 462.134 33.7501 462.126 33.7501C462.118 33.7501 462.111 33.7501 462.103 33.7501C462.095 33.7501 462.087 33.7501 462.079 33.7501C462.071 33.7501 462.063 33.7501 462.055 33.7501C462.047 33.7501 462.039 33.7501 462.031 33.7501C462.024 33.7501 462.016 33.7501 462.008 33.7501C462 33.7501 461.992 33.7501 461.984 33.7501C461.976 33.7501 461.969 33.7501 461.961 33.7501C461.953 33.7501 461.945 33.7501 461.937 33.7501C461.929 33.7501 461.922 33.7501 461.914 33.7501C461.906 33.7501 461.898 33.7501 461.89 33.7501C461.883 33.7501 461.875 33.7501 461.867 33.7501C461.859 33.7501 461.851 33.7501 461.844 33.7501C461.836 33.7501 461.828 33.7501 461.82 33.7501C461.813 33.7501 461.805 33.7501 461.797 33.7501C461.789 33.7501 461.782 33.7501 461.774 33.7501C461.766 33.7501 461.759 33.7501 461.751 33.7501C461.743 33.7501 461.736 33.7501 461.728 33.7501C461.72 33.7501 461.712 33.7501 461.705 33.7501C461.697 33.7501 461.689 33.7501 461.682 33.7501C461.674 33.7501 461.666 33.7501 461.659 33.7501C461.651 33.7501 461.644 33.7501 461.636 33.7501C461.628 33.7501 461.621 33.7501 461.613 33.7501C461.605 33.7501 461.598 33.7501 461.59 33.7501C461.583 33.7501 461.575 33.7501 461.567 33.7501C461.56 33.7501 461.552 33.7501 461.545 33.7501C461.537 33.7501 461.53 33.7501 461.522 33.7501C461.514 33.7501 461.507 33.7501 461.499 33.7501C461.492 33.7501 461.484 33.7501 461.477 33.7501C461.469 33.7501 461.462 33.7501 461.454 33.7501C461.447 33.7501 461.439 33.7501 461.432 33.7501C461.424 33.7501 461.417 33.7501 461.409 33.7501C461.402 33.7501 461.394 33.7501 461.387 33.7501C461.379 33.7501 461.372 33.7501 461.365 33.7501C461.357 33.7501 461.35 33.7501 461.342 33.7501C461.335 33.7501 461.327 33.7501 461.32 33.7501C461.313 33.7501 461.305 33.7501 461.298 33.7501C461.29 33.7501 461.283 33.7501 461.276 33.7501C461.268 33.7501 461.261 33.7501 461.254 33.7501C461.246 33.7501 461.239 33.7501 461.231 33.7501C461.224 33.7501 461.217 33.7501 461.209 33.7501C461.202 33.7501 461.195 33.7501 461.187 33.7501C461.18 33.7501 461.173 33.7501 461.166 33.7501C461.158 33.7501 461.151 33.7501 461.144 33.7501C461.136 33.7501 461.129 33.7501 461.122 33.7501C461.115 33.7501 461.107 33.7501 461.1 33.7501C461.093 33.7501 461.086 33.7501 461.078 33.7501C461.071 33.7501 461.064 33.7501 461.057 33.7501C461.049 33.7501 461.042 33.7501 461.035 33.7501C461.028 33.7501 461.021 33.7501 461.013 33.7501C461.006 33.7501 460.999 33.7501 460.992 33.7501C460.985 33.7501 460.978 33.7501 460.97 33.7501C460.963 33.7501 460.956 33.7501 460.949 33.7501C460.942 33.7501 460.935 33.7501 460.928 33.7501C460.921 33.7501 460.913 33.7501 460.906 33.7501C460.899 33.7501 460.892 33.7501 460.885 33.7501C460.878 33.7501 460.871 33.7501 460.864 33.7501C460.857 33.7501 460.85 33.7501 460.843 33.7501C460.836 33.7501 460.829 33.7501 460.822 33.7501C460.815 33.7501 460.808 33.7501 460.8 33.7501C460.793 33.7501 460.786 33.7501 460.779 33.7501C460.772 33.7501 460.765 33.7501 460.759 33.7501C460.752 33.7501 460.745 33.7501 460.738 33.7501C460.731 33.7501 460.724 33.7501 460.717 33.7501C460.71 33.7501 460.703 33.7501 460.696 33.7501C460.689 33.7501 460.682 33.7501 460.675 33.7501C460.668 33.7501 460.661 33.7501 460.654 33.7501C460.648 33.7501 460.641 33.7501 460.634 33.7501C460.627 33.7501 460.62 33.7501 460.613 33.7501C460.606 33.7501 460.6 33.7501 460.593 33.7501C460.586 33.7501 460.579 33.7501 460.572 33.7501C460.565 33.7501 460.559 33.7501 460.552 33.7501C460.545 33.7501 460.538 33.7501 460.531 33.7501C460.525 33.7501 460.518 33.7501 460.511 33.7501C460.504 33.7501 460.497 33.7501 460.491 33.7501C460.484 33.7501 460.477 33.7501 460.471 33.7501C460.464 33.7501 460.457 33.7501 460.45 33.7501C460.444 33.7501 460.437 33.7501 460.43 33.7501C460.424 33.7501 460.417 33.7501 460.41 33.7501C460.403 33.7501 460.397 33.7501 460.39 33.7501C460.383 33.7501 460.377 33.7501 460.37 33.7501C460.364 33.7501 460.357 33.7501 460.35 33.7501C460.344 33.7501 460.337 33.7501 460.33 33.7501C460.324 33.7501 460.317 33.7501 460.311 33.7501C460.304 33.7501 460.298 33.7501 460.291 33.7501C460.284 33.7501 460.278 33.7501 460.271 33.7501C460.265 33.7501 460.258 33.7501 460.252 33.7501C460.245 33.7501 460.239 33.7501 460.232 33.7501C460.226 33.7501 460.219 33.7501 460.213 33.7501C460.206 33.7501 460.2 33.7501 460.193 33.7501C460.187 33.7501 460.18 33.7501 460.174 33.7501C460.167 33.7501 460.161 33.7501 460.154 33.7501C460.148 33.7501 460.142 33.7501 460.135 33.7501C460.129 33.7501 460.122 33.7501 460.116 33.7501C460.109 33.7501 460.103 33.7501 460.097 33.7501C460.09 33.7501 460.084 33.7501 460.078 33.7501C460.071 33.7501 460.065 33.7501 460.059 33.7501C460.052 33.7501 460.046 33.7501 460.04 33.7501C460.033 33.7501 460.027 33.7501 460.021 33.7501C460.014 33.7501 460.008 33.7501 460.002 33.7501C459.995 33.7501 459.989 33.7501 459.983 33.7501C459.977 33.7501 459.97 33.7501 459.964 33.7501C459.958 33.7501 459.952 33.7501 459.945 33.7501C459.939 33.7501 459.933 33.7501 459.927 33.7501C459.921 33.7501 459.914 33.7501 459.908 33.7501C459.902 33.7501 459.896 33.7501 459.89 33.7501C459.883 33.7501 459.877 33.7501 459.871 33.7501C459.865 33.7501 459.859 33.7501 459.853 33.7501C459.847 33.7501 459.84 33.7501 459.834 33.7501C459.828 33.7501 459.822 33.7501 459.816 33.7501C459.81 33.7501 459.804 33.7501 459.798 33.7501C459.792 33.7501 459.786 33.7501 459.78 33.7501C459.774 33.7501 459.768 33.7501 459.761 33.7501C459.755 33.7501 459.749 33.7501 459.743 33.7501C459.737 33.7501 459.731 33.7501 459.725 33.7501C459.719 33.7501 459.713 33.7501 459.707 33.7501C459.702 33.7501 459.696 33.7501 459.69 33.7501C459.684 33.7501 459.678 33.7501 459.672 33.7501C459.666 33.7501 459.66 33.7501 459.654 33.7501C459.648 33.7501 459.642 33.7501 459.636 33.7501C459.63 33.7501 459.625 33.7501 459.619 33.7501C459.613 33.7501 459.607 33.7501 459.601 33.7501C459.595 33.7501 459.589 33.7501 459.584 33.7501C459.578 33.7501 459.572 33.7501 459.566 33.7501C459.56 33.7501 459.555 33.7501 459.549 33.7501C459.543 33.7501 459.537 33.7501 459.531 33.7501C459.526 33.7501 459.52 33.7501 459.514 33.7501C459.508 33.7501 459.503 33.7501 459.497 33.7501C459.491 33.7501 459.485 33.7501 459.48 33.7501C459.474 33.7501 459.468 33.7501 459.463 33.7501C459.457 33.7501 459.451 33.7501 459.446 33.7501C459.44 33.7501 459.434 33.7501 459.429 33.7501C459.423 33.7501 459.417 33.7501 459.412 33.7501C459.406 33.7501 459.401 33.7501 459.395 33.7501C459.389 33.7501 459.384 33.7501 459.378 33.7501C459.373 33.7501 459.367 33.7501 459.362 33.7501C459.356 33.7501 459.35 33.7501 459.345 33.7501C459.339 33.7501 459.334 33.7501 459.328 33.7501C459.323 33.7501 459.317 33.7501 459.312 33.7501C459.306 33.7501 459.301 33.7501 459.295 33.7501C459.29 33.7501 459.284 33.7501 459.279 33.7501C459.274 33.7501 459.268 33.7501 459.263 33.7501C459.257 33.7501 459.252 33.7501 459.246 33.7501C459.241 33.7501 459.236 33.7501 459.23 33.7501C459.225 33.7501 459.219 33.7501 459.214 33.7501C459.209 33.7501 459.203 33.7501 459.198 33.7501C459.193 33.7501 459.187 33.7501 459.182 33.7501C459.177 33.7501 459.171 33.7501 459.166 33.7501C459.161 33.7501 459.155 33.7501 459.15 33.7501C459.145 33.7501 459.14 33.7501 459.134 33.7501C459.129 33.7501 459.124 33.7501 459.119 33.7501C459.113 33.7501 459.108 33.7501 459.103 33.7501C459.098 33.7501 459.093 33.7501 459.087 33.7501C459.082 33.7501 459.077 33.7501 459.072 33.7501C459.067 33.7501 459.061 33.7501 459.056 33.7501C459.051 33.7501 459.046 33.7501 459.041 33.7501C459.036 33.7501 459.031 33.7501 459.026 33.7501C459.021 33.7501 459.015 33.7501 459.01 33.7501C459.005 33.7501 459 33.7501 458.995 33.7501C458.99 33.7501 458.985 33.7501 458.98 33.7501C458.975 33.7501 458.97 33.7501 458.965 33.7501C458.96 33.7501 458.955 33.7501 458.95 33.7501C458.945 33.7501 458.94 33.7501 458.935 33.7501C458.93 33.7501 458.925 33.7501 458.92 33.7501C458.915 33.7501 458.91 33.7501 458.905 33.7501C458.9 33.7501 458.895 33.7501 458.891 33.7501C458.886 33.7501 458.881 33.7501 458.876 33.7501C458.871 33.7501 458.866 33.7501 458.861 33.7501C458.856 33.7501 458.852 33.7501 458.847 33.7501C458.842 33.7501 458.837 33.7501 458.832 33.7501C458.827 33.7501 458.823 33.7501 458.818 33.7501C458.813 33.7501 458.808 33.7501 458.804 33.7501C458.799 33.7501 458.794 33.7501 458.789 33.7501C458.785 33.7501 458.78 33.7501 458.775 33.7501C458.77 33.7501 458.766 33.7501 458.761 33.7501C458.756 33.7501 458.752 33.7501 458.747 33.7501C458.742 33.7501 458.738 33.7501 458.733 33.7501C458.728 33.7501 458.724 33.7501 458.719 33.7501C458.714 33.7501 458.71 33.7501 458.705 33.7501C458.701 33.7501 458.696 33.7501 458.691 33.7501C458.687 33.7501 458.682 33.7501 458.678 33.7501C458.673 33.7501 458.669 33.7501 458.664 33.7501C458.66 33.7501 458.655 33.7501 458.651 33.7501C458.646 33.7501 458.642 33.7501 458.637 33.7501C458.633 33.7501 458.628 33.7501 458.624 33.7501C458.619 33.7501 458.615 33.7501 458.61 33.7501C458.606 33.7501 458.602 33.7501 458.597 33.7501C458.593 33.7501 458.588 33.7501 458.584 33.7501C458.58 33.7501 458.575 33.7501 458.571 33.7501C458.566 33.7501 458.562 33.7501 458.558 33.7501C458.553 33.7501 458.549 33.7501 458.545 33.7501C458.54 33.7501 458.536 33.7501 458.532 33.7501C458.528 33.7501 458.523 33.7501 458.519 33.7501C458.515 33.7501 458.51 33.7501 458.506 33.7501C458.502 33.7501 458.498 33.7501 458.494 33.7501C458.489 33.7501 458.485 33.7501 458.481 33.7501C458.477 33.7501 458.473 33.7501 458.468 33.7501C458.464 33.7501 458.46 33.7501 458.456 33.7501C458.452 33.7501 458.448 33.7501 458.443 33.7501C458.439 33.7501 458.435 33.7501 458.431 33.7501C458.427 33.7501 458.423 33.7501 458.419 33.7501C458.415 33.7501 458.411 33.7501 458.407 33.7501C458.403 33.7501 458.399 33.7501 458.395 33.7501C458.391 33.7501 458.387 33.7501 458.383 33.7501C458.379 33.7501 458.375 33.7501 458.371 33.7501C458.367 33.7501 458.363 33.7501 458.359 33.7501C458.355 33.7501 458.351 33.7501 458.347 33.7501C458.343 33.7501 458.339 33.7501 458.335 33.7501C458.331 33.7501 458.327 33.7501 458.323 33.7501C458.32 33.7501 458.316 33.7501 458.312 33.7501C458.308 33.7501 458.304 33.7501 458.3 33.7501C458.297 33.7501 458.293 33.7501 458.289 33.7501C458.285 33.7501 458.281 33.7501 458.278 33.7501C458.274 33.7501 458.27 33.7501 458.266 33.7501C458.263 33.7501 458.259 33.7501 458.255 33.7501C458.251 33.7501 458.248 33.7501 458.244 33.7501C458.24 33.7501 458.237 33.7501 458.233 33.7501C458.229 33.7501 458.226 33.7501 458.222 33.7501C458.218 33.7501 458.215 33.7501 458.211 33.7501C458.207 33.7501 458.204 33.7501 458.2 33.7501C458.197 33.7501 458.193 33.7501 458.189 33.7501C458.186 33.7501 458.182 33.7501 458.179 33.7501C458.175 33.7501 458.172 33.7501 458.168 33.7501C458.165 33.7501 458.161 33.7501 458.158 33.7501C458.154 33.7501 458.151 33.7501 458.147 33.7501C458.144 33.7501 458.14 33.7501 458.137 33.7501C458.133 33.7501 458.13 33.7501 458.126 33.7501C458.123 33.7501 458.12 33.7501 458.116 33.7501C458.113 33.7501 458.109 33.7501 458.106 33.7501C458.103 33.7501 458.099 33.7501 458.096 33.7501C458.093 33.7501 458.089 33.7501 458.086 33.7501C458.083 33.7501 458.079 33.7501 458.076 33.7501C458.073 33.7501 458.07 33.7501 458.066 33.7501C458.063 33.7501 458.06 33.7501 458.057 33.7501C458.053 33.7501 458.05 33.7501 458.047 33.7501C458.044 33.7501 458.041 33.7501 458.037 33.7501C458.034 33.7501 458.031 33.7501 458.028 33.7501C458.025 33.7501 458.022 33.7501 458.018 33.7501C458.015 33.7501 458.012 33.7501 458.009 33.7501C458.006 33.7501 458.003 33.7501 458 33.7501C457.997 33.7501 457.994 33.7501 457.991 33.7501C457.988 33.7501 457.985 33.7501 457.981 33.7501C457.978 33.7501 457.975 33.7501 457.972 33.7501C457.969 33.7501 457.966 33.7501 457.964 33.7501C457.961 33.7501 457.958 33.7501 457.955 33.7501C457.952 33.7501 457.949 33.7501 457.946 33.7501C457.943 33.7501 457.94 33.7501 457.937 33.7501C457.934 33.7501 457.931 33.7501 457.929 33.7501C457.926 33.7501 457.923 33.7501 457.92 33.7501C457.917 33.7501 457.914 33.7501 457.911 33.7501C457.909 33.7501 457.906 33.7501 457.903 33.7501C457.9 33.7501 457.898 33.7501 457.895 33.7501C457.892 33.7501 457.889 33.7501 457.887 33.7501C457.884 33.7501 457.881 33.7501 457.878 33.7501C457.876 33.7501 457.873 33.7501 457.87 33.7501C457.868 33.7501 457.865 33.7501 457.862 33.7501C457.86 33.7501 457.857 33.7501 457.855 33.7501C457.852 33.7501 457.849 33.7501 457.847 33.7501C457.844 33.7501 457.842 33.7501 457.839 33.7501C457.836 33.7501 457.834 33.7501 457.831 33.7501C457.829 33.7501 457.826 33.7501 457.824 33.7501C457.821 33.7501 457.819 33.7501 457.816 33.7501C457.814 33.7501 457.811 33.7501 457.809 33.7501C457.806 33.7501 457.804 33.7501 457.802 33.7501C457.799 33.7501 457.797 33.7501 457.794 33.7501C457.792 33.7501 457.79 33.7501 457.787 33.7501C457.785 33.7501 457.782 33.7501 457.78 33.7501C457.778 33.7501 457.775 33.7501 457.773 33.7501C457.771 33.7501 457.769 33.7501 457.766 33.7501C457.764 33.7501 457.762 33.7501 457.759 33.7501C457.757 33.7501 457.755 33.7501 457.753 33.7501C457.75 33.7501 457.748 33.7501 457.746 33.7501C457.744 33.7501 457.742 33.7501 457.739 33.7501C457.737 33.7501 457.735 33.7501 457.733 33.7501C457.731 33.7501 457.729 33.7501 457.727 33.7501C457.725 33.7501 457.722 33.7501 457.72 33.7501C457.718 33.7501 457.716 33.7501 457.714 33.7501C457.712 33.7501 457.71 33.7501 457.708 33.7501C457.706 33.7501 457.704 33.7501 457.702 33.7501C457.7 33.7501 457.698 33.7501 457.696 33.7501C457.694 33.7501 457.692 33.7501 457.69 33.7501C457.688 33.7501 457.686 33.7501 457.684 33.7501C457.682 33.7501 457.68 33.7501 457.679 33.7501C457.677 33.7501 457.675 33.7501 457.673 33.7501C457.671 33.7501 457.669 33.7501 457.667 33.7501C457.666 33.7501 457.664 33.7501 457.662 33.7501C457.66 33.7501 457.658 33.7501 457.657 33.7501C457.655 33.7501 457.653 33.7501 457.651 33.7501C457.65 33.7501 457.648 33.7501 457.646 33.7501C457.645 33.7501 457.643 33.7501 457.641 33.7501C457.639 33.7501 457.638 33.7501 457.636 33.7501C457.634 33.7501 457.633 33.7501 457.631 33.7501C457.63 33.7501 457.628 33.7501 457.626 33.7501C457.625 33.7501 457.623 33.7501 457.622 33.7501C457.62 33.7501 457.619 33.7501 457.617 33.7501C457.615 33.7501 457.614 33.7501 457.612 33.7501C457.611 33.7501 457.609 33.7501 457.608 33.7501C457.606 33.7501 457.605 33.7501 457.604 33.7501C457.602 33.7501 457.601 33.7501 457.599 33.7501C457.598 33.7501 457.596 33.7501 457.595 33.7501C457.594 33.7501 457.592 33.7501 457.591 33.7501C457.59 33.7501 457.588 33.7501 457.587 33.7501C457.586 33.7501 457.584 33.7501 457.583 33.7501C457.582 33.7501 457.58 33.7501 457.579 33.7501C457.578 33.7501 457.577 33.7501 457.575 33.7501C457.574 33.7501 457.573 33.7501 457.572 33.7501C457.57 33.7501 457.569 33.7501 457.568 33.7501C457.567 33.7501 457.566 33.7501 457.565 33.7501C457.563 33.7501 457.562 33.7501 457.561 33.7501C457.56 33.7501 457.559 33.7501 457.558 33.7501C457.557 33.7501 457.556 33.7501 457.555 33.7501C457.554 33.7501 457.552 33.7501 457.551 33.7501C457.55 33.7501 457.549 33.7501 457.548 33.7501C457.547 33.7501 457.546 33.7501 457.545 33.7501C457.545 33.7501 457.544 33.7501 457.543 33.7501C457.542 33.7501 457.541 33.7501 457.54 33.7501C457.539 33.7501 457.538 33.7501 457.537 33.7501C457.536 33.7501 457.535 33.7501 457.535 33.7501C457.534 33.7501 457.533 33.7501 457.532 33.7501C457.531 33.7501 457.53 33.7501 457.53 33.7501C457.529 33.7501 457.528 33.7501 457.527 33.7501C457.527 33.7501 457.526 33.7501 457.525 33.7501C457.524 33.7501 457.524 33.7501 457.523 33.7501C457.522 33.7501 457.522 33.7501 457.521 33.7501C457.52 33.7501 457.52 33.7501 457.519 33.7501C457.518 33.7501 457.518 33.7501 457.517 33.7501C457.517 33.7501 457.516 33.7501 457.515 33.7501C457.515 33.7501 457.514 33.7501 457.514 33.7501C457.513 33.7501 457.513 33.7501 457.512 33.7501C457.512 33.7501 457.511 33.7501 457.511 33.7501C457.51 33.7501 457.51 33.7501 457.509 33.7501C457.509 33.7501 457.509 33.7501 457.508 33.7501C457.508 33.7501 457.507 33.7501 457.507 33.7501C457.507 33.7501 457.506 33.7501 457.506 33.7501C457.505 33.7501 457.505 33.7501 457.505 33.7501C457.505 33.7501 457.504 33.7501 457.504 33.7501C457.504 33.7501 457.503 33.7501 457.503 33.7501C457.503 33.7501 457.503 33.7501 457.502 33.7501C457.502 33.7501 457.502 33.7501 457.502 33.7501C457.502 33.7501 457.501 33.7501 457.501 33.7501C457.501 33.7501 457.501 33.7501 457.501 33.7501C457.501 33.7501 457.501 33.7501 457.5 33.7501C457.5 33.7501 457.5 33.7501 457.5 33.7501C457.5 33.7501 457.5 33.7501 457.5 33.7501C457.5 33.7501 457.5 33.7501 457.5 34.5001C457.5 35.2501 457.5 35.2501 457.5 35.2501C457.5 35.2501 457.5 35.2501 457.5 35.2501C457.5 35.2501 457.5 35.2501 457.5 35.2501C457.501 35.2501 457.501 35.2501 457.501 35.2501C457.501 35.2501 457.501 35.2501 457.501 35.2501C457.501 35.2501 457.502 35.2501 457.502 35.2501C457.502 35.2501 457.502 35.2501 457.502 35.2501C457.503 35.2501 457.503 35.2501 457.503 35.2501C457.503 35.2501 457.504 35.2501 457.504 35.2501C457.504 35.2501 457.505 35.2501 457.505 35.2501C457.505 35.2501 457.505 35.2501 457.506 35.2501C457.506 35.2501 457.507 35.2501 457.507 35.2501C457.507 35.2501 457.508 35.2501 457.508 35.2501C457.509 35.2501 457.509 35.2501 457.509 35.2501C457.51 35.2501 457.51 35.2501 457.511 35.2501C457.511 35.2501 457.512 35.2501 457.512 35.2501C457.513 35.2501 457.513 35.2501 457.514 35.2501C457.514 35.2501 457.515 35.2501 457.515 35.2501C457.516 35.2501 457.517 35.2501 457.517 35.2501C457.518 35.2501 457.518 35.2501 457.519 35.2501C457.52 35.2501 457.52 35.2501 457.521 35.2501C457.522 35.2501 457.522 35.2501 457.523 35.2501C457.524 35.2501 457.524 35.2501 457.525 35.2501C457.526 35.2501 457.527 35.2501 457.527 35.2501C457.528 35.2501 457.529 35.2501 457.53 35.2501C457.53 35.2501 457.531 35.2501 457.532 35.2501C457.533 35.2501 457.534 35.2501 457.535 35.2501C457.535 35.2501 457.536 35.2501 457.537 35.2501C457.538 35.2501 457.539 35.2501 457.54 35.2501C457.541 35.2501 457.542 35.2501 457.543 35.2501C457.544 35.2501 457.545 35.2501 457.545 35.2501C457.546 35.2501 457.547 35.2501 457.548 35.2501C457.549 35.2501 457.55 35.2501 457.551 35.2501C457.552 35.2501 457.554 35.2501 457.555 35.2501C457.556 35.2501 457.557 35.2501 457.558 35.2501C457.559 35.2501 457.56 35.2501 457.561 35.2501C457.562 35.2501 457.563 35.2501 457.565 35.2501C457.566 35.2501 457.567 35.2501 457.568 35.2501C457.569 35.2501 457.57 35.2501 457.572 35.2501C457.573 35.2501 457.574 35.2501 457.575 35.2501C457.577 35.2501 457.578 35.2501 457.579 35.2501C457.58 35.2501 457.582 35.2501 457.583 35.2501C457.584 35.2501 457.586 35.2501 457.587 35.2501C457.588 35.2501 457.59 35.2501 457.591 35.2501C457.592 35.2501 457.594 35.2501 457.595 35.2501C457.596 35.2501 457.598 35.2501 457.599 35.2501C457.601 35.2501 457.602 35.2501 457.604 35.2501C457.605 35.2501 457.606 35.2501 457.608 35.2501C457.609 35.2501 457.611 35.2501 457.612 35.2501C457.614 35.2501 457.615 35.2501 457.617 35.2501C457.619 35.2501 457.62 35.2501 457.622 35.2501C457.623 35.2501 457.625 35.2501 457.626 35.2501C457.628 35.2501 457.63 35.2501 457.631 35.2501C457.633 35.2501 457.634 35.2501 457.636 35.2501C457.638 35.2501 457.639 35.2501 457.641 35.2501C457.643 35.2501 457.645 35.2501 457.646 35.2501C457.648 35.2501 457.65 35.2501 457.651 35.2501C457.653 35.2501 457.655 35.2501 457.657 35.2501C457.658 35.2501 457.66 35.2501 457.662 35.2501C457.664 35.2501 457.666 35.2501 457.667 35.2501C457.669 35.2501 457.671 35.2501 457.673 35.2501C457.675 35.2501 457.677 35.2501 457.679 35.2501C457.68 35.2501 457.682 35.2501 457.684 35.2501C457.686 35.2501 457.688 35.2501 457.69 35.2501C457.692 35.2501 457.694 35.2501 457.696 35.2501C457.698 35.2501 457.7 35.2501 457.702 35.2501C457.704 35.2501 457.706 35.2501 457.708 35.2501C457.71 35.2501 457.712 35.2501 457.714 35.2501C457.716 35.2501 457.718 35.2501 457.72 35.2501C457.722 35.2501 457.725 35.2501 457.727 35.2501C457.729 35.2501 457.731 35.2501 457.733 35.2501C457.735 35.2501 457.737 35.2501 457.739 35.2501C457.742 35.2501 457.744 35.2501 457.746 35.2501C457.748 35.2501 457.75 35.2501 457.753 35.2501C457.755 35.2501 457.757 35.2501 457.759 35.2501C457.762 35.2501 457.764 35.2501 457.766 35.2501C457.769 35.2501 457.771 35.2501 457.773 35.2501C457.775 35.2501 457.778 35.2501 457.78 35.2501C457.782 35.2501 457.785 35.2501 457.787 35.2501C457.79 35.2501 457.792 35.2501 457.794 35.2501C457.797 35.2501 457.799 35.2501 457.802 35.2501C457.804 35.2501 457.806 35.2501 457.809 35.2501C457.811 35.2501 457.814 35.2501 457.816 35.2501C457.819 35.2501 457.821 35.2501 457.824 35.2501C457.826 35.2501 457.829 35.2501 457.831 35.2501C457.834 35.2501 457.836 35.2501 457.839 35.2501C457.842 35.2501 457.844 35.2501 457.847 35.2501C457.849 35.2501 457.852 35.2501 457.855 35.2501C457.857 35.2501 457.86 35.2501 457.862 35.2501C457.865 35.2501 457.868 35.2501 457.87 35.2501C457.873 35.2501 457.876 35.2501 457.878 35.2501C457.881 35.2501 457.884 35.2501 457.887 35.2501C457.889 35.2501 457.892 35.2501 457.895 35.2501C457.898 35.2501 457.9 35.2501 457.903 35.2501C457.906 35.2501 457.909 35.2501 457.911 35.2501C457.914 35.2501 457.917 35.2501 457.92 35.2501C457.923 35.2501 457.926 35.2501 457.929 35.2501C457.931 35.2501 457.934 35.2501 457.937 35.2501C457.94 35.2501 457.943 35.2501 457.946 35.2501C457.949 35.2501 457.952 35.2501 457.955 35.2501C457.958 35.2501 457.961 35.2501 457.964 35.2501C457.966 35.2501 457.969 35.2501 457.972 35.2501C457.975 35.2501 457.978 35.2501 457.981 35.2501C457.985 35.2501 457.988 35.2501 457.991 35.2501C457.994 35.2501 457.997 35.2501 458 35.2501C458.003 35.2501 458.006 35.2501 458.009 35.2501C458.012 35.2501 458.015 35.2501 458.018 35.2501C458.022 35.2501 458.025 35.2501 458.028 35.2501C458.031 35.2501 458.034 35.2501 458.037 35.2501C458.041 35.2501 458.044 35.2501 458.047 35.2501C458.05 35.2501 458.053 35.2501 458.057 35.2501C458.06 35.2501 458.063 35.2501 458.066 35.2501C458.07 35.2501 458.073 35.2501 458.076 35.2501C458.079 35.2501 458.083 35.2501 458.086 35.2501C458.089 35.2501 458.093 35.2501 458.096 35.2501C458.099 35.2501 458.103 35.2501 458.106 35.2501C458.109 35.2501 458.113 35.2501 458.116 35.2501C458.12 35.2501 458.123 35.2501 458.126 35.2501C458.13 35.2501 458.133 35.2501 458.137 35.2501C458.14 35.2501 458.144 35.2501 458.147 35.2501C458.151 35.2501 458.154 35.2501 458.158 35.2501C458.161 35.2501 458.165 35.2501 458.168 35.2501C458.172 35.2501 458.175 35.2501 458.179 35.2501C458.182 35.2501 458.186 35.2501 458.189 35.2501C458.193 35.2501 458.197 35.2501 458.2 35.2501C458.204 35.2501 458.207 35.2501 458.211 35.2501C458.215 35.2501 458.218 35.2501 458.222 35.2501C458.226 35.2501 458.229 35.2501 458.233 35.2501C458.237 35.2501 458.24 35.2501 458.244 35.2501C458.248 35.2501 458.251 35.2501 458.255 35.2501C458.259 35.2501 458.263 35.2501 458.266 35.2501C458.27 35.2501 458.274 35.2501 458.278 35.2501C458.281 35.2501 458.285 35.2501 458.289 35.2501C458.293 35.2501 458.297 35.2501 458.3 35.2501C458.304 35.2501 458.308 35.2501 458.312 35.2501C458.316 35.2501 458.32 35.2501 458.323 35.2501C458.327 35.2501 458.331 35.2501 458.335 35.2501C458.339 35.2501 458.343 35.2501 458.347 35.2501C458.351 35.2501 458.355 35.2501 458.359 35.2501C458.363 35.2501 458.367 35.2501 458.371 35.2501C458.375 35.2501 458.379 35.2501 458.383 35.2501C458.387 35.2501 458.391 35.2501 458.395 35.2501C458.399 35.2501 458.403 35.2501 458.407 35.2501C458.411 35.2501 458.415 35.2501 458.419 35.2501C458.423 35.2501 458.427 35.2501 458.431 35.2501C458.435 35.2501 458.439 35.2501 458.443 35.2501C458.448 35.2501 458.452 35.2501 458.456 35.2501C458.46 35.2501 458.464 35.2501 458.468 35.2501C458.473 35.2501 458.477 35.2501 458.481 35.2501C458.485 35.2501 458.489 35.2501 458.494 35.2501C458.498 35.2501 458.502 35.2501 458.506 35.2501C458.51 35.2501 458.515 35.2501 458.519 35.2501C458.523 35.2501 458.528 35.2501 458.532 35.2501C458.536 35.2501 458.54 35.2501 458.545 35.2501C458.549 35.2501 458.553 35.2501 458.558 35.2501C458.562 35.2501 458.566 35.2501 458.571 35.2501C458.575 35.2501 458.58 35.2501 458.584 35.2501C458.588 35.2501 458.593 35.2501 458.597 35.2501C458.602 35.2501 458.606 35.2501 458.61 35.2501C458.615 35.2501 458.619 35.2501 458.624 35.2501C458.628 35.2501 458.633 35.2501 458.637 35.2501C458.642 35.2501 458.646 35.2501 458.651 35.2501C458.655 35.2501 458.66 35.2501 458.664 35.2501C458.669 35.2501 458.673 35.2501 458.678 35.2501C458.682 35.2501 458.687 35.2501 458.691 35.2501C458.696 35.2501 458.701 35.2501 458.705 35.2501C458.71 35.2501 458.714 35.2501 458.719 35.2501C458.724 35.2501 458.728 35.2501 458.733 35.2501C458.738 35.2501 458.742 35.2501 458.747 35.2501C458.752 35.2501 458.756 35.2501 458.761 35.2501C458.766 35.2501 458.77 35.2501 458.775 35.2501C458.78 35.2501 458.785 35.2501 458.789 35.2501C458.794 35.2501 458.799 35.2501 458.804 35.2501C458.808 35.2501 458.813 35.2501 458.818 35.2501C458.823 35.2501 458.827 35.2501 458.832 35.2501C458.837 35.2501 458.842 35.2501 458.847 35.2501C458.852 35.2501 458.856 35.2501 458.861 35.2501C458.866 35.2501 458.871 35.2501 458.876 35.2501C458.881 35.2501 458.886 35.2501 458.891 35.2501C458.895 35.2501 458.9 35.2501 458.905 35.2501C458.91 35.2501 458.915 35.2501 458.92 35.2501C458.925 35.2501 458.93 35.2501 458.935 35.2501C458.94 35.2501 458.945 35.2501 458.95 35.2501C458.955 35.2501 458.96 35.2501 458.965 35.2501C458.97 35.2501 458.975 35.2501 458.98 35.2501C458.985 35.2501 458.99 35.2501 458.995 35.2501C459 35.2501 459.005 35.2501 459.01 35.2501C459.015 35.2501 459.021 35.2501 459.026 35.2501C459.031 35.2501 459.036 35.2501 459.041 35.2501C459.046 35.2501 459.051 35.2501 459.056 35.2501C459.061 35.2501 459.067 35.2501 459.072 35.2501C459.077 35.2501 459.082 35.2501 459.087 35.2501C459.093 35.2501 459.098 35.2501 459.103 35.2501C459.108 35.2501 459.113 35.2501 459.119 35.2501C459.124 35.2501 459.129 35.2501 459.134 35.2501C459.14 35.2501 459.145 35.2501 459.15 35.2501C459.155 35.2501 459.161 35.2501 459.166 35.2501C459.171 35.2501 459.177 35.2501 459.182 35.2501C459.187 35.2501 459.193 35.2501 459.198 35.2501C459.203 35.2501 459.209 35.2501 459.214 35.2501C459.219 35.2501 459.225 35.2501 459.23 35.2501C459.236 35.2501 459.241 35.2501 459.246 35.2501C459.252 35.2501 459.257 35.2501 459.263 35.2501C459.268 35.2501 459.274 35.2501 459.279 35.2501C459.284 35.2501 459.29 35.2501 459.295 35.2501C459.301 35.2501 459.306 35.2501 459.312 35.2501C459.317 35.2501 459.323 35.2501 459.328 35.2501C459.334 35.2501 459.339 35.2501 459.345 35.2501C459.35 35.2501 459.356 35.2501 459.362 35.2501C459.367 35.2501 459.373 35.2501 459.378 35.2501C459.384 35.2501 459.389 35.2501 459.395 35.2501C459.401 35.2501 459.406 35.2501 459.412 35.2501C459.417 35.2501 459.423 35.2501 459.429 35.2501C459.434 35.2501 459.44 35.2501 459.446 35.2501C459.451 35.2501 459.457 35.2501 459.463 35.2501C459.468 35.2501 459.474 35.2501 459.48 35.2501C459.485 35.2501 459.491 35.2501 459.497 35.2501C459.503 35.2501 459.508 35.2501 459.514 35.2501C459.52 35.2501 459.526 35.2501 459.531 35.2501C459.537 35.2501 459.543 35.2501 459.549 35.2501C459.555 35.2501 459.56 35.2501 459.566 35.2501C459.572 35.2501 459.578 35.2501 459.584 35.2501C459.589 35.2501 459.595 35.2501 459.601 35.2501C459.607 35.2501 459.613 35.2501 459.619 35.2501C459.625 35.2501 459.63 35.2501 459.636 35.2501C459.642 35.2501 459.648 35.2501 459.654 35.2501C459.66 35.2501 459.666 35.2501 459.672 35.2501C459.678 35.2501 459.684 35.2501 459.69 35.2501C459.696 35.2501 459.702 35.2501 459.707 35.2501C459.713 35.2501 459.719 35.2501 459.725 35.2501C459.731 35.2501 459.737 35.2501 459.743 35.2501C459.749 35.2501 459.755 35.2501 459.761 35.2501C459.768 35.2501 459.774 35.2501 459.78 35.2501C459.786 35.2501 459.792 35.2501 459.798 35.2501C459.804 35.2501 459.81 35.2501 459.816 35.2501C459.822 35.2501 459.828 35.2501 459.834 35.2501C459.84 35.2501 459.847 35.2501 459.853 35.2501C459.859 35.2501 459.865 35.2501 459.871 35.2501C459.877 35.2501 459.883 35.2501 459.89 35.2501C459.896 35.2501 459.902 35.2501 459.908 35.2501C459.914 35.2501 459.921 35.2501 459.927 35.2501C459.933 35.2501 459.939 35.2501 459.945 35.2501C459.952 35.2501 459.958 35.2501 459.964 35.2501C459.97 35.2501 459.977 35.2501 459.983 35.2501C459.989 35.2501 459.995 35.2501 460.002 35.2501C460.008 35.2501 460.014 35.2501 460.021 35.2501C460.027 35.2501 460.033 35.2501 460.04 35.2501C460.046 35.2501 460.052 35.2501 460.059 35.2501C460.065 35.2501 460.071 35.2501 460.078 35.2501C460.084 35.2501 460.09 35.2501 460.097 35.2501C460.103 35.2501 460.109 35.2501 460.116 35.2501C460.122 35.2501 460.129 35.2501 460.135 35.2501C460.142 35.2501 460.148 35.2501 460.154 35.2501C460.161 35.2501 460.167 35.2501 460.174 35.2501C460.18 35.2501 460.187 35.2501 460.193 35.2501C460.2 35.2501 460.206 35.2501 460.213 35.2501C460.219 35.2501 460.226 35.2501 460.232 35.2501C460.239 35.2501 460.245 35.2501 460.252 35.2501C460.258 35.2501 460.265 35.2501 460.271 35.2501C460.278 35.2501 460.284 35.2501 460.291 35.2501C460.298 35.2501 460.304 35.2501 460.311 35.2501C460.317 35.2501 460.324 35.2501 460.33 35.2501C460.337 35.2501 460.344 35.2501 460.35 35.2501C460.357 35.2501 460.364 35.2501 460.37 35.2501C460.377 35.2501 460.383 35.2501 460.39 35.2501C460.397 35.2501 460.403 35.2501 460.41 35.2501C460.417 35.2501 460.424 35.2501 460.43 35.2501C460.437 35.2501 460.444 35.2501 460.45 35.2501C460.457 35.2501 460.464 35.2501 460.471 35.2501C460.477 35.2501 460.484 35.2501 460.491 35.2501C460.497 35.2501 460.504 35.2501 460.511 35.2501C460.518 35.2501 460.525 35.2501 460.531 35.2501C460.538 35.2501 460.545 35.2501 460.552 35.2501C460.559 35.2501 460.565 35.2501 460.572 35.2501C460.579 35.2501 460.586 35.2501 460.593 35.2501C460.6 35.2501 460.606 35.2501 460.613 35.2501C460.62 35.2501 460.627 35.2501 460.634 35.2501C460.641 35.2501 460.648 35.2501 460.654 35.2501C460.661 35.2501 460.668 35.2501 460.675 35.2501C460.682 35.2501 460.689 35.2501 460.696 35.2501C460.703 35.2501 460.71 35.2501 460.717 35.2501C460.724 35.2501 460.731 35.2501 460.738 35.2501C460.745 35.2501 460.752 35.2501 460.759 35.2501C460.765 35.2501 460.772 35.2501 460.779 35.2501C460.786 35.2501 460.793 35.2501 460.8 35.2501C460.808 35.2501 460.815 35.2501 460.822 35.2501C460.829 35.2501 460.836 35.2501 460.843 35.2501C460.85 35.2501 460.857 35.2501 460.864 35.2501C460.871 35.2501 460.878 35.2501 460.885 35.2501C460.892 35.2501 460.899 35.2501 460.906 35.2501C460.913 35.2501 460.921 35.2501 460.928 35.2501C460.935 35.2501 460.942 35.2501 460.949 35.2501C460.956 35.2501 460.963 35.2501 460.97 35.2501C460.978 35.2501 460.985 35.2501 460.992 35.2501C460.999 35.2501 461.006 35.2501 461.013 35.2501C461.021 35.2501 461.028 35.2501 461.035 35.2501C461.042 35.2501 461.049 35.2501 461.057 35.2501C461.064 35.2501 461.071 35.2501 461.078 35.2501C461.086 35.2501 461.093 35.2501 461.1 35.2501C461.107 35.2501 461.115 35.2501 461.122 35.2501C461.129 35.2501 461.136 35.2501 461.144 35.2501C461.151 35.2501 461.158 35.2501 461.166 35.2501C461.173 35.2501 461.18 35.2501 461.187 35.2501C461.195 35.2501 461.202 35.2501 461.209 35.2501C461.217 35.2501 461.224 35.2501 461.231 35.2501C461.239 35.2501 461.246 35.2501 461.254 35.2501C461.261 35.2501 461.268 35.2501 461.276 35.2501C461.283 35.2501 461.29 35.2501 461.298 35.2501C461.305 35.2501 461.313 35.2501 461.32 35.2501C461.327 35.2501 461.335 35.2501 461.342 35.2501C461.35 35.2501 461.357 35.2501 461.365 35.2501C461.372 35.2501 461.379 35.2501 461.387 35.2501C461.394 35.2501 461.402 35.2501 461.409 35.2501C461.417 35.2501 461.424 35.2501 461.432 35.2501C461.439 35.2501 461.447 35.2501 461.454 35.2501C461.462 35.2501 461.469 35.2501 461.477 35.2501C461.484 35.2501 461.492 35.2501 461.499 35.2501C461.507 35.2501 461.514 35.2501 461.522 35.2501C461.53 35.2501 461.537 35.2501 461.545 35.2501C461.552 35.2501 461.56 35.2501 461.567 35.2501C461.575 35.2501 461.583 35.2501 461.59 35.2501C461.598 35.2501 461.605 35.2501 461.613 35.2501C461.621 35.2501 461.628 35.2501 461.636 35.2501C461.644 35.2501 461.651 35.2501 461.659 35.2501C461.666 35.2501 461.674 35.2501 461.682 35.2501C461.689 35.2501 461.697 35.2501 461.705 35.2501C461.712 35.2501 461.72 35.2501 461.728 35.2501C461.736 35.2501 461.743 35.2501 461.751 35.2501C461.759 35.2501 461.766 35.2501 461.774 35.2501C461.782 35.2501 461.789 35.2501 461.797 35.2501C461.805 35.2501 461.813 35.2501 461.82 35.2501C461.828 35.2501 461.836 35.2501 461.844 35.2501C461.851 35.2501 461.859 35.2501 461.867 35.2501C461.875 35.2501 461.883 35.2501 461.89 35.2501C461.898 35.2501 461.906 35.2501 461.914 35.2501C461.922 35.2501 461.929 35.2501 461.937 35.2501C461.945 35.2501 461.953 35.2501 461.961 35.2501C461.969 35.2501 461.976 35.2501 461.984 35.2501C461.992 35.2501 462 35.2501 462.008 35.2501C462.016 35.2501 462.024 35.2501 462.031 35.2501C462.039 35.2501 462.047 35.2501 462.055 35.2501C462.063 35.2501 462.071 35.2501 462.079 35.2501C462.087 35.2501 462.095 35.2501 462.103 35.2501C462.111 35.2501 462.118 35.2501 462.126 35.2501C462.134 35.2501 462.142 35.2501 462.15 35.2501C462.158 35.2501 462.166 35.2501 462.174 35.2501C462.182 35.2501 462.19 35.2501 462.198 35.2501C462.206 35.2501 462.214 35.2501 462.222 35.2501C462.23 35.2501 462.238 35.2501 462.246 35.2501C462.254 35.2501 462.262 35.2501 462.27 35.2501C462.278 35.2501 462.286 35.2501 462.294 35.2501C462.302 35.2501 462.31 35.2501 462.318 35.2501C462.326 35.2501 462.334 35.2501 462.342 35.2501C462.35 35.2501 462.358 35.2501 462.367 35.2501C462.375 35.2501 462.383 35.2501 462.391 35.2501C462.399 35.2501 462.407 35.2501 462.415 35.2501C462.423 35.2501 462.431 35.2501 462.439 35.2501C462.448 35.2501 462.456 35.2501 462.464 35.2501C462.472 35.2501 462.48 35.2501 462.488 35.2501C462.496 35.2501 462.505 35.2501 462.513 35.2501C462.521 35.2501 462.529 35.2501 462.537 35.2501C462.545 35.2501 462.553 35.2501 462.562 35.2501C462.57 35.2501 462.578 35.2501 462.586 35.2501C462.594 35.2501 462.603 35.2501 462.611 35.2501C462.619 35.2501 462.627 35.2501 462.635 35.2501C462.644 35.2501 462.652 35.2501 462.66 35.2501C462.668 35.2501 462.677 35.2501 462.685 35.2501C462.693 35.2501 462.701 35.2501 462.71 35.2501C462.718 35.2501 462.726 35.2501 462.734 35.2501C462.743 35.2501 462.751 35.2501 462.759 35.2501C462.768 35.2501 462.776 35.2501 462.784 35.2501C462.792 35.2501 462.801 35.2501 462.809 35.2501C462.817 35.2501 462.826 35.2501 462.834 35.2501C462.842 35.2501 462.851 35.2501 462.859 35.2501C462.867 35.2501 462.876 35.2501 462.884 35.2501C462.892 35.2501 462.901 35.2501 462.909 35.2501C462.917 35.2501 462.926 35.2501 462.934 35.2501C462.943 35.2501 462.951 35.2501 462.959 35.2501C462.968 35.2501 462.976 35.2501 462.985 35.2501C462.993 35.2501 463.001 35.2501 463.01 35.2501C463.018 35.2501 463.027 35.2501 463.035 35.2501C463.043 35.2501 463.052 35.2501 463.06 35.2501C463.069 35.2501 463.077 35.2501 463.086 35.2501C463.094 35.2501 463.103 35.2501 463.111 35.2501C463.119 35.2501 463.128 35.2501 463.136 35.2501C463.145 35.2501 463.153 35.2501 463.162 35.2501C463.17 35.2501 463.179 35.2501 463.187 35.2501C463.196 35.2501 463.204 35.2501 463.213 35.2501C463.221 35.2501 463.23 35.2501 463.238 35.2501C463.247 35.2501 463.255 35.2501 463.264 35.2501C463.272 35.2501 463.281 35.2501 463.29 35.2501C463.298 35.2501 463.307 35.2501 463.315 35.2501C463.324 35.2501 463.332 35.2501 463.341 35.2501C463.349 35.2501 463.358 35.2501 463.367 35.2501C463.375 35.2501 463.384 35.2501 463.392 35.2501C463.401 35.2501 463.409 35.2501 463.418 35.2501C463.427 35.2501 463.435 35.2501 463.444 35.2501C463.453 35.2501 463.461 35.2501 463.47 35.2501C463.478 35.2501 463.487 35.2501 463.496 35.2501C463.504 35.2501 463.513 35.2501 463.522 35.2501C463.53 35.2501 463.539 35.2501 463.548 35.2501C463.556 35.2501 463.565 35.2501 463.573 35.2501C463.582 35.2501 463.591 35.2501 463.6 35.2501C463.608 35.2501 463.617 35.2501 463.626 35.2501C463.634 35.2501 463.643 35.2501 463.652 35.2501C463.66 35.2501 463.669 35.2501 463.678 35.2501C463.686 35.2501 463.695 35.2501 463.704 35.2501C463.713 35.2501 463.721 35.2501 463.73 35.2501C463.739 35.2501 463.748 35.2501 463.756 35.2501C463.765 35.2501 463.774 35.2501 463.783 35.2501C463.791 35.2501 463.8 35.2501 463.809 35.2501C463.818 35.2501 463.826 35.2501 463.835 35.2501C463.844 35.2501 463.853 35.2501 463.861 35.2501C463.87 35.2501 463.879 35.2501 463.888 35.2501C463.897 35.2501 463.905 35.2501 463.914 35.2501C463.923 35.2501 463.932 35.2501 463.941 35.2501C463.95 35.2501 463.958 35.2501 463.967 35.2501C463.976 35.2501 463.985 35.2501 463.994 35.2501C464.003 35.2501 464.011 35.2501 464.02 35.2501C464.029 35.2501 464.038 35.2501 464.047 35.2501C464.056 35.2501 464.064 35.2501 464.073 35.2501C464.082 35.2501 464.091 35.2501 464.1 35.2501C464.109 35.2501 464.118 35.2501 464.127 35.2501C464.136 35.2501 464.144 35.2501 464.153 35.2501C464.162 35.2501 464.171 35.2501 464.18 35.2501C464.189 35.2501 464.198 35.2501 464.207 35.2501C464.216 35.2501 464.225 35.2501 464.234 35.2501C464.242 35.2501 464.251 35.2501 464.26 35.2501C464.269 35.2501 464.278 35.2501 464.287 35.2501C464.296 35.2501 464.305 35.2501 464.314 35.2501C464.323 35.2501 464.332 35.2501 464.341 35.2501C464.35 35.2501 464.359 35.2501 464.368 35.2501C464.377 35.2501 464.386 35.2501 464.395 35.2501C464.404 35.2501 464.413 35.2501 464.422 35.2501C464.431 35.2501 464.44 35.2501 464.449 35.2501C464.458 35.2501 464.467 35.2501 464.476 35.2501C464.485 35.2501 464.494 35.2501 464.503 35.2501C464.512 35.2501 464.521 35.2501 464.53 35.2501C464.539 35.2501 464.548 35.2501 464.557 35.2501C464.566 35.2501 464.575 35.2501 464.584 35.2501C464.593 35.2501 464.602 35.2501 464.611 35.2501C464.62 35.2501 464.629 35.2501 464.638 35.2501C464.648 35.2501 464.657 35.2501 464.666 35.2501C464.675 35.2501 464.684 35.2501 464.693 35.2501C464.702 35.2501 464.711 35.2501 464.72 35.2501C464.729 35.2501 464.738 35.2501 464.748 35.2501C464.757 35.2501 464.766 35.2501 464.775 35.2501C464.784 35.2501 464.793 35.2501 464.802 35.2501C464.811 35.2501 464.82 35.2501 464.83 35.2501C464.839 35.2501 464.848 35.2501 464.857 35.2501C464.866 35.2501 464.875 35.2501 464.884 35.2501C464.894 35.2501 464.903 35.2501 464.912 35.2501C464.921 35.2501 464.93 35.2501 464.939 35.2501C464.949 35.2501 464.958 35.2501 464.967 35.2501C464.976 35.2501 464.985 35.2501 464.994 35.2501C465.004 35.2501 465.013 35.2501 465.022 35.2501C465.031 35.2501 465.04 35.2501 465.05 35.2501C465.059 35.2501 465.068 35.2501 465.077 35.2501C465.086 35.2501 465.096 35.2501 465.105 35.2501C465.114 35.2501 465.123 35.2501 465.132 35.2501C465.142 35.2501 465.151 35.2501 465.16 35.2501C465.169 35.2501 465.179 35.2501 465.188 35.2501C465.197 35.2501 465.206 35.2501 465.216 35.2501C465.225 35.2501 465.234 35.2501 465.243 35.2501C465.253 35.2501 465.262 35.2501 465.271 35.2501C465.28 35.2501 465.29 35.2501 465.299 35.2501C465.308 35.2501 465.317 35.2501 465.327 35.2501C465.336 35.2501 465.345 35.2501 465.355 35.2501C465.364 35.2501 465.373 35.2501 465.382 35.2501C465.392 35.2501 465.401 35.2501 465.41 35.2501C465.42 35.2501 465.429 35.2501 465.438 35.2501C465.447 35.2501 465.457 35.2501 465.466 35.2501C465.475 35.2501 465.485 35.2501 465.494 35.2501C465.503 35.2501 465.513 35.2501 465.522 35.2501C465.531 35.2501 465.541 35.2501 465.55 35.2501C465.559 35.2501 465.569 35.2501 465.578 35.2501C465.587 35.2501 465.597 35.2501 465.606 35.2501C465.615 35.2501 465.625 35.2501 465.634 35.2501C465.644 35.2501 465.653 35.2501 465.662 35.2501C465.672 35.2501 465.681 35.2501 465.69 35.2501C465.7 35.2501 465.709 35.2501 465.718 35.2501C465.728 35.2501 465.737 35.2501 465.747 35.2501C465.756 35.2501 465.765 35.2501 465.775 35.2501C465.784 35.2501 465.794 35.2501 465.803 35.2501C465.812 35.2501 465.822 35.2501 465.831 35.2501C465.841 35.2501 465.85 35.2501 465.859 35.2501C465.869 35.2501 465.878 35.2501 465.888 35.2501C465.897 35.2501 465.907 35.2501 465.916 35.2501C465.925 35.2501 465.935 35.2501 465.944 35.2501C465.954 35.2501 465.963 35.2501 465.973 35.2501C465.982 35.2501 465.991 35.2501 466.001 35.2501C466.01 35.2501 466.02 35.2501 466.029 35.2501C466.039 35.2501 466.048 35.2501 466.058 35.2501C466.067 35.2501 466.077 35.2501 466.086 35.2501C466.095 35.2501 466.105 35.2501 466.114 35.2501C466.124 35.2501 466.133 35.2501 466.143 35.2501C466.152 35.2501 466.162 35.2501 466.171 35.2501C466.181 35.2501 466.19 35.2501 466.2 35.2501C466.209 35.2501 466.219 35.2501 466.228 35.2501C466.238 35.2501 466.247 35.2501 466.257 35.2501C466.266 35.2501 466.276 35.2501 466.285 35.2501C466.295 35.2501 466.304 35.2501 466.314 35.2501C466.323 35.2501 466.333 35.2501 466.342 35.2501C466.352 35.2501 466.361 35.2501 466.371 35.2501C466.38 35.2501 466.39 35.2501 466.399 35.2501C466.409 35.2501 466.419 35.2501 466.428 35.2501C466.438 35.2501 466.447 35.2501 466.457 35.2501C466.466 35.2501 466.476 35.2501 466.485 35.2501C466.495 35.2501 466.504 35.2501 466.514 35.2501C466.524 35.2501 466.533 35.2501 466.543 35.2501C466.552 35.2501 466.562 35.2501 466.571 35.2501C466.581 35.2501 466.59 35.2501 466.6 35.2501V33.7501Z" fill="black"/>
<path d="M443.5 301.5C444.167 289.667 444 261.8 438 245C430.5 224 421.5 213.5 422 190.5C422.5 167.5 414.5 150 392 141C369.5 132 318.5 135.5 307.5 125C296.5 114.5 289 122 275.5 128C262 134 222 146.5 226.5 166.5C231 186.5 214 201.5 210 215C206 228.5 205 309 207.5 319.5" stroke="#313131" stroke-width="2"/>
<path d="M405.416 271.997C405.966 272.043 406.45 271.635 406.496 271.085L407.256 262.117C407.303 261.566 406.895 261.082 406.344 261.036C405.794 260.989 405.31 261.398 405.264 261.948L404.588 269.919L396.617 269.244C396.066 269.197 395.582 269.605 395.536 270.156C395.489 270.706 395.897 271.19 396.448 271.237L405.416 271.997ZM351.531 271.247C351.667 271.782 352.212 272.106 352.747 271.969L361.468 269.746C362.003 269.61 362.327 269.065 362.19 268.53C362.054 267.995 361.509 267.672 360.974 267.808L353.222 269.784L351.246 262.032C351.11 261.497 350.565 261.174 350.03 261.31C349.495 261.446 349.172 261.991 349.308 262.526L351.531 271.247ZM406.264 270.355C403.95 267.612 399.995 263.916 395.086 260.898C390.181 257.883 384.248 255.5 378 255.5V257.5C383.752 257.5 389.319 259.701 394.039 262.602C398.755 265.501 402.55 269.054 404.736 271.645L406.264 270.355ZM378 255.5C371.748 255.5 365.975 257.885 361.386 260.916C356.807 263.94 353.315 267.669 351.64 270.49L353.36 271.511C354.852 268.998 358.11 265.477 362.489 262.585C366.858 259.699 372.252 257.5 378 257.5V255.5Z" fill="#313131"/>
<path d="M289.916 270.997C290.466 271.043 290.95 270.635 290.996 270.085L291.756 261.117C291.803 260.566 291.395 260.082 290.844 260.036C290.294 259.989 289.81 260.398 289.764 260.948L289.088 268.919L281.117 268.244C280.566 268.197 280.082 268.605 280.036 269.156C279.989 269.706 280.397 270.19 280.948 270.237L289.916 270.997ZM236.031 270.247C236.167 270.782 236.712 271.106 237.247 270.969L245.968 268.746C246.503 268.61 246.827 268.065 246.69 267.53C246.554 266.995 246.009 266.672 245.474 266.808L237.722 268.784L235.746 261.032C235.61 260.497 235.065 260.174 234.53 260.31C233.995 260.446 233.672 260.991 233.808 261.526L236.031 270.247ZM290.764 269.355C288.45 266.612 284.495 262.916 279.586 259.898C274.681 256.883 268.748 254.5 262.5 254.5V256.5C268.252 256.5 273.819 258.701 278.539 261.602C283.255 264.501 287.05 268.054 289.236 270.645L290.764 269.355ZM262.5 254.5C256.248 254.5 250.475 256.885 245.886 259.916C241.307 262.94 237.815 266.669 236.14 269.49L237.86 270.511C239.352 267.998 242.61 264.477 246.989 261.585C251.358 258.699 256.752 256.5 262.5 256.5V254.5Z" fill="#313131"/>
<path d="M445.5 303C451.5 297.833 464 281.9 466 259.5C468.5 231.5 472 202 461 174C450 146 452.451 142.669 445.5 122.5C440.545 108.122 440.497 105.353 428.5 86.5001C425 81.0001 413.056 61.4449 407 55.5001C405.237 53.769 410.5 68.0001 404 67.0519C400.161 65.9267 382.175 43.1144 361 25.5001C343.564 10.9959 322.516 0.999945 318 1C313.14 1.00006 298.142 13.2344 285.5 28.5001C272.129 44.6461 261.077 64.0644 255.5 71.5C249.5 79.5001 257 47.5001 250.5 50.5C244 53.4999 238.891 65.9462 231.942 76.0001C230.697 77.802 228.259 61.6381 227 63.5001C219.969 76.307 209.967 93.5532 205.5 108.5C201.073 123.314 196.657 136.352 195 144C188.5 174 195.5 177 190.5 197.5C185.5 218 181.5 237 184 262C186.5 287 191 308.5 205.5 319.5" stroke="#313131" stroke-width="2" stroke-linecap="round" stroke-linejoin="round"/>
<path d="M436.857 367.734C436.434 368.09 436.379 368.72 436.734 369.143L442.523 376.035C442.878 376.458 443.509 376.512 443.932 376.157C444.355 375.802 444.41 375.171 444.054 374.748L438.909 368.623L445.035 363.477C445.457 363.122 445.512 362.491 445.157 362.068C444.802 361.645 444.171 361.59 443.748 361.946L436.857 367.734ZM463.778 273.04C463.248 272.886 462.693 273.192 462.539 273.722C462.386 274.253 462.691 274.807 463.222 274.961L463.778 273.04ZM437.413 369.496C441.35 369.839 447.993 369.422 452.707 364.707L451.293 363.293C447.207 367.379 441.317 367.828 437.587 367.504L437.413 369.496ZM452.707 364.707C455.552 361.863 460.354 355.02 464.485 348.074C466.558 344.586 468.483 341.038 469.924 337.911C471.346 334.824 472.358 332.021 472.497 330.071L470.503 329.929C470.392 331.479 469.529 333.988 468.107 337.074C466.705 340.118 464.817 343.602 462.765 347.052C458.646 353.981 453.948 360.637 451.293 363.293L452.707 364.707ZM472.497 330.071C472.607 328.542 473.27 326.917 474.311 324.972C474.828 324.007 475.421 322.993 476.064 321.89C476.704 320.793 477.387 319.615 478.068 318.349C480.805 313.258 483.5 306.718 483.5 297.5H481.5C481.5 306.282 478.945 312.492 476.307 317.402C475.644 318.635 474.976 319.785 474.336 320.883C473.7 321.976 473.086 323.024 472.548 324.028C471.48 326.021 470.643 327.958 470.503 329.929L472.497 330.071ZM483.5 297.5C483.5 289.975 480.181 284.313 476.072 280.32C471.981 276.346 467.081 273.996 463.778 273.04L463.222 274.961C466.253 275.838 470.852 278.038 474.678 281.755C478.486 285.454 481.5 290.625 481.5 297.5H483.5Z" fill="#313131"/>
<path d="M444 310C441.667 337.833 432.3 398.2 413.5 417C390 440.5 364 476 326 476C288 476 265.5 458.5 249 441.5C232.5 424.5 218 408.5 211.5 365.5C210 354 207 330 207 326" stroke="#313131" stroke-width="2"/>
<circle cx="444" cy="303.5" r="6" fill="black" stroke="#313131" stroke-width="2"/>
<circle cx="409" cy="56.5001" r="6" fill="black" stroke="#313131" stroke-width="2"/>
<circle cx="227" cy="62.5001" r="6" fill="black" stroke="#313131" stroke-width="2"/>
<circle cx="378" cy="265.5" r="6" fill="black" stroke="#313131" stroke-width="2"/>
<circle cx="207" cy="321.5" r="6" fill="black" stroke="#313131" stroke-width="2"/>
<circle cx="264" cy="264.5" r="6" fill="black" stroke="#313131" stroke-width="2"/>
<path d="M269 385C269 385 288.025 379.254 301 380.5C306.756 381.053 313 383 316.5 383C320 383 330.999 379.626 340.5 379.5C351.991 379.348 369.5 384 369.5 384M269 385C273 392 292 411.5 318.5 410.5C339.7 409.7 361.333 392.5 369.5 384M269 385C277.833 387.334 299.7 392.1 316.5 392.5C333.3 392.9 358.833 387 369.5 384" stroke="#313131" stroke-width="2" stroke-linejoin="round"/>
<path d="M215.509 251.637C215.585 252.184 216.09 252.566 216.637 252.491L225.552 251.256C226.099 251.181 226.481 250.676 226.405 250.129C226.33 249.582 225.825 249.199 225.278 249.275L217.353 250.372L216.256 242.448C216.18 241.901 215.676 241.519 215.128 241.595C214.581 241.67 214.199 242.175 214.275 242.722L215.509 251.637ZM287.223 246.475C287.761 246.352 288.098 245.816 287.975 245.277L285.969 236.504C285.846 235.965 285.31 235.628 284.772 235.752C284.233 235.875 283.897 236.411 284.02 236.949L285.802 244.748L278.003 246.531C277.465 246.654 277.128 247.19 277.251 247.728C277.374 248.267 277.911 248.603 278.449 248.48L287.223 246.475ZM216.5 251.5C217.297 252.104 217.297 252.104 217.297 252.104C217.297 252.104 217.297 252.104 217.297 252.104C217.298 252.103 217.298 252.103 217.299 252.102C217.3 252.1 217.302 252.098 217.305 252.094C217.311 252.086 217.32 252.074 217.332 252.058C217.357 252.025 217.396 251.976 217.447 251.911C217.55 251.781 217.704 251.587 217.908 251.34C218.316 250.844 218.92 250.132 219.7 249.275C221.263 247.559 223.525 245.266 226.324 242.959C231.946 238.325 239.608 233.74 248.029 233.5L247.971 231.501C238.892 231.76 230.804 236.675 225.051 241.416C222.162 243.797 219.831 246.16 218.221 247.929C217.416 248.813 216.79 249.551 216.364 250.069C216.15 250.328 215.987 250.533 215.876 250.674C215.82 250.744 215.778 250.799 215.749 250.836C215.735 250.855 215.723 250.869 215.716 250.88C215.712 250.885 215.709 250.889 215.707 250.891C215.705 250.893 215.705 250.894 215.704 250.895C215.704 250.895 215.703 250.896 215.703 250.896C215.703 250.896 215.703 250.897 216.5 251.5ZM248.029 233.5C256.551 233.256 266.135 236.432 273.661 239.729C277.409 241.37 280.616 243.028 282.886 244.275C284.02 244.898 284.919 245.418 285.533 245.782C285.84 245.963 286.075 246.106 286.233 246.202C286.312 246.25 286.372 246.287 286.411 246.312C286.431 246.324 286.446 246.333 286.455 246.339C286.46 246.342 286.463 246.344 286.466 246.345C286.467 246.346 286.467 246.347 286.468 246.347C286.468 246.347 286.468 246.347 286.468 246.347C286.468 246.347 286.468 246.347 287 245.5C287.532 244.653 287.532 244.653 287.531 244.653C287.531 244.653 287.531 244.652 287.53 244.652C287.529 244.652 287.528 244.651 287.527 244.65C287.524 244.648 287.519 244.645 287.514 244.642C287.502 244.635 287.486 244.625 287.464 244.611C287.421 244.585 287.358 244.546 287.275 244.495C287.11 244.394 286.866 244.247 286.551 244.06C285.921 243.687 285.004 243.157 283.849 242.522C281.54 241.254 278.278 239.568 274.464 237.897C266.865 234.568 256.949 231.244 247.971 231.501L248.029 233.5Z" fill="#313131"/>
<path d="M349.016 247.692C349.114 248.235 349.634 248.596 350.178 248.498L359.034 246.898C359.578 246.799 359.939 246.279 359.841 245.736C359.742 245.192 359.222 244.831 358.679 244.929L350.806 246.352L349.384 238.479C349.286 237.936 348.765 237.575 348.222 237.673C347.678 237.771 347.317 238.292 347.416 238.835L349.016 247.692ZM424.289 245.978C424.829 246.094 425.361 245.751 425.478 245.211L427.375 236.413C427.492 235.874 427.148 235.342 426.608 235.225C426.069 235.109 425.537 235.452 425.42 235.992L423.733 243.812L415.913 242.125C415.373 242.009 414.841 242.352 414.725 242.892C414.608 243.432 414.952 243.964 415.491 244.08L424.289 245.978ZM350 247.514C350.822 248.084 350.821 248.084 350.821 248.085C350.821 248.085 350.821 248.085 350.821 248.085C350.821 248.085 350.821 248.084 350.822 248.084C350.822 248.083 350.824 248.08 350.826 248.077C350.831 248.071 350.839 248.06 350.849 248.045C350.871 248.015 350.904 247.969 350.95 247.907C351.041 247.784 351.181 247.6 351.37 247.363C351.748 246.889 352.32 246.206 353.09 245.382C354.63 243.734 356.954 241.53 360.077 239.324C366.318 234.915 375.745 230.5 388.5 230.5L388.5 228.5C375.255 228.5 365.432 233.092 358.923 237.69C355.671 239.988 353.245 242.287 351.629 244.016C350.82 244.882 350.213 245.605 349.806 246.117C349.602 246.372 349.448 246.575 349.344 246.716C349.291 246.786 349.252 246.841 349.224 246.879C349.21 246.899 349.2 246.914 349.192 246.924C349.188 246.93 349.185 246.934 349.183 246.937C349.182 246.939 349.181 246.94 349.18 246.941C349.18 246.942 349.179 246.942 349.179 246.943C349.179 246.943 349.178 246.944 350 247.514ZM388.5 230.5C401.287 230.5 410.095 234.308 415.691 238.079C418.494 239.968 420.498 241.853 421.797 243.257C422.446 243.959 422.918 244.541 423.225 244.942C423.379 245.142 423.491 245.298 423.563 245.4C423.598 245.452 423.624 245.49 423.641 245.514C423.649 245.526 423.654 245.534 423.657 245.539C423.659 245.541 423.66 245.543 423.66 245.543C423.661 245.544 423.661 245.544 423.661 245.544C423.66 245.544 423.66 245.543 423.66 245.543C423.66 245.543 423.66 245.542 424.5 245C425.34 244.458 425.34 244.458 425.34 244.457C425.339 244.457 425.339 244.456 425.339 244.455C425.338 244.454 425.337 244.453 425.336 244.451C425.334 244.448 425.331 244.444 425.328 244.439C425.321 244.429 425.312 244.415 425.3 244.398C425.277 244.363 425.244 244.314 425.2 244.252C425.113 244.128 424.985 243.95 424.814 243.727C424.472 243.28 423.96 242.651 423.265 241.899C421.877 240.397 419.756 238.407 416.809 236.421C410.905 232.442 401.713 228.5 388.5 228.5L388.5 230.5Z" fill="#313131"/>
<path d="M185.543 271.34C186.007 271.04 186.14 270.421 185.84 269.957C185.54 269.493 184.92 269.361 184.457 269.661L185.543 271.34ZM178.5 319.5L177.576 319.883L177.576 319.883L178.5 319.5ZM199.5 364L199.996 363.132L199.5 364ZM209.749 365.663C210.115 365.249 210.076 364.617 209.663 364.251L202.922 358.288C202.508 357.922 201.876 357.961 201.51 358.374C201.144 358.788 201.183 359.42 201.596 359.786L207.588 365.087L202.288 371.079C201.922 371.492 201.961 372.124 202.374 372.49C202.788 372.856 203.42 372.817 203.786 372.404L209.749 365.663ZM184.457 269.661C182.139 271.16 180.02 273.743 178.278 277.027C176.529 280.323 175.127 284.387 174.279 288.929C172.585 298.013 173.095 309.087 177.576 319.883L179.424 319.117C175.105 308.714 174.615 298.038 176.246 289.296C177.061 284.926 178.403 281.058 180.044 277.964C181.693 274.857 183.611 272.59 185.543 271.34L184.457 269.661ZM177.576 319.883C183.079 333.141 185.976 342.812 188.741 350.072C191.473 357.247 194.075 362.052 199.004 364.868L199.996 363.132C195.726 360.692 193.328 356.497 190.61 349.361C187.925 342.31 184.921 332.36 179.424 319.117L177.576 319.883ZM199.004 364.868C199.79 365.317 200.841 365.581 201.882 365.747C202.945 365.916 204.099 365.999 205.153 366.035C206.21 366.072 207.184 366.063 207.893 366.044C208.248 366.035 208.538 366.024 208.74 366.015C208.841 366.01 208.92 366.006 208.975 366.003C209.002 366.002 209.023 366 209.037 366C209.045 365.999 209.05 365.999 209.054 365.999C209.056 365.999 209.058 365.998 209.059 365.998C209.06 365.998 209.06 365.998 209.06 365.998C209.061 365.998 209.061 365.998 209.061 365.998C209.061 365.998 209.061 365.998 209 365C208.939 364.002 208.939 364.002 208.939 364.002C208.939 364.002 208.939 364.002 208.939 364.002C208.939 364.002 208.939 364.002 208.939 364.002C208.938 364.002 208.937 364.002 208.936 364.002C208.933 364.002 208.928 364.003 208.922 364.003C208.91 364.004 208.892 364.005 208.867 364.006C208.818 364.009 208.744 364.012 208.649 364.017C208.458 364.025 208.182 364.036 207.842 364.045C207.16 364.063 206.228 364.071 205.222 364.036C204.213 364.001 203.149 363.923 202.197 363.772C201.221 363.616 200.461 363.397 199.996 363.132L199.004 364.868Z" fill="#313131"/>
<path d="M344.5 322.5C348.167 326.667 353.6 337 346 345" stroke="#313131" stroke-width="2" stroke-linecap="round" stroke-linejoin="round"/>
<path d="M290.5 320.5C286.667 323.667 280.5 332.3 286.5 341.5" stroke="#313131" stroke-width="2" stroke-linecap="round" stroke-linejoin="round"/>
<path d="M305.5 284C304.333 291.333 301.5 306.4 299.5 308" stroke="#313131" stroke-width="2" stroke-linecap="round"/>
<path d="M347 281C350.5 284.5 357.6 292.2 358 295" stroke="#313131" stroke-width="2" stroke-linecap="round"/>
<path d="M379.5 358.5C382 361.5 387 368.2 387 371C387 373.8 383 381.833 381 385.5" stroke="#313131" stroke-width="2" stroke-linecap="round"/>
<path d="M263 351.5C259.833 354.167 253.2 360.2 252 363C250.8 365.8 252.167 374.5 253 378.5" stroke="#313131" stroke-width="2" stroke-linecap="round"/>
<path d="M229.5 361C231 363.5 233.3 370 230.5 376" stroke="#313131" stroke-width="2" stroke-linecap="round"/>
<path d="M290 279L275.5 290.5" stroke="#313131" stroke-width="2" stroke-linecap="round"/>
<path d="M416.5 414V501.5" stroke="#313131" stroke-width="2" stroke-linecap="round"/>
<path d="M229 417.5C231.5 449.333 236 513.9 234 517.5" stroke="#313131" stroke-width="2" stroke-linecap="round"/>
<path d="M285 491C284.333 498.167 286.5 514.6 300.5 523" stroke="#313131" stroke-width="2" stroke-linecap="round"/>
<path d="M233 479C214.167 496.333 174.6 531.3 167 532.5" stroke="#313131" stroke-width="2" stroke-linecap="round"/>
<path d="M416.5 465C416.5 465 425 476.5 438.5 484C452.46 491.756 475.333 503.167 484.5 509" stroke="#313131" stroke-width="2" stroke-linecap="round"/>
<path d="M322 351C322.333 348.667 324.7 343.6 331.5 342" stroke="#313131" stroke-width="2" stroke-linecap="round"/>
<circle cx="334" cy="346.5" r="6" fill="black" stroke="#313131" stroke-width="2"/>
<path d="M309 348.5C308.5 346.5 306.3 342.3 301.5 341.5" stroke="#313131" stroke-width="2" stroke-linecap="round"/>
<circle cx="299" cy="346.5" r="6" fill="black" stroke="#313131" stroke-width="2"/>
<path d="M167.5 532.5C159 530.5 146 532 138 543C121.667 547.833 85 562.9 69 584.5C64.1852 591 31 595.5 16.5 617.5C14.8523 620 3.8 627.5 1 633.5" stroke="#313131" stroke-width="2" stroke-linecap="round"/>
<path d="M167.5 532.5C165.667 543 183.1 568.7 267.5 587.5C373 611 487.5 552 484.5 509.5" stroke="#313131" stroke-width="2" stroke-linecap="round"/>
<path d="M484.5 509C492 506.5 503.5 505.5 514 517C531 518.5 530.837 528.38 542 533C553.163 537.621 572.5 537 586 551.5C599.5 566 630 566 644.5 584C653.167 591.167 673.3 608.6 684.5 621" stroke="#313131" stroke-width="2" stroke-linecap="round"/>
<path d="M513.5 517C513.5 561.5 425.5 628 309.5 621C193.5 614 140.667 570.167 138.5 542.5" stroke="#313131" stroke-width="2" stroke-linecap="round"/>
<circle cx="685" cy="621.5" r="6" fill="black" stroke="#313131" stroke-width="2"/>
<circle cx="416" cy="505.5" r="6" fill="black" stroke="#313131" stroke-width="2"/>
<circle cx="377" cy="355.5" r="6" fill="black" stroke="#313131" stroke-width="2"/>
<circle cx="234" cy="519.5" r="6" fill="black" stroke="#313131" stroke-width="2"/>
<circle cx="286" cy="487.5" r="6" fill="black" stroke="#313131" stroke-width="2"/>
<rect x="283" y="449.5" width="75.4" height="30" rx="3" fill="white"/>
<path d="M303.198 464.51C303.198 465.346 303.057 466.076 302.776 466.701C302.495 467.322 302.096 467.797 301.581 468.125C301.065 468.453 300.464 468.617 299.776 468.617C299.104 468.617 298.509 468.453 297.989 468.125C297.47 467.793 297.065 467.322 296.776 466.713C296.491 466.1 296.345 465.391 296.337 464.586V463.971C296.337 463.151 296.479 462.426 296.764 461.797C297.05 461.168 297.452 460.688 297.971 460.356C298.495 460.02 299.093 459.852 299.764 459.852C300.448 459.852 301.05 460.018 301.569 460.35C302.093 460.678 302.495 461.156 302.776 461.785C303.057 462.41 303.198 463.139 303.198 463.971V464.51ZM302.079 463.959C302.079 462.947 301.876 462.172 301.47 461.633C301.063 461.09 300.495 460.818 299.764 460.818C299.054 460.818 298.493 461.09 298.083 461.633C297.677 462.172 297.468 462.922 297.456 463.883V464.51C297.456 465.49 297.661 466.262 298.071 466.824C298.485 467.383 299.054 467.662 299.776 467.662C300.503 467.662 301.065 467.399 301.464 466.871C301.862 466.34 302.067 465.58 302.079 464.592V463.959ZM305.741 462.16L305.776 462.957C306.261 462.348 306.893 462.043 307.675 462.043C309.014 462.043 309.69 462.799 309.702 464.311V468.5H308.618V464.305C308.614 463.848 308.509 463.51 308.302 463.291C308.098 463.072 307.78 462.963 307.346 462.963C306.995 462.963 306.686 463.057 306.421 463.244C306.155 463.432 305.948 463.678 305.8 463.983V468.5H304.716V462.16H305.741ZM316.997 464.697C316.032 464.42 315.329 464.08 314.888 463.678C314.45 463.272 314.231 462.772 314.231 462.178C314.231 461.506 314.499 460.951 315.034 460.514C315.573 460.072 316.272 459.852 317.132 459.852C317.718 459.852 318.239 459.965 318.696 460.192C319.157 460.418 319.513 460.731 319.763 461.129C320.016 461.527 320.143 461.963 320.143 462.436H319.013C319.013 461.92 318.848 461.516 318.52 461.223C318.192 460.926 317.729 460.777 317.132 460.777C316.577 460.777 316.143 460.901 315.831 461.147C315.522 461.389 315.368 461.727 315.368 462.16C315.368 462.508 315.514 462.803 315.807 463.045C316.104 463.283 316.606 463.502 317.313 463.701C318.024 463.901 318.579 464.121 318.977 464.363C319.38 464.602 319.677 464.881 319.868 465.201C320.063 465.522 320.161 465.899 320.161 466.332C320.161 467.024 319.891 467.578 319.352 467.996C318.813 468.41 318.093 468.617 317.19 468.617C316.604 468.617 316.057 468.506 315.55 468.283C315.042 468.057 314.649 467.748 314.372 467.358C314.098 466.967 313.962 466.524 313.962 466.027H315.093C315.093 466.543 315.282 466.951 315.661 467.252C316.044 467.549 316.554 467.697 317.19 467.697C317.784 467.697 318.239 467.576 318.555 467.334C318.872 467.092 319.03 466.762 319.03 466.344C319.03 465.926 318.884 465.604 318.591 465.377C318.298 465.147 317.766 464.92 316.997 464.697ZM322.522 462.928C323.003 462.338 323.628 462.043 324.397 462.043C325.737 462.043 326.413 462.799 326.425 464.311V468.5H325.341V464.305C325.337 463.848 325.231 463.51 325.024 463.291C324.821 463.072 324.503 462.963 324.069 462.963C323.718 462.963 323.409 463.057 323.143 463.244C322.878 463.432 322.671 463.678 322.522 463.983V468.5H321.438V459.5H322.522V462.928ZM331.962 468.5C331.899 468.375 331.848 468.152 331.809 467.832C331.305 468.356 330.704 468.617 330.005 468.617C329.38 468.617 328.866 468.442 328.464 468.09C328.065 467.734 327.866 467.285 327.866 466.742C327.866 466.082 328.116 465.57 328.616 465.207C329.12 464.84 329.827 464.656 330.737 464.656H331.792V464.158C331.792 463.779 331.679 463.479 331.452 463.256C331.225 463.029 330.891 462.916 330.45 462.916C330.063 462.916 329.739 463.014 329.477 463.209C329.216 463.404 329.085 463.641 329.085 463.918H327.995C327.995 463.602 328.106 463.297 328.329 463.004C328.555 462.707 328.86 462.473 329.243 462.301C329.63 462.129 330.054 462.043 330.514 462.043C331.245 462.043 331.817 462.227 332.231 462.594C332.645 462.957 332.86 463.459 332.876 464.1V467.018C332.876 467.6 332.95 468.063 333.098 468.406V468.5H331.962ZM330.163 467.674C330.503 467.674 330.825 467.586 331.13 467.41C331.434 467.234 331.655 467.006 331.792 466.725V465.424H330.942C329.614 465.424 328.95 465.813 328.95 466.59C328.95 466.93 329.063 467.195 329.29 467.387C329.516 467.578 329.807 467.674 330.163 467.674ZM336.573 467.029L338.143 462.16H339.251L336.977 468.5H336.151L333.854 462.16H334.962L336.573 467.029ZM342.843 468.617C341.983 468.617 341.284 468.336 340.745 467.774C340.206 467.207 339.936 466.451 339.936 465.506V465.307C339.936 464.678 340.055 464.117 340.294 463.625C340.536 463.129 340.872 462.742 341.302 462.465C341.735 462.184 342.204 462.043 342.708 462.043C343.532 462.043 344.173 462.315 344.63 462.858C345.087 463.401 345.315 464.178 345.315 465.19V465.641H341.02C341.036 466.266 341.218 466.772 341.565 467.158C341.917 467.541 342.362 467.733 342.901 467.733C343.284 467.733 343.608 467.654 343.874 467.498C344.139 467.342 344.372 467.135 344.571 466.877L345.233 467.393C344.702 468.209 343.905 468.617 342.843 468.617ZM342.708 462.934C342.27 462.934 341.903 463.094 341.606 463.414C341.309 463.731 341.126 464.176 341.055 464.75H344.231V464.668C344.2 464.117 344.052 463.692 343.786 463.391C343.52 463.086 343.161 462.934 342.708 462.934Z" fill="black"/>
<rect x="555" y="544" width="89.4" height="30" rx="3" fill="white"/>
<path d="M574.909 559.01C574.909 559.846 574.768 560.576 574.487 561.201C574.206 561.822 573.807 562.297 573.292 562.625C572.776 562.953 572.175 563.117 571.487 563.117C570.815 563.117 570.22 562.953 569.7 562.625C569.18 562.293 568.776 561.822 568.487 561.213C568.202 560.6 568.055 559.891 568.048 559.086V558.471C568.048 557.65 568.19 556.926 568.475 556.297C568.761 555.668 569.163 555.188 569.682 554.855C570.206 554.52 570.804 554.352 571.475 554.352C572.159 554.352 572.761 554.518 573.28 554.85C573.804 555.178 574.206 555.656 574.487 556.285C574.768 556.91 574.909 557.639 574.909 558.471V559.01ZM573.79 558.459C573.79 557.447 573.587 556.672 573.18 556.133C572.774 555.59 572.206 555.318 571.475 555.318C570.764 555.318 570.204 555.59 569.794 556.133C569.388 556.672 569.179 557.422 569.167 558.383V559.01C569.167 559.99 569.372 560.762 569.782 561.324C570.196 561.883 570.764 562.162 571.487 562.162C572.214 562.162 572.776 561.898 573.175 561.371C573.573 560.84 573.778 560.08 573.79 559.092V558.459ZM577.452 556.66L577.487 557.457C577.971 556.848 578.604 556.543 579.386 556.543C580.725 556.543 581.401 557.299 581.413 558.811V563H580.329V558.805C580.325 558.348 580.22 558.01 580.013 557.791C579.809 557.572 579.491 557.463 579.057 557.463C578.706 557.463 578.397 557.557 578.132 557.744C577.866 557.932 577.659 558.178 577.511 558.482V563H576.427V556.66H577.452ZM586.194 563V554.469H588.602C589.345 554.469 590.001 554.633 590.571 554.961C591.141 555.289 591.581 555.756 591.889 556.361C592.202 556.967 592.36 557.662 592.364 558.447V558.992C592.364 559.797 592.208 560.502 591.895 561.107C591.587 561.713 591.143 562.178 590.565 562.502C589.991 562.826 589.321 562.992 588.555 563H586.194ZM587.319 555.395V562.08H588.503C589.37 562.08 590.044 561.811 590.524 561.271C591.009 560.732 591.251 559.965 591.251 558.969V558.471C591.251 557.502 591.022 556.75 590.565 556.215C590.112 555.676 589.468 555.402 588.632 555.395H587.319ZM596.964 557.633C596.8 557.605 596.622 557.592 596.43 557.592C595.72 557.592 595.237 557.895 594.983 558.5V563H593.899V556.66H594.954L594.971 557.393C595.327 556.826 595.831 556.543 596.483 556.543C596.694 556.543 596.854 556.57 596.964 556.625V557.633ZM600.479 563.117C599.62 563.117 598.921 562.836 598.382 562.273C597.843 561.707 597.573 560.951 597.573 560.006V559.807C597.573 559.178 597.692 558.617 597.93 558.125C598.173 557.629 598.509 557.242 598.938 556.965C599.372 556.684 599.841 556.543 600.345 556.543C601.169 556.543 601.809 556.814 602.266 557.357C602.723 557.9 602.952 558.678 602.952 559.689V560.141H598.657C598.673 560.766 598.854 561.271 599.202 561.658C599.554 562.041 599.999 562.232 600.538 562.232C600.921 562.232 601.245 562.154 601.511 561.998C601.776 561.842 602.009 561.635 602.208 561.377L602.87 561.893C602.339 562.709 601.542 563.117 600.479 563.117ZM600.345 557.434C599.907 557.434 599.54 557.594 599.243 557.914C598.946 558.23 598.763 558.676 598.692 559.25H601.868V559.168C601.837 558.617 601.688 558.191 601.423 557.891C601.157 557.586 600.798 557.434 600.345 557.434ZM607.903 561.318C607.903 561.025 607.792 560.799 607.569 560.639C607.35 560.475 606.966 560.334 606.415 560.217C605.868 560.1 605.432 559.959 605.108 559.795C604.788 559.631 604.55 559.436 604.393 559.209C604.241 558.982 604.165 558.713 604.165 558.4C604.165 557.881 604.384 557.441 604.821 557.082C605.263 556.723 605.825 556.543 606.509 556.543C607.227 556.543 607.809 556.729 608.255 557.1C608.704 557.471 608.929 557.945 608.929 558.523H607.839C607.839 558.227 607.712 557.971 607.458 557.756C607.208 557.541 606.891 557.434 606.509 557.434C606.114 557.434 605.805 557.52 605.583 557.691C605.36 557.863 605.249 558.088 605.249 558.365C605.249 558.627 605.352 558.824 605.559 558.957C605.766 559.09 606.139 559.217 606.679 559.338C607.221 559.459 607.661 559.604 607.997 559.771C608.333 559.939 608.581 560.143 608.741 560.381C608.905 560.615 608.987 560.902 608.987 561.242C608.987 561.809 608.761 562.264 608.307 562.607C607.854 562.947 607.266 563.117 606.544 563.117C606.036 563.117 605.587 563.027 605.196 562.848C604.805 562.668 604.499 562.418 604.276 562.098C604.057 561.773 603.948 561.424 603.948 561.049H605.032C605.052 561.412 605.196 561.701 605.466 561.916C605.739 562.127 606.098 562.232 606.544 562.232C606.954 562.232 607.282 562.15 607.528 561.986C607.778 561.818 607.903 561.596 607.903 561.318ZM614.091 561.318C614.091 561.025 613.979 560.799 613.757 560.639C613.538 560.475 613.153 560.334 612.602 560.217C612.055 560.1 611.62 559.959 611.296 559.795C610.975 559.631 610.737 559.436 610.581 559.209C610.429 558.982 610.352 558.713 610.352 558.4C610.352 557.881 610.571 557.441 611.009 557.082C611.45 556.723 612.013 556.543 612.696 556.543C613.415 556.543 613.997 556.729 614.442 557.1C614.891 557.471 615.116 557.945 615.116 558.523H614.026C614.026 558.227 613.899 557.971 613.645 557.756C613.395 557.541 613.079 557.434 612.696 557.434C612.302 557.434 611.993 557.52 611.77 557.691C611.548 557.863 611.436 558.088 611.436 558.365C611.436 558.627 611.54 558.824 611.747 558.957C611.954 559.09 612.327 559.217 612.866 559.338C613.409 559.459 613.848 559.604 614.184 559.771C614.52 559.939 614.768 560.143 614.929 560.381C615.093 560.615 615.175 560.902 615.175 561.242C615.175 561.809 614.948 562.264 614.495 562.607C614.042 562.947 613.454 563.117 612.731 563.117C612.223 563.117 611.774 563.027 611.384 562.848C610.993 562.668 610.686 562.418 610.464 562.098C610.245 561.773 610.136 561.424 610.136 561.049H611.22C611.239 561.412 611.384 561.701 611.653 561.916C611.927 562.127 612.286 562.232 612.731 562.232C613.141 562.232 613.47 562.15 613.716 561.986C613.966 561.818 614.091 561.596 614.091 561.318ZM617.764 563H616.68V556.66H617.764V563ZM616.593 554.979C616.593 554.803 616.645 554.654 616.751 554.533C616.86 554.412 617.02 554.352 617.231 554.352C617.442 554.352 617.602 554.412 617.712 554.533C617.821 554.654 617.876 554.803 617.876 554.979C617.876 555.154 617.821 555.301 617.712 555.418C617.602 555.535 617.442 555.594 617.231 555.594C617.02 555.594 616.86 555.535 616.751 555.418C616.645 555.301 616.593 555.154 616.593 554.979ZM620.53 556.66L620.565 557.457C621.05 556.848 621.682 556.543 622.464 556.543C623.804 556.543 624.479 557.299 624.491 558.811V563H623.407V558.805C623.403 558.348 623.298 558.01 623.091 557.791C622.888 557.572 622.569 557.463 622.136 557.463C621.784 557.463 621.475 557.557 621.21 557.744C620.944 557.932 620.737 558.178 620.589 558.482V563H619.505V556.66H620.53ZM625.868 559.777C625.868 558.789 626.096 558.004 626.554 557.422C627.011 556.836 627.616 556.543 628.37 556.543C629.143 556.543 629.747 556.816 630.18 557.363L630.233 556.66H631.223V562.848C631.223 563.668 630.979 564.314 630.491 564.787C630.007 565.26 629.354 565.496 628.534 565.496C628.077 565.496 627.63 565.398 627.192 565.203C626.755 565.008 626.421 564.74 626.19 564.4L626.753 563.75C627.218 564.324 627.786 564.611 628.458 564.611C628.985 564.611 629.395 564.463 629.688 564.166C629.985 563.869 630.134 563.451 630.134 562.912V562.367C629.7 562.867 629.108 563.117 628.358 563.117C627.616 563.117 627.014 562.818 626.554 562.221C626.096 561.623 625.868 560.809 625.868 559.777ZM626.958 559.9C626.958 560.615 627.104 561.178 627.397 561.588C627.69 561.994 628.1 562.197 628.628 562.197C629.311 562.197 629.813 561.887 630.134 561.266V558.371C629.802 557.766 629.304 557.463 628.639 557.463C628.112 557.463 627.7 557.668 627.403 558.078C627.106 558.488 626.958 559.096 626.958 559.9Z" fill="black"/>
<rect x="161.5" y="104.5" width="73.4" height="30" rx="3" fill="white"/>
<path d="M181.337 118.965V119.504C181.337 120.145 181.257 120.719 181.096 121.227C180.936 121.734 180.706 122.166 180.405 122.522C180.104 122.877 179.743 123.149 179.321 123.336C178.903 123.524 178.434 123.617 177.915 123.617C177.411 123.617 176.948 123.524 176.526 123.336C176.108 123.149 175.745 122.877 175.436 122.522C175.132 122.166 174.895 121.734 174.727 121.227C174.559 120.719 174.475 120.145 174.475 119.504V118.965C174.475 118.324 174.557 117.752 174.721 117.248C174.889 116.74 175.126 116.309 175.43 115.953C175.735 115.594 176.096 115.32 176.514 115.133C176.936 114.945 177.399 114.852 177.903 114.852C178.423 114.852 178.891 114.945 179.309 115.133C179.731 115.32 180.093 115.594 180.393 115.953C180.698 116.309 180.93 116.74 181.091 117.248C181.255 117.752 181.337 118.324 181.337 118.965ZM180.218 119.504V118.953C180.218 118.445 180.165 117.996 180.059 117.606C179.958 117.215 179.807 116.887 179.608 116.621C179.409 116.356 179.165 116.154 178.876 116.018C178.591 115.881 178.266 115.813 177.903 115.813C177.552 115.813 177.233 115.881 176.948 116.018C176.667 116.154 176.425 116.356 176.221 116.621C176.022 116.887 175.868 117.215 175.759 117.606C175.649 117.996 175.595 118.445 175.595 118.953V119.504C175.595 120.016 175.649 120.469 175.759 120.863C175.868 121.254 176.024 121.584 176.227 121.854C176.434 122.119 176.679 122.32 176.96 122.457C177.245 122.594 177.563 122.662 177.915 122.662C178.282 122.662 178.608 122.594 178.893 122.457C179.179 122.32 179.419 122.119 179.614 121.854C179.813 121.584 179.964 121.254 180.065 120.863C180.167 120.469 180.218 120.016 180.218 119.504ZM183.95 118.514V123.5H182.866V117.16H183.891L183.95 118.514ZM183.692 120.09L183.241 120.072C183.245 119.639 183.309 119.238 183.434 118.871C183.559 118.5 183.735 118.178 183.962 117.904C184.188 117.631 184.458 117.42 184.77 117.272C185.087 117.119 185.436 117.043 185.819 117.043C186.132 117.043 186.413 117.086 186.663 117.172C186.913 117.254 187.126 117.387 187.302 117.57C187.481 117.754 187.618 117.992 187.712 118.285C187.805 118.574 187.852 118.928 187.852 119.346V123.5H186.763V119.334C186.763 119.002 186.714 118.736 186.616 118.537C186.518 118.334 186.376 118.188 186.188 118.098C186.001 118.004 185.77 117.957 185.497 117.957C185.227 117.957 184.981 118.014 184.759 118.127C184.54 118.24 184.35 118.397 184.19 118.596C184.034 118.795 183.911 119.024 183.821 119.281C183.735 119.535 183.692 119.805 183.692 120.09ZM195.68 119.51H193.518L193.507 118.602H195.47C195.794 118.602 196.077 118.547 196.319 118.438C196.561 118.328 196.749 118.172 196.882 117.969C197.018 117.762 197.087 117.516 197.087 117.231C197.087 116.918 197.026 116.664 196.905 116.469C196.788 116.27 196.606 116.125 196.36 116.035C196.118 115.942 195.809 115.895 195.434 115.895H193.77V123.5H192.639V114.969H195.434C195.872 114.969 196.263 115.014 196.606 115.104C196.95 115.19 197.241 115.326 197.479 115.514C197.721 115.697 197.905 115.932 198.03 116.217C198.155 116.502 198.218 116.844 198.218 117.242C198.218 117.594 198.128 117.912 197.948 118.197C197.768 118.479 197.518 118.709 197.198 118.889C196.882 119.068 196.511 119.184 196.085 119.234L195.68 119.51ZM195.628 123.5H193.073L193.712 122.58H195.628C195.987 122.58 196.292 122.518 196.542 122.393C196.796 122.268 196.989 122.092 197.122 121.865C197.255 121.635 197.321 121.363 197.321 121.051C197.321 120.734 197.264 120.461 197.151 120.231C197.038 120 196.86 119.822 196.618 119.697C196.376 119.572 196.063 119.51 195.68 119.51H194.069L194.081 118.602H196.284L196.524 118.93C196.934 118.965 197.282 119.082 197.567 119.281C197.852 119.477 198.069 119.727 198.218 120.031C198.37 120.336 198.446 120.672 198.446 121.039C198.446 121.57 198.329 122.02 198.095 122.387C197.864 122.75 197.538 123.027 197.116 123.219C196.694 123.406 196.198 123.5 195.628 123.5ZM201.036 118.156V123.5H199.952V117.16H201.007L201.036 118.156ZM203.016 117.125L203.011 118.133C202.921 118.113 202.835 118.102 202.753 118.098C202.675 118.09 202.585 118.086 202.483 118.086C202.233 118.086 202.013 118.125 201.821 118.203C201.63 118.281 201.468 118.391 201.335 118.531C201.202 118.672 201.096 118.84 201.018 119.035C200.944 119.227 200.895 119.438 200.872 119.668L200.567 119.844C200.567 119.461 200.604 119.102 200.679 118.766C200.757 118.43 200.876 118.133 201.036 117.875C201.196 117.613 201.399 117.41 201.645 117.266C201.895 117.117 202.192 117.043 202.536 117.043C202.614 117.043 202.704 117.053 202.805 117.072C202.907 117.088 202.977 117.106 203.016 117.125ZM207.897 122.035V117.16H208.987V123.5H207.95L207.897 122.035ZM208.102 120.699L208.554 120.688C208.554 121.109 208.509 121.5 208.419 121.859C208.333 122.215 208.192 122.524 207.997 122.785C207.802 123.047 207.546 123.252 207.229 123.401C206.913 123.545 206.528 123.617 206.075 123.617C205.766 123.617 205.483 123.572 205.225 123.483C204.971 123.393 204.753 123.254 204.569 123.067C204.386 122.879 204.243 122.635 204.141 122.334C204.044 122.033 203.995 121.672 203.995 121.25V117.16H205.079V121.262C205.079 121.547 205.11 121.783 205.173 121.971C205.239 122.154 205.327 122.301 205.436 122.41C205.55 122.516 205.675 122.59 205.811 122.633C205.952 122.676 206.096 122.697 206.245 122.697C206.706 122.697 207.071 122.609 207.341 122.434C207.61 122.254 207.804 122.014 207.921 121.713C208.042 121.408 208.102 121.07 208.102 120.699ZM214.331 121.818C214.331 121.662 214.296 121.518 214.225 121.385C214.159 121.248 214.02 121.125 213.809 121.016C213.602 120.902 213.29 120.805 212.872 120.723C212.52 120.649 212.202 120.561 211.917 120.459C211.636 120.358 211.395 120.234 211.196 120.09C211.001 119.945 210.85 119.776 210.745 119.58C210.639 119.385 210.587 119.156 210.587 118.895C210.587 118.645 210.641 118.408 210.751 118.186C210.864 117.963 211.022 117.766 211.225 117.594C211.432 117.422 211.68 117.287 211.97 117.19C212.259 117.092 212.581 117.043 212.936 117.043C213.444 117.043 213.878 117.133 214.237 117.313C214.596 117.492 214.872 117.733 215.063 118.033C215.255 118.33 215.35 118.66 215.35 119.024H214.266C214.266 118.848 214.214 118.678 214.108 118.514C214.007 118.346 213.856 118.207 213.657 118.098C213.462 117.988 213.221 117.934 212.936 117.934C212.636 117.934 212.391 117.981 212.204 118.074C212.02 118.164 211.886 118.279 211.8 118.42C211.718 118.561 211.677 118.709 211.677 118.865C211.677 118.983 211.696 119.088 211.735 119.182C211.778 119.272 211.852 119.356 211.958 119.434C212.063 119.508 212.212 119.578 212.403 119.645C212.595 119.711 212.839 119.777 213.136 119.844C213.655 119.961 214.083 120.102 214.419 120.266C214.755 120.43 215.005 120.631 215.169 120.869C215.333 121.108 215.415 121.397 215.415 121.736C215.415 122.014 215.356 122.268 215.239 122.498C215.126 122.729 214.96 122.928 214.741 123.096C214.526 123.26 214.268 123.389 213.968 123.483C213.671 123.572 213.337 123.617 212.966 123.617C212.407 123.617 211.934 123.518 211.548 123.318C211.161 123.119 210.868 122.861 210.669 122.545C210.47 122.229 210.37 121.895 210.37 121.543H211.46C211.475 121.84 211.561 122.076 211.718 122.252C211.874 122.424 212.065 122.547 212.292 122.621C212.518 122.692 212.743 122.727 212.966 122.727C213.263 122.727 213.511 122.688 213.71 122.609C213.913 122.531 214.067 122.424 214.173 122.287C214.278 122.151 214.331 121.994 214.331 121.818ZM217.923 114.5V123.5H216.839V114.5H217.923ZM217.665 120.09L217.214 120.072C217.218 119.639 217.282 119.238 217.407 118.871C217.532 118.5 217.708 118.178 217.934 117.904C218.161 117.631 218.43 117.42 218.743 117.272C219.059 117.119 219.409 117.043 219.792 117.043C220.104 117.043 220.386 117.086 220.636 117.172C220.886 117.254 221.098 117.387 221.274 117.57C221.454 117.754 221.591 117.992 221.684 118.285C221.778 118.574 221.825 118.928 221.825 119.346V123.5H220.735V119.334C220.735 119.002 220.686 118.736 220.589 118.537C220.491 118.334 220.348 118.188 220.161 118.098C219.973 118.004 219.743 117.957 219.47 117.957C219.2 117.957 218.954 118.014 218.731 118.127C218.513 118.24 218.323 118.397 218.163 118.596C218.007 118.795 217.884 119.024 217.794 119.281C217.708 119.535 217.665 119.805 217.665 120.09Z" fill="black"/>
</svg>
