<svg width="693" height="635" viewBox="0 0 693 635" fill="none" xmlns="http://www.w3.org/2000/svg">
<path d="M447 36.0001C426.61 36.0001 415.391 43.0132 409.677 56.5001" stroke="#313131" stroke-width="2" stroke-linecap="round" stroke-linejoin="round"/>
<path d="M445.5 35.9501C445.5 38.4354 447.515 40.4501 450 40.4501V31.4501C447.515 31.4501 445.5 33.4649 445.5 35.9501Z" fill="white"/>
<rect x="450" y="21.5001" width="30" height="28.9" rx="3" fill="white"/>
<path d="M471.25 39.4001C471.25 39.8143 471.586 40.1501 472 40.1501C472.414 40.1501 472.75 39.8143 472.75 39.4001H471.25ZM457.47 33.9698C457.177 34.2627 457.177 34.7376 457.47 35.0305L462.243 39.8034C462.536 40.0963 463.01 40.0963 463.303 39.8034C463.596 39.5105 463.596 39.0357 463.303 38.7428L459.061 34.5001L463.303 30.2575C463.596 29.9646 463.596 29.4897 463.303 29.1968C463.01 28.9039 462.536 28.9039 462.243 29.1968L457.47 33.9698ZM472 39.4001C472.75 39.4001 472.75 39.3997 472.75 39.3993C472.75 39.3992 472.75 39.3987 472.75 39.3984C472.75 39.3978 472.75 39.3971 472.75 39.3963C472.75 39.3947 472.75 39.3928 472.75 39.3906C472.75 39.3862 472.75 39.3807 472.75 39.374C472.75 39.3605 472.749 39.3425 472.748 39.3201C472.747 39.2754 472.744 39.2132 472.739 39.1361C472.728 38.9822 472.706 38.7672 472.663 38.5112C472.579 38.0027 472.408 37.3132 472.058 36.6147C471.708 35.9132 471.17 35.189 470.349 34.6417C469.523 34.0913 468.456 33.7501 467.1 33.7501V35.2501C468.194 35.2501 468.964 35.5214 469.517 35.8898C470.074 36.2613 470.455 36.762 470.717 37.2855C470.98 37.812 471.115 38.3475 471.184 38.7578C471.218 38.9611 471.234 39.129 471.242 39.243C471.246 39.2999 471.248 39.343 471.249 39.3701C471.25 39.3836 471.25 39.393 471.25 39.3982C471.25 39.4007 471.25 39.4022 471.25 39.4025C471.25 39.4027 471.25 39.4026 471.25 39.4022C471.25 39.402 471.25 39.4017 471.25 39.4014C471.25 39.4012 471.25 39.4009 471.25 39.4008C471.25 39.4005 471.25 39.4001 472 39.4001ZM467.1 33.7501C467.09 33.7501 467.081 33.7501 467.071 33.7501C467.062 33.7501 467.052 33.7501 467.043 33.7501C467.033 33.7501 467.024 33.7501 467.014 33.7501C467.004 33.7501 466.995 33.7501 466.985 33.7501C466.976 33.7501 466.966 33.7501 466.957 33.7501C466.947 33.7501 466.938 33.7501 466.928 33.7501C466.919 33.7501 466.909 33.7501 466.899 33.7501C466.89 33.7501 466.88 33.7501 466.871 33.7501C466.861 33.7501 466.852 33.7501 466.842 33.7501C466.833 33.7501 466.823 33.7501 466.814 33.7501C466.804 33.7501 466.795 33.7501 466.785 33.7501C466.776 33.7501 466.766 33.7501 466.757 33.7501C466.747 33.7501 466.738 33.7501 466.728 33.7501C466.719 33.7501 466.709 33.7501 466.7 33.7501C466.69 33.7501 466.681 33.7501 466.671 33.7501C466.662 33.7501 466.652 33.7501 466.643 33.7501C466.633 33.7501 466.624 33.7501 466.614 33.7501C466.605 33.7501 466.595 33.7501 466.586 33.7501C466.577 33.7501 466.567 33.7501 466.558 33.7501C466.548 33.7501 466.539 33.7501 466.529 33.7501C466.52 33.7501 466.51 33.7501 466.501 33.7501C466.491 33.7501 466.482 33.7501 466.473 33.7501C466.463 33.7501 466.454 33.7501 466.444 33.7501C466.435 33.7501 466.425 33.7501 466.416 33.7501C466.407 33.7501 466.397 33.7501 466.388 33.7501C466.378 33.7501 466.369 33.7501 466.359 33.7501C466.35 33.7501 466.341 33.7501 466.331 33.7501C466.322 33.7501 466.312 33.7501 466.303 33.7501C466.294 33.7501 466.284 33.7501 466.275 33.7501C466.265 33.7501 466.256 33.7501 466.247 33.7501C466.237 33.7501 466.228 33.7501 466.218 33.7501C466.209 33.7501 466.2 33.7501 466.19 33.7501C466.181 33.7501 466.172 33.7501 466.162 33.7501C466.153 33.7501 466.144 33.7501 466.134 33.7501C466.125 33.7501 466.115 33.7501 466.106 33.7501C466.097 33.7501 466.087 33.7501 466.078 33.7501C466.069 33.7501 466.059 33.7501 466.05 33.7501C466.041 33.7501 466.031 33.7501 466.022 33.7501C466.013 33.7501 466.003 33.7501 465.994 33.7501C465.985 33.7501 465.975 33.7501 465.966 33.7501C465.957 33.7501 465.947 33.7501 465.938 33.7501C465.929 33.7501 465.92 33.7501 465.91 33.7501C465.901 33.7501 465.892 33.7501 465.882 33.7501C465.873 33.7501 465.864 33.7501 465.855 33.7501C465.845 33.7501 465.836 33.7501 465.827 33.7501C465.817 33.7501 465.808 33.7501 465.799 33.7501C465.79 33.7501 465.78 33.7501 465.771 33.7501C465.762 33.7501 465.753 33.7501 465.743 33.7501C465.734 33.7501 465.725 33.7501 465.716 33.7501C465.706 33.7501 465.697 33.7501 465.688 33.7501C465.679 33.7501 465.669 33.7501 465.66 33.7501C465.651 33.7501 465.642 33.7501 465.632 33.7501C465.623 33.7501 465.614 33.7501 465.605 33.7501C465.596 33.7501 465.586 33.7501 465.577 33.7501C465.568 33.7501 465.559 33.7501 465.55 33.7501C465.54 33.7501 465.531 33.7501 465.522 33.7501C465.513 33.7501 465.504 33.7501 465.494 33.7501C465.485 33.7501 465.476 33.7501 465.467 33.7501C465.458 33.7501 465.449 33.7501 465.439 33.7501C465.43 33.7501 465.421 33.7501 465.412 33.7501C465.403 33.7501 465.394 33.7501 465.384 33.7501C465.375 33.7501 465.366 33.7501 465.357 33.7501C465.348 33.7501 465.339 33.7501 465.33 33.7501C465.32 33.7501 465.311 33.7501 465.302 33.7501C465.293 33.7501 465.284 33.7501 465.275 33.7501C465.266 33.7501 465.257 33.7501 465.248 33.7501C465.238 33.7501 465.229 33.7501 465.22 33.7501C465.211 33.7501 465.202 33.7501 465.193 33.7501C465.184 33.7501 465.175 33.7501 465.166 33.7501C465.157 33.7501 465.148 33.7501 465.138 33.7501C465.129 33.7501 465.12 33.7501 465.111 33.7501C465.102 33.7501 465.093 33.7501 465.084 33.7501C465.075 33.7501 465.066 33.7501 465.057 33.7501C465.048 33.7501 465.039 33.7501 465.03 33.7501C465.021 33.7501 465.012 33.7501 465.003 33.7501C464.994 33.7501 464.985 33.7501 464.976 33.7501C464.967 33.7501 464.958 33.7501 464.949 33.7501C464.94 33.7501 464.931 33.7501 464.922 33.7501C464.913 33.7501 464.904 33.7501 464.895 33.7501C464.886 33.7501 464.877 33.7501 464.868 33.7501C464.859 33.7501 464.85 33.7501 464.841 33.7501C464.832 33.7501 464.823 33.7501 464.814 33.7501C464.805 33.7501 464.796 33.7501 464.787 33.7501C464.778 33.7501 464.769 33.7501 464.76 33.7501C464.751 33.7501 464.742 33.7501 464.734 33.7501C464.725 33.7501 464.716 33.7501 464.707 33.7501C464.698 33.7501 464.689 33.7501 464.68 33.7501C464.671 33.7501 464.662 33.7501 464.653 33.7501C464.644 33.7501 464.636 33.7501 464.627 33.7501C464.618 33.7501 464.609 33.7501 464.6 33.7501C464.591 33.7501 464.582 33.7501 464.573 33.7501C464.564 33.7501 464.556 33.7501 464.547 33.7501C464.538 33.7501 464.529 33.7501 464.52 33.7501C464.511 33.7501 464.503 33.7501 464.494 33.7501C464.485 33.7501 464.476 33.7501 464.467 33.7501C464.458 33.7501 464.45 33.7501 464.441 33.7501C464.432 33.7501 464.423 33.7501 464.414 33.7501C464.405 33.7501 464.397 33.7501 464.388 33.7501C464.379 33.7501 464.37 33.7501 464.361 33.7501C464.353 33.7501 464.344 33.7501 464.335 33.7501C464.326 33.7501 464.318 33.7501 464.309 33.7501C464.3 33.7501 464.291 33.7501 464.283 33.7501C464.274 33.7501 464.265 33.7501 464.256 33.7501C464.248 33.7501 464.239 33.7501 464.23 33.7501C464.221 33.7501 464.213 33.7501 464.204 33.7501C464.195 33.7501 464.186 33.7501 464.178 33.7501C464.169 33.7501 464.16 33.7501 464.152 33.7501C464.143 33.7501 464.134 33.7501 464.126 33.7501C464.117 33.7501 464.108 33.7501 464.1 33.7501C464.091 33.7501 464.082 33.7501 464.073 33.7501C464.065 33.7501 464.056 33.7501 464.048 33.7501C464.039 33.7501 464.03 33.7501 464.022 33.7501C464.013 33.7501 464.004 33.7501 463.996 33.7501C463.987 33.7501 463.978 33.7501 463.97 33.7501C463.961 33.7501 463.953 33.7501 463.944 33.7501C463.935 33.7501 463.927 33.7501 463.918 33.7501C463.909 33.7501 463.901 33.7501 463.892 33.7501C463.884 33.7501 463.875 33.7501 463.867 33.7501C463.858 33.7501 463.849 33.7501 463.841 33.7501C463.832 33.7501 463.824 33.7501 463.815 33.7501C463.807 33.7501 463.798 33.7501 463.79 33.7501C463.781 33.7501 463.772 33.7501 463.764 33.7501C463.755 33.7501 463.747 33.7501 463.738 33.7501C463.73 33.7501 463.721 33.7501 463.713 33.7501C463.704 33.7501 463.696 33.7501 463.687 33.7501C463.679 33.7501 463.67 33.7501 463.662 33.7501C463.653 33.7501 463.645 33.7501 463.636 33.7501C463.628 33.7501 463.619 33.7501 463.611 33.7501C463.603 33.7501 463.594 33.7501 463.586 33.7501C463.577 33.7501 463.569 33.7501 463.56 33.7501C463.552 33.7501 463.543 33.7501 463.535 33.7501C463.527 33.7501 463.518 33.7501 463.51 33.7501C463.501 33.7501 463.493 33.7501 463.485 33.7501C463.476 33.7501 463.468 33.7501 463.459 33.7501C463.451 33.7501 463.443 33.7501 463.434 33.7501C463.426 33.7501 463.417 33.7501 463.409 33.7501C463.401 33.7501 463.392 33.7501 463.384 33.7501C463.376 33.7501 463.367 33.7501 463.359 33.7501C463.351 33.7501 463.342 33.7501 463.334 33.7501C463.326 33.7501 463.317 33.7501 463.309 33.7501C463.301 33.7501 463.292 33.7501 463.284 33.7501C463.276 33.7501 463.268 33.7501 463.259 33.7501C463.251 33.7501 463.243 33.7501 463.234 33.7501C463.226 33.7501 463.218 33.7501 463.21 33.7501C463.201 33.7501 463.193 33.7501 463.185 33.7501C463.177 33.7501 463.168 33.7501 463.16 33.7501C463.152 33.7501 463.144 33.7501 463.135 33.7501C463.127 33.7501 463.119 33.7501 463.111 33.7501C463.103 33.7501 463.094 33.7501 463.086 33.7501C463.078 33.7501 463.07 33.7501 463.062 33.7501C463.053 33.7501 463.045 33.7501 463.037 33.7501C463.029 33.7501 463.021 33.7501 463.013 33.7501C463.005 33.7501 462.996 33.7501 462.988 33.7501C462.98 33.7501 462.972 33.7501 462.964 33.7501C462.956 33.7501 462.948 33.7501 462.939 33.7501C462.931 33.7501 462.923 33.7501 462.915 33.7501C462.907 33.7501 462.899 33.7501 462.891 33.7501C462.883 33.7501 462.875 33.7501 462.867 33.7501C462.858 33.7501 462.85 33.7501 462.842 33.7501C462.834 33.7501 462.826 33.7501 462.818 33.7501C462.81 33.7501 462.802 33.7501 462.794 33.7501C462.786 33.7501 462.778 33.7501 462.77 33.7501C462.762 33.7501 462.754 33.7501 462.746 33.7501C462.738 33.7501 462.73 33.7501 462.722 33.7501C462.714 33.7501 462.706 33.7501 462.698 33.7501C462.69 33.7501 462.682 33.7501 462.674 33.7501C462.666 33.7501 462.658 33.7501 462.65 33.7501C462.642 33.7501 462.634 33.7501 462.626 33.7501C462.618 33.7501 462.611 33.7501 462.603 33.7501C462.595 33.7501 462.587 33.7501 462.579 33.7501C462.571 33.7501 462.563 33.7501 462.555 33.7501C462.547 33.7501 462.539 33.7501 462.531 33.7501C462.524 33.7501 462.516 33.7501 462.508 33.7501C462.5 33.7501 462.492 33.7501 462.484 33.7501C462.476 33.7501 462.469 33.7501 462.461 33.7501C462.453 33.7501 462.445 33.7501 462.437 33.7501C462.429 33.7501 462.422 33.7501 462.414 33.7501C462.406 33.7501 462.398 33.7501 462.39 33.7501C462.383 33.7501 462.375 33.7501 462.367 33.7501C462.359 33.7501 462.351 33.7501 462.344 33.7501C462.336 33.7501 462.328 33.7501 462.32 33.7501C462.313 33.7501 462.305 33.7501 462.297 33.7501C462.289 33.7501 462.282 33.7501 462.274 33.7501C462.266 33.7501 462.259 33.7501 462.251 33.7501C462.243 33.7501 462.236 33.7501 462.228 33.7501C462.22 33.7501 462.212 33.7501 462.205 33.7501C462.197 33.7501 462.189 33.7501 462.182 33.7501C462.174 33.7501 462.166 33.7501 462.159 33.7501C462.151 33.7501 462.144 33.7501 462.136 33.7501C462.128 33.7501 462.121 33.7501 462.113 33.7501C462.105 33.7501 462.098 33.7501 462.09 33.7501C462.083 33.7501 462.075 33.7501 462.067 33.7501C462.06 33.7501 462.052 33.7501 462.045 33.7501C462.037 33.7501 462.03 33.7501 462.022 33.7501C462.014 33.7501 462.007 33.7501 461.999 33.7501C461.992 33.7501 461.984 33.7501 461.977 33.7501C461.969 33.7501 461.962 33.7501 461.954 33.7501C461.947 33.7501 461.939 33.7501 461.932 33.7501C461.924 33.7501 461.917 33.7501 461.909 33.7501C461.902 33.7501 461.894 33.7501 461.887 33.7501C461.879 33.7501 461.872 33.7501 461.865 33.7501C461.857 33.7501 461.85 33.7501 461.842 33.7501C461.835 33.7501 461.827 33.7501 461.82 33.7501C461.813 33.7501 461.805 33.7501 461.798 33.7501C461.79 33.7501 461.783 33.7501 461.776 33.7501C461.768 33.7501 461.761 33.7501 461.754 33.7501C461.746 33.7501 461.739 33.7501 461.731 33.7501C461.724 33.7501 461.717 33.7501 461.709 33.7501C461.702 33.7501 461.695 33.7501 461.687 33.7501C461.68 33.7501 461.673 33.7501 461.666 33.7501C461.658 33.7501 461.651 33.7501 461.644 33.7501C461.636 33.7501 461.629 33.7501 461.622 33.7501C461.615 33.7501 461.607 33.7501 461.6 33.7501C461.593 33.7501 461.586 33.7501 461.578 33.7501C461.571 33.7501 461.564 33.7501 461.557 33.7501C461.549 33.7501 461.542 33.7501 461.535 33.7501C461.528 33.7501 461.521 33.7501 461.513 33.7501C461.506 33.7501 461.499 33.7501 461.492 33.7501C461.485 33.7501 461.478 33.7501 461.47 33.7501C461.463 33.7501 461.456 33.7501 461.449 33.7501C461.442 33.7501 461.435 33.7501 461.428 33.7501C461.421 33.7501 461.413 33.7501 461.406 33.7501C461.399 33.7501 461.392 33.7501 461.385 33.7501C461.378 33.7501 461.371 33.7501 461.364 33.7501C461.357 33.7501 461.35 33.7501 461.343 33.7501C461.336 33.7501 461.329 33.7501 461.322 33.7501C461.315 33.7501 461.308 33.7501 461.3 33.7501C461.293 33.7501 461.286 33.7501 461.279 33.7501C461.272 33.7501 461.265 33.7501 461.259 33.7501C461.252 33.7501 461.245 33.7501 461.238 33.7501C461.231 33.7501 461.224 33.7501 461.217 33.7501C461.21 33.7501 461.203 33.7501 461.196 33.7501C461.189 33.7501 461.182 33.7501 461.175 33.7501C461.168 33.7501 461.161 33.7501 461.154 33.7501C461.148 33.7501 461.141 33.7501 461.134 33.7501C461.127 33.7501 461.12 33.7501 461.113 33.7501C461.106 33.7501 461.1 33.7501 461.093 33.7501C461.086 33.7501 461.079 33.7501 461.072 33.7501C461.065 33.7501 461.059 33.7501 461.052 33.7501C461.045 33.7501 461.038 33.7501 461.031 33.7501C461.025 33.7501 461.018 33.7501 461.011 33.7501C461.004 33.7501 460.997 33.7501 460.991 33.7501C460.984 33.7501 460.977 33.7501 460.971 33.7501C460.964 33.7501 460.957 33.7501 460.95 33.7501C460.944 33.7501 460.937 33.7501 460.93 33.7501C460.924 33.7501 460.917 33.7501 460.91 33.7501C460.903 33.7501 460.897 33.7501 460.89 33.7501C460.883 33.7501 460.877 33.7501 460.87 33.7501C460.864 33.7501 460.857 33.7501 460.85 33.7501C460.844 33.7501 460.837 33.7501 460.83 33.7501C460.824 33.7501 460.817 33.7501 460.811 33.7501C460.804 33.7501 460.798 33.7501 460.791 33.7501C460.784 33.7501 460.778 33.7501 460.771 33.7501C460.765 33.7501 460.758 33.7501 460.752 33.7501C460.745 33.7501 460.739 33.7501 460.732 33.7501C460.726 33.7501 460.719 33.7501 460.713 33.7501C460.706 33.7501 460.7 33.7501 460.693 33.7501C460.687 33.7501 460.68 33.7501 460.674 33.7501C460.667 33.7501 460.661 33.7501 460.654 33.7501C460.648 33.7501 460.642 33.7501 460.635 33.7501C460.629 33.7501 460.622 33.7501 460.616 33.7501C460.609 33.7501 460.603 33.7501 460.597 33.7501C460.59 33.7501 460.584 33.7501 460.578 33.7501C460.571 33.7501 460.565 33.7501 460.559 33.7501C460.552 33.7501 460.546 33.7501 460.54 33.7501C460.533 33.7501 460.527 33.7501 460.521 33.7501C460.514 33.7501 460.508 33.7501 460.502 33.7501C460.495 33.7501 460.489 33.7501 460.483 33.7501C460.477 33.7501 460.47 33.7501 460.464 33.7501C460.458 33.7501 460.452 33.7501 460.445 33.7501C460.439 33.7501 460.433 33.7501 460.427 33.7501C460.421 33.7501 460.414 33.7501 460.408 33.7501C460.402 33.7501 460.396 33.7501 460.39 33.7501C460.383 33.7501 460.377 33.7501 460.371 33.7501C460.365 33.7501 460.359 33.7501 460.353 33.7501C460.347 33.7501 460.34 33.7501 460.334 33.7501C460.328 33.7501 460.322 33.7501 460.316 33.7501C460.31 33.7501 460.304 33.7501 460.298 33.7501C460.292 33.7501 460.286 33.7501 460.28 33.7501C460.274 33.7501 460.268 33.7501 460.261 33.7501C460.255 33.7501 460.249 33.7501 460.243 33.7501C460.237 33.7501 460.231 33.7501 460.225 33.7501C460.219 33.7501 460.213 33.7501 460.207 33.7501C460.202 33.7501 460.196 33.7501 460.19 33.7501C460.184 33.7501 460.178 33.7501 460.172 33.7501C460.166 33.7501 460.16 33.7501 460.154 33.7501C460.148 33.7501 460.142 33.7501 460.136 33.7501C460.13 33.7501 460.125 33.7501 460.119 33.7501C460.113 33.7501 460.107 33.7501 460.101 33.7501C460.095 33.7501 460.089 33.7501 460.084 33.7501C460.078 33.7501 460.072 33.7501 460.066 33.7501C460.06 33.7501 460.055 33.7501 460.049 33.7501C460.043 33.7501 460.037 33.7501 460.031 33.7501C460.026 33.7501 460.02 33.7501 460.014 33.7501C460.008 33.7501 460.003 33.7501 459.997 33.7501C459.991 33.7501 459.985 33.7501 459.98 33.7501C459.974 33.7501 459.968 33.7501 459.963 33.7501C459.957 33.7501 459.951 33.7501 459.946 33.7501C459.94 33.7501 459.934 33.7501 459.929 33.7501C459.923 33.7501 459.917 33.7501 459.912 33.7501C459.906 33.7501 459.901 33.7501 459.895 33.7501C459.889 33.7501 459.884 33.7501 459.878 33.7501C459.873 33.7501 459.867 33.7501 459.862 33.7501C459.856 33.7501 459.85 33.7501 459.845 33.7501C459.839 33.7501 459.834 33.7501 459.828 33.7501C459.823 33.7501 459.817 33.7501 459.812 33.7501C459.806 33.7501 459.801 33.7501 459.795 33.7501C459.79 33.7501 459.784 33.7501 459.779 33.7501C459.774 33.7501 459.768 33.7501 459.763 33.7501C459.757 33.7501 459.752 33.7501 459.746 33.7501C459.741 33.7501 459.736 33.7501 459.73 33.7501C459.725 33.7501 459.719 33.7501 459.714 33.7501C459.709 33.7501 459.703 33.7501 459.698 33.7501C459.693 33.7501 459.687 33.7501 459.682 33.7501C459.677 33.7501 459.671 33.7501 459.666 33.7501C459.661 33.7501 459.655 33.7501 459.65 33.7501C459.645 33.7501 459.64 33.7501 459.634 33.7501C459.629 33.7501 459.624 33.7501 459.619 33.7501C459.613 33.7501 459.608 33.7501 459.603 33.7501C459.598 33.7501 459.593 33.7501 459.587 33.7501C459.582 33.7501 459.577 33.7501 459.572 33.7501C459.567 33.7501 459.561 33.7501 459.556 33.7501C459.551 33.7501 459.546 33.7501 459.541 33.7501C459.536 33.7501 459.531 33.7501 459.526 33.7501C459.521 33.7501 459.515 33.7501 459.51 33.7501C459.505 33.7501 459.5 33.7501 459.495 33.7501C459.49 33.7501 459.485 33.7501 459.48 33.7501C459.475 33.7501 459.47 33.7501 459.465 33.7501C459.46 33.7501 459.455 33.7501 459.45 33.7501C459.445 33.7501 459.44 33.7501 459.435 33.7501C459.43 33.7501 459.425 33.7501 459.42 33.7501C459.415 33.7501 459.41 33.7501 459.405 33.7501C459.4 33.7501 459.395 33.7501 459.391 33.7501C459.386 33.7501 459.381 33.7501 459.376 33.7501C459.371 33.7501 459.366 33.7501 459.361 33.7501C459.356 33.7501 459.352 33.7501 459.347 33.7501C459.342 33.7501 459.337 33.7501 459.332 33.7501C459.327 33.7501 459.323 33.7501 459.318 33.7501C459.313 33.7501 459.308 33.7501 459.304 33.7501C459.299 33.7501 459.294 33.7501 459.289 33.7501C459.285 33.7501 459.28 33.7501 459.275 33.7501C459.27 33.7501 459.266 33.7501 459.261 33.7501C459.256 33.7501 459.252 33.7501 459.247 33.7501C459.242 33.7501 459.238 33.7501 459.233 33.7501C459.228 33.7501 459.224 33.7501 459.219 33.7501C459.214 33.7501 459.21 33.7501 459.205 33.7501C459.201 33.7501 459.196 33.7501 459.191 33.7501C459.187 33.7501 459.182 33.7501 459.178 33.7501C459.173 33.7501 459.169 33.7501 459.164 33.7501C459.16 33.7501 459.155 33.7501 459.151 33.7501C459.146 33.7501 459.142 33.7501 459.137 33.7501C459.133 33.7501 459.128 33.7501 459.124 33.7501C459.119 33.7501 459.115 33.7501 459.11 33.7501C459.106 33.7501 459.102 33.7501 459.097 33.7501C459.093 33.7501 459.088 33.7501 459.084 33.7501C459.08 33.7501 459.075 33.7501 459.071 33.7501C459.066 33.7501 459.062 33.7501 459.058 33.7501C459.053 33.7501 459.049 33.7501 459.045 33.7501C459.04 33.7501 459.036 33.7501 459.032 33.7501C459.028 33.7501 459.023 33.7501 459.019 33.7501C459.015 33.7501 459.01 33.7501 459.006 33.7501C459.002 33.7501 458.998 33.7501 458.994 33.7501C458.989 33.7501 458.985 33.7501 458.981 33.7501C458.977 33.7501 458.973 33.7501 458.968 33.7501C458.964 33.7501 458.96 33.7501 458.956 33.7501C458.952 33.7501 458.948 33.7501 458.943 33.7501C458.939 33.7501 458.935 33.7501 458.931 33.7501C458.927 33.7501 458.923 33.7501 458.919 33.7501C458.915 33.7501 458.911 33.7501 458.907 33.7501C458.903 33.7501 458.899 33.7501 458.895 33.7501C458.891 33.7501 458.887 33.7501 458.883 33.7501C458.879 33.7501 458.875 33.7501 458.871 33.7501C458.867 33.7501 458.863 33.7501 458.859 33.7501C458.855 33.7501 458.851 33.7501 458.847 33.7501C458.843 33.7501 458.839 33.7501 458.835 33.7501C458.831 33.7501 458.827 33.7501 458.823 33.7501C458.82 33.7501 458.816 33.7501 458.812 33.7501C458.808 33.7501 458.804 33.7501 458.8 33.7501C458.797 33.7501 458.793 33.7501 458.789 33.7501C458.785 33.7501 458.781 33.7501 458.778 33.7501C458.774 33.7501 458.77 33.7501 458.766 33.7501C458.763 33.7501 458.759 33.7501 458.755 33.7501C458.751 33.7501 458.748 33.7501 458.744 33.7501C458.74 33.7501 458.737 33.7501 458.733 33.7501C458.729 33.7501 458.726 33.7501 458.722 33.7501C458.718 33.7501 458.715 33.7501 458.711 33.7501C458.707 33.7501 458.704 33.7501 458.7 33.7501C458.697 33.7501 458.693 33.7501 458.689 33.7501C458.686 33.7501 458.682 33.7501 458.679 33.7501C458.675 33.7501 458.672 33.7501 458.668 33.7501C458.665 33.7501 458.661 33.7501 458.658 33.7501C458.654 33.7501 458.651 33.7501 458.647 33.7501C458.644 33.7501 458.64 33.7501 458.637 33.7501C458.633 33.7501 458.63 33.7501 458.626 33.7501C458.623 33.7501 458.62 33.7501 458.616 33.7501C458.613 33.7501 458.609 33.7501 458.606 33.7501C458.603 33.7501 458.599 33.7501 458.596 33.7501C458.593 33.7501 458.589 33.7501 458.586 33.7501C458.583 33.7501 458.579 33.7501 458.576 33.7501C458.573 33.7501 458.57 33.7501 458.566 33.7501C458.563 33.7501 458.56 33.7501 458.557 33.7501C458.553 33.7501 458.55 33.7501 458.547 33.7501C458.544 33.7501 458.541 33.7501 458.537 33.7501C458.534 33.7501 458.531 33.7501 458.528 33.7501C458.525 33.7501 458.522 33.7501 458.518 33.7501C458.515 33.7501 458.512 33.7501 458.509 33.7501C458.506 33.7501 458.503 33.7501 458.5 33.7501C458.497 33.7501 458.494 33.7501 458.491 33.7501C458.488 33.7501 458.485 33.7501 458.481 33.7501C458.478 33.7501 458.475 33.7501 458.472 33.7501C458.469 33.7501 458.466 33.7501 458.464 33.7501C458.461 33.7501 458.458 33.7501 458.455 33.7501C458.452 33.7501 458.449 33.7501 458.446 33.7501C458.443 33.7501 458.44 33.7501 458.437 33.7501C458.434 33.7501 458.431 33.7501 458.429 33.7501C458.426 33.7501 458.423 33.7501 458.42 33.7501C458.417 33.7501 458.414 33.7501 458.411 33.7501C458.409 33.7501 458.406 33.7501 458.403 33.7501C458.4 33.7501 458.398 33.7501 458.395 33.7501C458.392 33.7501 458.389 33.7501 458.387 33.7501C458.384 33.7501 458.381 33.7501 458.378 33.7501C458.376 33.7501 458.373 33.7501 458.37 33.7501C458.368 33.7501 458.365 33.7501 458.362 33.7501C458.36 33.7501 458.357 33.7501 458.355 33.7501C458.352 33.7501 458.349 33.7501 458.347 33.7501C458.344 33.7501 458.342 33.7501 458.339 33.7501C458.336 33.7501 458.334 33.7501 458.331 33.7501C458.329 33.7501 458.326 33.7501 458.324 33.7501C458.321 33.7501 458.319 33.7501 458.316 33.7501C458.314 33.7501 458.311 33.7501 458.309 33.7501C458.306 33.7501 458.304 33.7501 458.302 33.7501C458.299 33.7501 458.297 33.7501 458.294 33.7501C458.292 33.7501 458.29 33.7501 458.287 33.7501C458.285 33.7501 458.282 33.7501 458.28 33.7501C458.278 33.7501 458.275 33.7501 458.273 33.7501C458.271 33.7501 458.269 33.7501 458.266 33.7501C458.264 33.7501 458.262 33.7501 458.259 33.7501C458.257 33.7501 458.255 33.7501 458.253 33.7501C458.25 33.7501 458.248 33.7501 458.246 33.7501C458.244 33.7501 458.242 33.7501 458.239 33.7501C458.237 33.7501 458.235 33.7501 458.233 33.7501C458.231 33.7501 458.229 33.7501 458.227 33.7501C458.225 33.7501 458.222 33.7501 458.22 33.7501C458.218 33.7501 458.216 33.7501 458.214 33.7501C458.212 33.7501 458.21 33.7501 458.208 33.7501C458.206 33.7501 458.204 33.7501 458.202 33.7501C458.2 33.7501 458.198 33.7501 458.196 33.7501C458.194 33.7501 458.192 33.7501 458.19 33.7501C458.188 33.7501 458.186 33.7501 458.184 33.7501C458.182 33.7501 458.18 33.7501 458.179 33.7501C458.177 33.7501 458.175 33.7501 458.173 33.7501C458.171 33.7501 458.169 33.7501 458.167 33.7501C458.166 33.7501 458.164 33.7501 458.162 33.7501C458.16 33.7501 458.158 33.7501 458.157 33.7501C458.155 33.7501 458.153 33.7501 458.151 33.7501C458.15 33.7501 458.148 33.7501 458.146 33.7501C458.145 33.7501 458.143 33.7501 458.141 33.7501C458.139 33.7501 458.138 33.7501 458.136 33.7501C458.134 33.7501 458.133 33.7501 458.131 33.7501C458.13 33.7501 458.128 33.7501 458.126 33.7501C458.125 33.7501 458.123 33.7501 458.122 33.7501C458.12 33.7501 458.119 33.7501 458.117 33.7501C458.115 33.7501 458.114 33.7501 458.112 33.7501C458.111 33.7501 458.109 33.7501 458.108 33.7501C458.106 33.7501 458.105 33.7501 458.104 33.7501C458.102 33.7501 458.101 33.7501 458.099 33.7501C458.098 33.7501 458.096 33.7501 458.095 33.7501C458.094 33.7501 458.092 33.7501 458.091 33.7501C458.09 33.7501 458.088 33.7501 458.087 33.7501C458.086 33.7501 458.084 33.7501 458.083 33.7501C458.082 33.7501 458.08 33.7501 458.079 33.7501C458.078 33.7501 458.077 33.7501 458.075 33.7501C458.074 33.7501 458.073 33.7501 458.072 33.7501C458.07 33.7501 458.069 33.7501 458.068 33.7501C458.067 33.7501 458.066 33.7501 458.065 33.7501C458.063 33.7501 458.062 33.7501 458.061 33.7501C458.06 33.7501 458.059 33.7501 458.058 33.7501C458.057 33.7501 458.056 33.7501 458.055 33.7501C458.054 33.7501 458.052 33.7501 458.051 33.7501C458.05 33.7501 458.049 33.7501 458.048 33.7501C458.047 33.7501 458.046 33.7501 458.045 33.7501C458.045 33.7501 458.044 33.7501 458.043 33.7501C458.042 33.7501 458.041 33.7501 458.04 33.7501C458.039 33.7501 458.038 33.7501 458.037 33.7501C458.036 33.7501 458.035 33.7501 458.035 33.7501C458.034 33.7501 458.033 33.7501 458.032 33.7501C458.031 33.7501 458.03 33.7501 458.03 33.7501C458.029 33.7501 458.028 33.7501 458.027 33.7501C458.027 33.7501 458.026 33.7501 458.025 33.7501C458.024 33.7501 458.024 33.7501 458.023 33.7501C458.022 33.7501 458.022 33.7501 458.021 33.7501C458.02 33.7501 458.02 33.7501 458.019 33.7501C458.018 33.7501 458.018 33.7501 458.017 33.7501C458.017 33.7501 458.016 33.7501 458.015 33.7501C458.015 33.7501 458.014 33.7501 458.014 33.7501C458.013 33.7501 458.013 33.7501 458.012 33.7501C458.012 33.7501 458.011 33.7501 458.011 33.7501C458.01 33.7501 458.01 33.7501 458.009 33.7501C458.009 33.7501 458.009 33.7501 458.008 33.7501C458.008 33.7501 458.007 33.7501 458.007 33.7501C458.007 33.7501 458.006 33.7501 458.006 33.7501C458.005 33.7501 458.005 33.7501 458.005 33.7501C458.005 33.7501 458.004 33.7501 458.004 33.7501C458.004 33.7501 458.003 33.7501 458.003 33.7501C458.003 33.7501 458.003 33.7501 458.002 33.7501C458.002 33.7501 458.002 33.7501 458.002 33.7501C458.002 33.7501 458.001 33.7501 458.001 33.7501C458.001 33.7501 458.001 33.7501 458.001 33.7501C458.001 33.7501 458.001 33.7501 458 33.7501C458 33.7501 458 33.7501 458 33.7501C458 33.7501 458 33.7501 458 33.7501C458 33.7501 458 33.7501 458 34.5001C458 35.2501 458 35.2501 458 35.2501C458 35.2501 458 35.2501 458 35.2501C458 35.2501 458 35.2501 458 35.2501C458.001 35.2501 458.001 35.2501 458.001 35.2501C458.001 35.2501 458.001 35.2501 458.001 35.2501C458.001 35.2501 458.002 35.2501 458.002 35.2501C458.002 35.2501 458.002 35.2501 458.002 35.2501C458.003 35.2501 458.003 35.2501 458.003 35.2501C458.003 35.2501 458.004 35.2501 458.004 35.2501C458.004 35.2501 458.005 35.2501 458.005 35.2501C458.005 35.2501 458.005 35.2501 458.006 35.2501C458.006 35.2501 458.007 35.2501 458.007 35.2501C458.007 35.2501 458.008 35.2501 458.008 35.2501C458.009 35.2501 458.009 35.2501 458.009 35.2501C458.01 35.2501 458.01 35.2501 458.011 35.2501C458.011 35.2501 458.012 35.2501 458.012 35.2501C458.013 35.2501 458.013 35.2501 458.014 35.2501C458.014 35.2501 458.015 35.2501 458.015 35.2501C458.016 35.2501 458.017 35.2501 458.017 35.2501C458.018 35.2501 458.018 35.2501 458.019 35.2501C458.02 35.2501 458.02 35.2501 458.021 35.2501C458.022 35.2501 458.022 35.2501 458.023 35.2501C458.024 35.2501 458.024 35.2501 458.025 35.2501C458.026 35.2501 458.027 35.2501 458.027 35.2501C458.028 35.2501 458.029 35.2501 458.03 35.2501C458.03 35.2501 458.031 35.2501 458.032 35.2501C458.033 35.2501 458.034 35.2501 458.035 35.2501C458.035 35.2501 458.036 35.2501 458.037 35.2501C458.038 35.2501 458.039 35.2501 458.04 35.2501C458.041 35.2501 458.042 35.2501 458.043 35.2501C458.044 35.2501 458.045 35.2501 458.045 35.2501C458.046 35.2501 458.047 35.2501 458.048 35.2501C458.049 35.2501 458.05 35.2501 458.051 35.2501C458.052 35.2501 458.054 35.2501 458.055 35.2501C458.056 35.2501 458.057 35.2501 458.058 35.2501C458.059 35.2501 458.06 35.2501 458.061 35.2501C458.062 35.2501 458.063 35.2501 458.065 35.2501C458.066 35.2501 458.067 35.2501 458.068 35.2501C458.069 35.2501 458.07 35.2501 458.072 35.2501C458.073 35.2501 458.074 35.2501 458.075 35.2501C458.077 35.2501 458.078 35.2501 458.079 35.2501C458.08 35.2501 458.082 35.2501 458.083 35.2501C458.084 35.2501 458.086 35.2501 458.087 35.2501C458.088 35.2501 458.09 35.2501 458.091 35.2501C458.092 35.2501 458.094 35.2501 458.095 35.2501C458.096 35.2501 458.098 35.2501 458.099 35.2501C458.101 35.2501 458.102 35.2501 458.104 35.2501C458.105 35.2501 458.106 35.2501 458.108 35.2501C458.109 35.2501 458.111 35.2501 458.112 35.2501C458.114 35.2501 458.115 35.2501 458.117 35.2501C458.119 35.2501 458.12 35.2501 458.122 35.2501C458.123 35.2501 458.125 35.2501 458.126 35.2501C458.128 35.2501 458.13 35.2501 458.131 35.2501C458.133 35.2501 458.134 35.2501 458.136 35.2501C458.138 35.2501 458.139 35.2501 458.141 35.2501C458.143 35.2501 458.145 35.2501 458.146 35.2501C458.148 35.2501 458.15 35.2501 458.151 35.2501C458.153 35.2501 458.155 35.2501 458.157 35.2501C458.158 35.2501 458.16 35.2501 458.162 35.2501C458.164 35.2501 458.166 35.2501 458.167 35.2501C458.169 35.2501 458.171 35.2501 458.173 35.2501C458.175 35.2501 458.177 35.2501 458.179 35.2501C458.18 35.2501 458.182 35.2501 458.184 35.2501C458.186 35.2501 458.188 35.2501 458.19 35.2501C458.192 35.2501 458.194 35.2501 458.196 35.2501C458.198 35.2501 458.2 35.2501 458.202 35.2501C458.204 35.2501 458.206 35.2501 458.208 35.2501C458.21 35.2501 458.212 35.2501 458.214 35.2501C458.216 35.2501 458.218 35.2501 458.22 35.2501C458.222 35.2501 458.225 35.2501 458.227 35.2501C458.229 35.2501 458.231 35.2501 458.233 35.2501C458.235 35.2501 458.237 35.2501 458.239 35.2501C458.242 35.2501 458.244 35.2501 458.246 35.2501C458.248 35.2501 458.25 35.2501 458.253 35.2501C458.255 35.2501 458.257 35.2501 458.259 35.2501C458.262 35.2501 458.264 35.2501 458.266 35.2501C458.269 35.2501 458.271 35.2501 458.273 35.2501C458.275 35.2501 458.278 35.2501 458.28 35.2501C458.282 35.2501 458.285 35.2501 458.287 35.2501C458.29 35.2501 458.292 35.2501 458.294 35.2501C458.297 35.2501 458.299 35.2501 458.302 35.2501C458.304 35.2501 458.306 35.2501 458.309 35.2501C458.311 35.2501 458.314 35.2501 458.316 35.2501C458.319 35.2501 458.321 35.2501 458.324 35.2501C458.326 35.2501 458.329 35.2501 458.331 35.2501C458.334 35.2501 458.336 35.2501 458.339 35.2501C458.342 35.2501 458.344 35.2501 458.347 35.2501C458.349 35.2501 458.352 35.2501 458.355 35.2501C458.357 35.2501 458.36 35.2501 458.362 35.2501C458.365 35.2501 458.368 35.2501 458.37 35.2501C458.373 35.2501 458.376 35.2501 458.378 35.2501C458.381 35.2501 458.384 35.2501 458.387 35.2501C458.389 35.2501 458.392 35.2501 458.395 35.2501C458.398 35.2501 458.4 35.2501 458.403 35.2501C458.406 35.2501 458.409 35.2501 458.411 35.2501C458.414 35.2501 458.417 35.2501 458.42 35.2501C458.423 35.2501 458.426 35.2501 458.429 35.2501C458.431 35.2501 458.434 35.2501 458.437 35.2501C458.44 35.2501 458.443 35.2501 458.446 35.2501C458.449 35.2501 458.452 35.2501 458.455 35.2501C458.458 35.2501 458.461 35.2501 458.464 35.2501C458.466 35.2501 458.469 35.2501 458.472 35.2501C458.475 35.2501 458.478 35.2501 458.481 35.2501C458.485 35.2501 458.488 35.2501 458.491 35.2501C458.494 35.2501 458.497 35.2501 458.5 35.2501C458.503 35.2501 458.506 35.2501 458.509 35.2501C458.512 35.2501 458.515 35.2501 458.518 35.2501C458.522 35.2501 458.525 35.2501 458.528 35.2501C458.531 35.2501 458.534 35.2501 458.537 35.2501C458.541 35.2501 458.544 35.2501 458.547 35.2501C458.55 35.2501 458.553 35.2501 458.557 35.2501C458.56 35.2501 458.563 35.2501 458.566 35.2501C458.57 35.2501 458.573 35.2501 458.576 35.2501C458.579 35.2501 458.583 35.2501 458.586 35.2501C458.589 35.2501 458.593 35.2501 458.596 35.2501C458.599 35.2501 458.603 35.2501 458.606 35.2501C458.609 35.2501 458.613 35.2501 458.616 35.2501C458.62 35.2501 458.623 35.2501 458.626 35.2501C458.63 35.2501 458.633 35.2501 458.637 35.2501C458.64 35.2501 458.644 35.2501 458.647 35.2501C458.651 35.2501 458.654 35.2501 458.658 35.2501C458.661 35.2501 458.665 35.2501 458.668 35.2501C458.672 35.2501 458.675 35.2501 458.679 35.2501C458.682 35.2501 458.686 35.2501 458.689 35.2501C458.693 35.2501 458.697 35.2501 458.7 35.2501C458.704 35.2501 458.707 35.2501 458.711 35.2501C458.715 35.2501 458.718 35.2501 458.722 35.2501C458.726 35.2501 458.729 35.2501 458.733 35.2501C458.737 35.2501 458.74 35.2501 458.744 35.2501C458.748 35.2501 458.751 35.2501 458.755 35.2501C458.759 35.2501 458.763 35.2501 458.766 35.2501C458.77 35.2501 458.774 35.2501 458.778 35.2501C458.781 35.2501 458.785 35.2501 458.789 35.2501C458.793 35.2501 458.797 35.2501 458.8 35.2501C458.804 35.2501 458.808 35.2501 458.812 35.2501C458.816 35.2501 458.82 35.2501 458.823 35.2501C458.827 35.2501 458.831 35.2501 458.835 35.2501C458.839 35.2501 458.843 35.2501 458.847 35.2501C458.851 35.2501 458.855 35.2501 458.859 35.2501C458.863 35.2501 458.867 35.2501 458.871 35.2501C458.875 35.2501 458.879 35.2501 458.883 35.2501C458.887 35.2501 458.891 35.2501 458.895 35.2501C458.899 35.2501 458.903 35.2501 458.907 35.2501C458.911 35.2501 458.915 35.2501 458.919 35.2501C458.923 35.2501 458.927 35.2501 458.931 35.2501C458.935 35.2501 458.939 35.2501 458.943 35.2501C458.948 35.2501 458.952 35.2501 458.956 35.2501C458.96 35.2501 458.964 35.2501 458.968 35.2501C458.973 35.2501 458.977 35.2501 458.981 35.2501C458.985 35.2501 458.989 35.2501 458.994 35.2501C458.998 35.2501 459.002 35.2501 459.006 35.2501C459.01 35.2501 459.015 35.2501 459.019 35.2501C459.023 35.2501 459.028 35.2501 459.032 35.2501C459.036 35.2501 459.04 35.2501 459.045 35.2501C459.049 35.2501 459.053 35.2501 459.058 35.2501C459.062 35.2501 459.066 35.2501 459.071 35.2501C459.075 35.2501 459.08 35.2501 459.084 35.2501C459.088 35.2501 459.093 35.2501 459.097 35.2501C459.102 35.2501 459.106 35.2501 459.11 35.2501C459.115 35.2501 459.119 35.2501 459.124 35.2501C459.128 35.2501 459.133 35.2501 459.137 35.2501C459.142 35.2501 459.146 35.2501 459.151 35.2501C459.155 35.2501 459.16 35.2501 459.164 35.2501C459.169 35.2501 459.173 35.2501 459.178 35.2501C459.182 35.2501 459.187 35.2501 459.191 35.2501C459.196 35.2501 459.201 35.2501 459.205 35.2501C459.21 35.2501 459.214 35.2501 459.219 35.2501C459.224 35.2501 459.228 35.2501 459.233 35.2501C459.238 35.2501 459.242 35.2501 459.247 35.2501C459.252 35.2501 459.256 35.2501 459.261 35.2501C459.266 35.2501 459.27 35.2501 459.275 35.2501C459.28 35.2501 459.285 35.2501 459.289 35.2501C459.294 35.2501 459.299 35.2501 459.304 35.2501C459.308 35.2501 459.313 35.2501 459.318 35.2501C459.323 35.2501 459.327 35.2501 459.332 35.2501C459.337 35.2501 459.342 35.2501 459.347 35.2501C459.352 35.2501 459.356 35.2501 459.361 35.2501C459.366 35.2501 459.371 35.2501 459.376 35.2501C459.381 35.2501 459.386 35.2501 459.391 35.2501C459.395 35.2501 459.4 35.2501 459.405 35.2501C459.41 35.2501 459.415 35.2501 459.42 35.2501C459.425 35.2501 459.43 35.2501 459.435 35.2501C459.44 35.2501 459.445 35.2501 459.45 35.2501C459.455 35.2501 459.46 35.2501 459.465 35.2501C459.47 35.2501 459.475 35.2501 459.48 35.2501C459.485 35.2501 459.49 35.2501 459.495 35.2501C459.5 35.2501 459.505 35.2501 459.51 35.2501C459.515 35.2501 459.521 35.2501 459.526 35.2501C459.531 35.2501 459.536 35.2501 459.541 35.2501C459.546 35.2501 459.551 35.2501 459.556 35.2501C459.561 35.2501 459.567 35.2501 459.572 35.2501C459.577 35.2501 459.582 35.2501 459.587 35.2501C459.593 35.2501 459.598 35.2501 459.603 35.2501C459.608 35.2501 459.613 35.2501 459.619 35.2501C459.624 35.2501 459.629 35.2501 459.634 35.2501C459.64 35.2501 459.645 35.2501 459.65 35.2501C459.655 35.2501 459.661 35.2501 459.666 35.2501C459.671 35.2501 459.677 35.2501 459.682 35.2501C459.687 35.2501 459.693 35.2501 459.698 35.2501C459.703 35.2501 459.709 35.2501 459.714 35.2501C459.719 35.2501 459.725 35.2501 459.73 35.2501C459.736 35.2501 459.741 35.2501 459.746 35.2501C459.752 35.2501 459.757 35.2501 459.763 35.2501C459.768 35.2501 459.774 35.2501 459.779 35.2501C459.784 35.2501 459.79 35.2501 459.795 35.2501C459.801 35.2501 459.806 35.2501 459.812 35.2501C459.817 35.2501 459.823 35.2501 459.828 35.2501C459.834 35.2501 459.839 35.2501 459.845 35.2501C459.85 35.2501 459.856 35.2501 459.862 35.2501C459.867 35.2501 459.873 35.2501 459.878 35.2501C459.884 35.2501 459.889 35.2501 459.895 35.2501C459.901 35.2501 459.906 35.2501 459.912 35.2501C459.917 35.2501 459.923 35.2501 459.929 35.2501C459.934 35.2501 459.94 35.2501 459.946 35.2501C459.951 35.2501 459.957 35.2501 459.963 35.2501C459.968 35.2501 459.974 35.2501 459.98 35.2501C459.985 35.2501 459.991 35.2501 459.997 35.2501C460.003 35.2501 460.008 35.2501 460.014 35.2501C460.02 35.2501 460.026 35.2501 460.031 35.2501C460.037 35.2501 460.043 35.2501 460.049 35.2501C460.055 35.2501 460.06 35.2501 460.066 35.2501C460.072 35.2501 460.078 35.2501 460.084 35.2501C460.089 35.2501 460.095 35.2501 460.101 35.2501C460.107 35.2501 460.113 35.2501 460.119 35.2501C460.125 35.2501 460.13 35.2501 460.136 35.2501C460.142 35.2501 460.148 35.2501 460.154 35.2501C460.16 35.2501 460.166 35.2501 460.172 35.2501C460.178 35.2501 460.184 35.2501 460.19 35.2501C460.196 35.2501 460.202 35.2501 460.207 35.2501C460.213 35.2501 460.219 35.2501 460.225 35.2501C460.231 35.2501 460.237 35.2501 460.243 35.2501C460.249 35.2501 460.255 35.2501 460.261 35.2501C460.268 35.2501 460.274 35.2501 460.28 35.2501C460.286 35.2501 460.292 35.2501 460.298 35.2501C460.304 35.2501 460.31 35.2501 460.316 35.2501C460.322 35.2501 460.328 35.2501 460.334 35.2501C460.34 35.2501 460.347 35.2501 460.353 35.2501C460.359 35.2501 460.365 35.2501 460.371 35.2501C460.377 35.2501 460.383 35.2501 460.39 35.2501C460.396 35.2501 460.402 35.2501 460.408 35.2501C460.414 35.2501 460.421 35.2501 460.427 35.2501C460.433 35.2501 460.439 35.2501 460.445 35.2501C460.452 35.2501 460.458 35.2501 460.464 35.2501C460.47 35.2501 460.477 35.2501 460.483 35.2501C460.489 35.2501 460.495 35.2501 460.502 35.2501C460.508 35.2501 460.514 35.2501 460.521 35.2501C460.527 35.2501 460.533 35.2501 460.54 35.2501C460.546 35.2501 460.552 35.2501 460.559 35.2501C460.565 35.2501 460.571 35.2501 460.578 35.2501C460.584 35.2501 460.59 35.2501 460.597 35.2501C460.603 35.2501 460.609 35.2501 460.616 35.2501C460.622 35.2501 460.629 35.2501 460.635 35.2501C460.642 35.2501 460.648 35.2501 460.654 35.2501C460.661 35.2501 460.667 35.2501 460.674 35.2501C460.68 35.2501 460.687 35.2501 460.693 35.2501C460.7 35.2501 460.706 35.2501 460.713 35.2501C460.719 35.2501 460.726 35.2501 460.732 35.2501C460.739 35.2501 460.745 35.2501 460.752 35.2501C460.758 35.2501 460.765 35.2501 460.771 35.2501C460.778 35.2501 460.784 35.2501 460.791 35.2501C460.798 35.2501 460.804 35.2501 460.811 35.2501C460.817 35.2501 460.824 35.2501 460.83 35.2501C460.837 35.2501 460.844 35.2501 460.85 35.2501C460.857 35.2501 460.864 35.2501 460.87 35.2501C460.877 35.2501 460.883 35.2501 460.89 35.2501C460.897 35.2501 460.903 35.2501 460.91 35.2501C460.917 35.2501 460.924 35.2501 460.93 35.2501C460.937 35.2501 460.944 35.2501 460.95 35.2501C460.957 35.2501 460.964 35.2501 460.971 35.2501C460.977 35.2501 460.984 35.2501 460.991 35.2501C460.997 35.2501 461.004 35.2501 461.011 35.2501C461.018 35.2501 461.025 35.2501 461.031 35.2501C461.038 35.2501 461.045 35.2501 461.052 35.2501C461.059 35.2501 461.065 35.2501 461.072 35.2501C461.079 35.2501 461.086 35.2501 461.093 35.2501C461.1 35.2501 461.106 35.2501 461.113 35.2501C461.12 35.2501 461.127 35.2501 461.134 35.2501C461.141 35.2501 461.148 35.2501 461.154 35.2501C461.161 35.2501 461.168 35.2501 461.175 35.2501C461.182 35.2501 461.189 35.2501 461.196 35.2501C461.203 35.2501 461.21 35.2501 461.217 35.2501C461.224 35.2501 461.231 35.2501 461.238 35.2501C461.245 35.2501 461.252 35.2501 461.259 35.2501C461.265 35.2501 461.272 35.2501 461.279 35.2501C461.286 35.2501 461.293 35.2501 461.3 35.2501C461.308 35.2501 461.315 35.2501 461.322 35.2501C461.329 35.2501 461.336 35.2501 461.343 35.2501C461.35 35.2501 461.357 35.2501 461.364 35.2501C461.371 35.2501 461.378 35.2501 461.385 35.2501C461.392 35.2501 461.399 35.2501 461.406 35.2501C461.413 35.2501 461.421 35.2501 461.428 35.2501C461.435 35.2501 461.442 35.2501 461.449 35.2501C461.456 35.2501 461.463 35.2501 461.47 35.2501C461.478 35.2501 461.485 35.2501 461.492 35.2501C461.499 35.2501 461.506 35.2501 461.513 35.2501C461.521 35.2501 461.528 35.2501 461.535 35.2501C461.542 35.2501 461.549 35.2501 461.557 35.2501C461.564 35.2501 461.571 35.2501 461.578 35.2501C461.586 35.2501 461.593 35.2501 461.6 35.2501C461.607 35.2501 461.615 35.2501 461.622 35.2501C461.629 35.2501 461.636 35.2501 461.644 35.2501C461.651 35.2501 461.658 35.2501 461.666 35.2501C461.673 35.2501 461.68 35.2501 461.687 35.2501C461.695 35.2501 461.702 35.2501 461.709 35.2501C461.717 35.2501 461.724 35.2501 461.731 35.2501C461.739 35.2501 461.746 35.2501 461.754 35.2501C461.761 35.2501 461.768 35.2501 461.776 35.2501C461.783 35.2501 461.79 35.2501 461.798 35.2501C461.805 35.2501 461.813 35.2501 461.82 35.2501C461.827 35.2501 461.835 35.2501 461.842 35.2501C461.85 35.2501 461.857 35.2501 461.865 35.2501C461.872 35.2501 461.879 35.2501 461.887 35.2501C461.894 35.2501 461.902 35.2501 461.909 35.2501C461.917 35.2501 461.924 35.2501 461.932 35.2501C461.939 35.2501 461.947 35.2501 461.954 35.2501C461.962 35.2501 461.969 35.2501 461.977 35.2501C461.984 35.2501 461.992 35.2501 461.999 35.2501C462.007 35.2501 462.014 35.2501 462.022 35.2501C462.03 35.2501 462.037 35.2501 462.045 35.2501C462.052 35.2501 462.06 35.2501 462.067 35.2501C462.075 35.2501 462.083 35.2501 462.09 35.2501C462.098 35.2501 462.105 35.2501 462.113 35.2501C462.121 35.2501 462.128 35.2501 462.136 35.2501C462.144 35.2501 462.151 35.2501 462.159 35.2501C462.166 35.2501 462.174 35.2501 462.182 35.2501C462.189 35.2501 462.197 35.2501 462.205 35.2501C462.212 35.2501 462.22 35.2501 462.228 35.2501C462.236 35.2501 462.243 35.2501 462.251 35.2501C462.259 35.2501 462.266 35.2501 462.274 35.2501C462.282 35.2501 462.289 35.2501 462.297 35.2501C462.305 35.2501 462.313 35.2501 462.32 35.2501C462.328 35.2501 462.336 35.2501 462.344 35.2501C462.351 35.2501 462.359 35.2501 462.367 35.2501C462.375 35.2501 462.383 35.2501 462.39 35.2501C462.398 35.2501 462.406 35.2501 462.414 35.2501C462.422 35.2501 462.429 35.2501 462.437 35.2501C462.445 35.2501 462.453 35.2501 462.461 35.2501C462.469 35.2501 462.476 35.2501 462.484 35.2501C462.492 35.2501 462.5 35.2501 462.508 35.2501C462.516 35.2501 462.524 35.2501 462.531 35.2501C462.539 35.2501 462.547 35.2501 462.555 35.2501C462.563 35.2501 462.571 35.2501 462.579 35.2501C462.587 35.2501 462.595 35.2501 462.603 35.2501C462.611 35.2501 462.618 35.2501 462.626 35.2501C462.634 35.2501 462.642 35.2501 462.65 35.2501C462.658 35.2501 462.666 35.2501 462.674 35.2501C462.682 35.2501 462.69 35.2501 462.698 35.2501C462.706 35.2501 462.714 35.2501 462.722 35.2501C462.73 35.2501 462.738 35.2501 462.746 35.2501C462.754 35.2501 462.762 35.2501 462.77 35.2501C462.778 35.2501 462.786 35.2501 462.794 35.2501C462.802 35.2501 462.81 35.2501 462.818 35.2501C462.826 35.2501 462.834 35.2501 462.842 35.2501C462.85 35.2501 462.858 35.2501 462.867 35.2501C462.875 35.2501 462.883 35.2501 462.891 35.2501C462.899 35.2501 462.907 35.2501 462.915 35.2501C462.923 35.2501 462.931 35.2501 462.939 35.2501C462.948 35.2501 462.956 35.2501 462.964 35.2501C462.972 35.2501 462.98 35.2501 462.988 35.2501C462.996 35.2501 463.005 35.2501 463.013 35.2501C463.021 35.2501 463.029 35.2501 463.037 35.2501C463.045 35.2501 463.053 35.2501 463.062 35.2501C463.07 35.2501 463.078 35.2501 463.086 35.2501C463.094 35.2501 463.103 35.2501 463.111 35.2501C463.119 35.2501 463.127 35.2501 463.135 35.2501C463.144 35.2501 463.152 35.2501 463.16 35.2501C463.168 35.2501 463.177 35.2501 463.185 35.2501C463.193 35.2501 463.201 35.2501 463.21 35.2501C463.218 35.2501 463.226 35.2501 463.234 35.2501C463.243 35.2501 463.251 35.2501 463.259 35.2501C463.268 35.2501 463.276 35.2501 463.284 35.2501C463.292 35.2501 463.301 35.2501 463.309 35.2501C463.317 35.2501 463.326 35.2501 463.334 35.2501C463.342 35.2501 463.351 35.2501 463.359 35.2501C463.367 35.2501 463.376 35.2501 463.384 35.2501C463.392 35.2501 463.401 35.2501 463.409 35.2501C463.417 35.2501 463.426 35.2501 463.434 35.2501C463.443 35.2501 463.451 35.2501 463.459 35.2501C463.468 35.2501 463.476 35.2501 463.485 35.2501C463.493 35.2501 463.501 35.2501 463.51 35.2501C463.518 35.2501 463.527 35.2501 463.535 35.2501C463.543 35.2501 463.552 35.2501 463.56 35.2501C463.569 35.2501 463.577 35.2501 463.586 35.2501C463.594 35.2501 463.603 35.2501 463.611 35.2501C463.619 35.2501 463.628 35.2501 463.636 35.2501C463.645 35.2501 463.653 35.2501 463.662 35.2501C463.67 35.2501 463.679 35.2501 463.687 35.2501C463.696 35.2501 463.704 35.2501 463.713 35.2501C463.721 35.2501 463.73 35.2501 463.738 35.2501C463.747 35.2501 463.755 35.2501 463.764 35.2501C463.772 35.2501 463.781 35.2501 463.79 35.2501C463.798 35.2501 463.807 35.2501 463.815 35.2501C463.824 35.2501 463.832 35.2501 463.841 35.2501C463.849 35.2501 463.858 35.2501 463.867 35.2501C463.875 35.2501 463.884 35.2501 463.892 35.2501C463.901 35.2501 463.909 35.2501 463.918 35.2501C463.927 35.2501 463.935 35.2501 463.944 35.2501C463.953 35.2501 463.961 35.2501 463.97 35.2501C463.978 35.2501 463.987 35.2501 463.996 35.2501C464.004 35.2501 464.013 35.2501 464.022 35.2501C464.03 35.2501 464.039 35.2501 464.048 35.2501C464.056 35.2501 464.065 35.2501 464.073 35.2501C464.082 35.2501 464.091 35.2501 464.1 35.2501C464.108 35.2501 464.117 35.2501 464.126 35.2501C464.134 35.2501 464.143 35.2501 464.152 35.2501C464.16 35.2501 464.169 35.2501 464.178 35.2501C464.186 35.2501 464.195 35.2501 464.204 35.2501C464.213 35.2501 464.221 35.2501 464.23 35.2501C464.239 35.2501 464.248 35.2501 464.256 35.2501C464.265 35.2501 464.274 35.2501 464.283 35.2501C464.291 35.2501 464.3 35.2501 464.309 35.2501C464.318 35.2501 464.326 35.2501 464.335 35.2501C464.344 35.2501 464.353 35.2501 464.361 35.2501C464.37 35.2501 464.379 35.2501 464.388 35.2501C464.397 35.2501 464.405 35.2501 464.414 35.2501C464.423 35.2501 464.432 35.2501 464.441 35.2501C464.45 35.2501 464.458 35.2501 464.467 35.2501C464.476 35.2501 464.485 35.2501 464.494 35.2501C464.503 35.2501 464.511 35.2501 464.52 35.2501C464.529 35.2501 464.538 35.2501 464.547 35.2501C464.556 35.2501 464.564 35.2501 464.573 35.2501C464.582 35.2501 464.591 35.2501 464.6 35.2501C464.609 35.2501 464.618 35.2501 464.627 35.2501C464.636 35.2501 464.644 35.2501 464.653 35.2501C464.662 35.2501 464.671 35.2501 464.68 35.2501C464.689 35.2501 464.698 35.2501 464.707 35.2501C464.716 35.2501 464.725 35.2501 464.734 35.2501C464.742 35.2501 464.751 35.2501 464.76 35.2501C464.769 35.2501 464.778 35.2501 464.787 35.2501C464.796 35.2501 464.805 35.2501 464.814 35.2501C464.823 35.2501 464.832 35.2501 464.841 35.2501C464.85 35.2501 464.859 35.2501 464.868 35.2501C464.877 35.2501 464.886 35.2501 464.895 35.2501C464.904 35.2501 464.913 35.2501 464.922 35.2501C464.931 35.2501 464.94 35.2501 464.949 35.2501C464.958 35.2501 464.967 35.2501 464.976 35.2501C464.985 35.2501 464.994 35.2501 465.003 35.2501C465.012 35.2501 465.021 35.2501 465.03 35.2501C465.039 35.2501 465.048 35.2501 465.057 35.2501C465.066 35.2501 465.075 35.2501 465.084 35.2501C465.093 35.2501 465.102 35.2501 465.111 35.2501C465.12 35.2501 465.129 35.2501 465.138 35.2501C465.148 35.2501 465.157 35.2501 465.166 35.2501C465.175 35.2501 465.184 35.2501 465.193 35.2501C465.202 35.2501 465.211 35.2501 465.22 35.2501C465.229 35.2501 465.238 35.2501 465.248 35.2501C465.257 35.2501 465.266 35.2501 465.275 35.2501C465.284 35.2501 465.293 35.2501 465.302 35.2501C465.311 35.2501 465.32 35.2501 465.33 35.2501C465.339 35.2501 465.348 35.2501 465.357 35.2501C465.366 35.2501 465.375 35.2501 465.384 35.2501C465.394 35.2501 465.403 35.2501 465.412 35.2501C465.421 35.2501 465.43 35.2501 465.439 35.2501C465.449 35.2501 465.458 35.2501 465.467 35.2501C465.476 35.2501 465.485 35.2501 465.494 35.2501C465.504 35.2501 465.513 35.2501 465.522 35.2501C465.531 35.2501 465.54 35.2501 465.55 35.2501C465.559 35.2501 465.568 35.2501 465.577 35.2501C465.586 35.2501 465.596 35.2501 465.605 35.2501C465.614 35.2501 465.623 35.2501 465.632 35.2501C465.642 35.2501 465.651 35.2501 465.66 35.2501C465.669 35.2501 465.679 35.2501 465.688 35.2501C465.697 35.2501 465.706 35.2501 465.716 35.2501C465.725 35.2501 465.734 35.2501 465.743 35.2501C465.753 35.2501 465.762 35.2501 465.771 35.2501C465.78 35.2501 465.79 35.2501 465.799 35.2501C465.808 35.2501 465.817 35.2501 465.827 35.2501C465.836 35.2501 465.845 35.2501 465.855 35.2501C465.864 35.2501 465.873 35.2501 465.882 35.2501C465.892 35.2501 465.901 35.2501 465.91 35.2501C465.92 35.2501 465.929 35.2501 465.938 35.2501C465.947 35.2501 465.957 35.2501 465.966 35.2501C465.975 35.2501 465.985 35.2501 465.994 35.2501C466.003 35.2501 466.013 35.2501 466.022 35.2501C466.031 35.2501 466.041 35.2501 466.05 35.2501C466.059 35.2501 466.069 35.2501 466.078 35.2501C466.087 35.2501 466.097 35.2501 466.106 35.2501C466.115 35.2501 466.125 35.2501 466.134 35.2501C466.144 35.2501 466.153 35.2501 466.162 35.2501C466.172 35.2501 466.181 35.2501 466.19 35.2501C466.2 35.2501 466.209 35.2501 466.218 35.2501C466.228 35.2501 466.237 35.2501 466.247 35.2501C466.256 35.2501 466.265 35.2501 466.275 35.2501C466.284 35.2501 466.294 35.2501 466.303 35.2501C466.312 35.2501 466.322 35.2501 466.331 35.2501C466.341 35.2501 466.35 35.2501 466.359 35.2501C466.369 35.2501 466.378 35.2501 466.388 35.2501C466.397 35.2501 466.407 35.2501 466.416 35.2501C466.425 35.2501 466.435 35.2501 466.444 35.2501C466.454 35.2501 466.463 35.2501 466.473 35.2501C466.482 35.2501 466.491 35.2501 466.501 35.2501C466.51 35.2501 466.52 35.2501 466.529 35.2501C466.539 35.2501 466.548 35.2501 466.558 35.2501C466.567 35.2501 466.577 35.2501 466.586 35.2501C466.595 35.2501 466.605 35.2501 466.614 35.2501C466.624 35.2501 466.633 35.2501 466.643 35.2501C466.652 35.2501 466.662 35.2501 466.671 35.2501C466.681 35.2501 466.69 35.2501 466.7 35.2501C466.709 35.2501 466.719 35.2501 466.728 35.2501C466.738 35.2501 466.747 35.2501 466.757 35.2501C466.766 35.2501 466.776 35.2501 466.785 35.2501C466.795 35.2501 466.804 35.2501 466.814 35.2501C466.823 35.2501 466.833 35.2501 466.842 35.2501C466.852 35.2501 466.861 35.2501 466.871 35.2501C466.88 35.2501 466.89 35.2501 466.899 35.2501C466.909 35.2501 466.919 35.2501 466.928 35.2501C466.938 35.2501 466.947 35.2501 466.957 35.2501C466.966 35.2501 466.976 35.2501 466.985 35.2501C466.995 35.2501 467.004 35.2501 467.014 35.2501C467.024 35.2501 467.033 35.2501 467.043 35.2501C467.052 35.2501 467.062 35.2501 467.071 35.2501C467.081 35.2501 467.09 35.2501 467.1 35.2501V33.7501Z" fill="black"/>
<path d="M444 301.5C444.667 289.667 444.5 261.8 438.5 245C431 224 422 213.5 422.5 190.5C423 167.5 415 150 392.5 141C370 132 319 135.5 308 125C297 114.5 289.5 122 276 128C262.5 134 222.5 146.5 227 166.5C231.5 186.5 214.5 201.5 210.5 215C206.5 228.5 205.5 309 208 319.5" stroke="#313131" stroke-width="2"/>
<path d="M405.916 271.997C406.466 272.043 406.95 271.635 406.996 271.085L407.756 262.117C407.803 261.566 407.395 261.082 406.844 261.036C406.294 260.989 405.81 261.398 405.764 261.948L405.088 269.919L397.117 269.244C396.566 269.197 396.082 269.605 396.036 270.156C395.989 270.706 396.397 271.19 396.948 271.237L405.916 271.997ZM352.031 271.247C352.167 271.782 352.712 272.106 353.247 271.969L361.968 269.746C362.503 269.61 362.827 269.065 362.69 268.53C362.554 267.995 362.009 267.672 361.474 267.808L353.722 269.784L351.746 262.032C351.61 261.497 351.065 261.174 350.53 261.31C349.995 261.446 349.672 261.991 349.808 262.526L352.031 271.247ZM406.764 270.355C404.45 267.612 400.495 263.916 395.586 260.898C390.681 257.883 384.748 255.5 378.5 255.5V257.5C384.252 257.5 389.819 259.701 394.539 262.602C399.255 265.501 403.05 269.054 405.236 271.645L406.764 270.355ZM378.5 255.5C372.248 255.5 366.475 257.885 361.886 260.916C357.307 263.94 353.815 267.669 352.14 270.49L353.86 271.511C355.352 268.998 358.61 265.477 362.989 262.585C367.358 259.699 372.752 257.5 378.5 257.5V255.5Z" fill="#313131"/>
<path d="M290.416 270.997C290.966 271.043 291.45 270.635 291.496 270.085L292.256 261.117C292.303 260.566 291.895 260.082 291.344 260.036C290.794 259.989 290.31 260.398 290.264 260.948L289.588 268.919L281.617 268.244C281.066 268.197 280.582 268.605 280.536 269.156C280.489 269.706 280.897 270.19 281.448 270.237L290.416 270.997ZM236.531 270.247C236.667 270.782 237.212 271.106 237.747 270.969L246.468 268.746C247.003 268.61 247.327 268.065 247.19 267.53C247.054 266.995 246.509 266.672 245.974 266.808L238.222 268.784L236.246 261.032C236.11 260.497 235.565 260.174 235.03 260.31C234.495 260.446 234.172 260.991 234.308 261.526L236.531 270.247ZM291.264 269.355C288.95 266.612 284.995 262.916 280.086 259.898C275.181 256.883 269.248 254.5 263 254.5V256.5C268.752 256.5 274.319 258.701 279.039 261.602C283.755 264.501 287.55 268.054 289.736 270.645L291.264 269.355ZM263 254.5C256.748 254.5 250.975 256.885 246.386 259.916C241.807 262.94 238.315 266.669 236.64 269.49L238.36 270.511C239.852 267.998 243.11 264.477 247.489 261.585C251.858 258.699 257.252 256.5 263 256.5V254.5Z" fill="#313131"/>
<path d="M446 303C452 297.833 464.5 281.9 466.5 259.5C469 231.5 472.5 202 461.5 174C450.5 146 452.951 142.669 446 122.5C441.045 108.122 440.997 105.353 429 86.5001C425.5 81.0001 413.556 61.4449 407.5 55.5001C405.737 53.769 411 68.0001 404.5 67.0519C400.661 65.9267 382.675 43.1144 361.5 25.5001C344.064 10.9959 323.016 0.999945 318.5 1C313.64 1.00006 298.642 13.2344 286 28.5001C272.629 44.6461 261.577 64.0644 256 71.5C250 79.5001 257.5 47.5001 251 50.5C244.5 53.4999 239.391 65.9462 232.442 76.0001C231.197 77.802 228.759 61.6381 227.5 63.5001C220.469 76.307 210.467 93.5532 206 108.5C201.573 123.314 197.157 136.352 195.5 144C189 174 196 177 191 197.5C186 218 182 237 184.5 262C187 287 191.5 308.5 206 319.5" stroke="#313131" stroke-width="2" stroke-linecap="round" stroke-linejoin="round"/>
<path d="M437.357 367.734C436.934 368.09 436.879 368.72 437.234 369.143L443.023 376.035C443.378 376.458 444.009 376.512 444.432 376.157C444.855 375.802 444.91 375.171 444.554 374.748L439.409 368.623L445.535 363.477C445.957 363.122 446.012 362.491 445.657 362.068C445.302 361.645 444.671 361.59 444.248 361.946L437.357 367.734ZM464.278 273.04C463.748 272.886 463.193 273.192 463.039 273.722C462.886 274.253 463.191 274.807 463.722 274.961L464.278 273.04ZM437.913 369.496C441.85 369.839 448.493 369.422 453.207 364.707L451.793 363.293C447.707 367.379 441.817 367.828 438.087 367.504L437.913 369.496ZM453.207 364.707C456.052 361.863 460.854 355.02 464.985 348.074C467.058 344.586 468.983 341.038 470.424 337.911C471.846 334.824 472.858 332.021 472.997 330.071L471.003 329.929C470.892 331.479 470.029 333.988 468.607 337.074C467.205 340.118 465.317 343.602 463.265 347.052C459.146 353.981 454.448 360.637 451.793 363.293L453.207 364.707ZM472.997 330.071C473.107 328.542 473.77 326.917 474.811 324.972C475.328 324.007 475.921 322.993 476.564 321.89C477.204 320.793 477.887 319.615 478.568 318.349C481.305 313.258 484 306.718 484 297.5H482C482 306.282 479.445 312.492 476.807 317.402C476.144 318.635 475.476 319.785 474.836 320.883C474.2 321.976 473.586 323.024 473.048 324.028C471.98 326.021 471.143 327.958 471.003 329.929L472.997 330.071ZM484 297.5C484 289.975 480.681 284.313 476.572 280.32C472.481 276.346 467.581 273.996 464.278 273.04L463.722 274.961C466.753 275.838 471.352 278.038 475.178 281.755C478.986 285.454 482 290.625 482 297.5H484Z" fill="#313131"/>
<path d="M444.5 310C442.167 337.833 432.8 398.2 414 417C390.5 440.5 364.5 476 326.5 476C288.5 476 266 458.5 249.5 441.5C233 424.5 218.5 408.5 212 365.5C210.5 354 207.5 330 207.5 326" stroke="#313131" stroke-width="2"/>
<circle cx="444.5" cy="303.5" r="6" fill="black" stroke="#313131" stroke-width="2"/>
<circle cx="409.5" cy="56.5001" r="6" fill="black" stroke="#313131" stroke-width="2"/>
<circle cx="227.5" cy="62.5001" r="6" fill="black" stroke="#313131" stroke-width="2"/>
<circle cx="378.5" cy="265.5" r="6" fill="black" stroke="#313131" stroke-width="2"/>
<circle cx="207.5" cy="321.5" r="6" fill="black" stroke="#313131" stroke-width="2"/>
<circle cx="264.5" cy="264.5" r="6" fill="black" stroke="#313131" stroke-width="2"/>
<path d="M269.5 385C269.5 385 288.525 379.254 301.5 380.5C307.256 381.053 313.5 383 317 383C320.5 383 331.499 379.626 341 379.5C352.491 379.348 370 384 370 384M269.5 385C273.5 392 292.5 411.5 319 410.5C340.2 409.7 361.833 392.5 370 384M269.5 385C278.333 387.334 300.2 392.1 317 392.5C333.8 392.9 359.333 387 370 384" stroke="#313131" stroke-width="2" stroke-linejoin="round"/>
<path d="M216.009 251.637C216.085 252.184 216.59 252.566 217.137 252.491L226.052 251.256C226.599 251.181 226.981 250.676 226.905 250.129C226.83 249.582 226.325 249.199 225.778 249.275L217.853 250.372L216.756 242.448C216.68 241.901 216.176 241.519 215.628 241.595C215.081 241.67 214.699 242.175 214.775 242.722L216.009 251.637ZM287.723 246.475C288.261 246.352 288.598 245.816 288.475 245.277L286.469 236.504C286.346 235.965 285.81 235.628 285.272 235.752C284.733 235.875 284.397 236.411 284.52 236.949L286.302 244.748L278.503 246.531C277.965 246.654 277.628 247.19 277.751 247.728C277.874 248.267 278.411 248.603 278.949 248.48L287.723 246.475ZM217 251.5C217.797 252.104 217.797 252.104 217.797 252.104C217.797 252.104 217.797 252.104 217.797 252.104C217.798 252.103 217.798 252.103 217.799 252.102C217.8 252.1 217.802 252.098 217.805 252.094C217.811 252.086 217.82 252.074 217.832 252.058C217.857 252.025 217.896 251.976 217.947 251.911C218.05 251.781 218.204 251.587 218.408 251.34C218.816 250.844 219.42 250.132 220.2 249.275C221.763 247.559 224.025 245.266 226.824 242.959C232.446 238.325 240.108 233.74 248.529 233.5L248.471 231.501C239.392 231.76 231.304 236.675 225.551 241.416C222.662 243.797 220.331 246.16 218.721 247.929C217.916 248.813 217.29 249.551 216.864 250.069C216.65 250.328 216.487 250.533 216.376 250.674C216.32 250.744 216.278 250.799 216.249 250.836C216.235 250.855 216.223 250.869 216.216 250.88C216.212 250.885 216.209 250.889 216.207 250.891C216.205 250.893 216.205 250.894 216.204 250.895C216.204 250.895 216.203 250.896 216.203 250.896C216.203 250.896 216.203 250.897 217 251.5ZM248.529 233.5C257.051 233.256 266.635 236.432 274.161 239.729C277.909 241.37 281.116 243.028 283.386 244.275C284.52 244.898 285.419 245.418 286.033 245.782C286.34 245.963 286.575 246.106 286.733 246.202C286.812 246.25 286.872 246.287 286.911 246.312C286.931 246.324 286.946 246.333 286.955 246.339C286.96 246.342 286.963 246.344 286.966 246.345C286.967 246.346 286.967 246.347 286.968 246.347C286.968 246.347 286.968 246.347 286.968 246.347C286.968 246.347 286.968 246.347 287.5 245.5C288.032 244.653 288.032 244.653 288.031 244.653C288.031 244.653 288.031 244.652 288.03 244.652C288.029 244.652 288.028 244.651 288.027 244.65C288.024 244.648 288.019 244.645 288.014 244.642C288.002 244.635 287.986 244.625 287.964 244.611C287.921 244.585 287.858 244.546 287.775 244.495C287.61 244.394 287.366 244.247 287.051 244.06C286.421 243.687 285.504 243.157 284.349 242.522C282.04 241.254 278.778 239.568 274.964 237.897C267.365 234.568 257.449 231.244 248.471 231.501L248.529 233.5Z" fill="#313131"/>
<path d="M349.516 247.692C349.614 248.235 350.134 248.596 350.678 248.498L359.534 246.898C360.078 246.799 360.439 246.279 360.341 245.736C360.242 245.192 359.722 244.831 359.179 244.929L351.306 246.352L349.884 238.479C349.786 237.936 349.265 237.575 348.722 237.673C348.178 237.771 347.817 238.292 347.916 238.835L349.516 247.692ZM424.789 245.978C425.329 246.094 425.861 245.751 425.978 245.211L427.875 236.413C427.992 235.874 427.648 235.342 427.108 235.225C426.569 235.109 426.037 235.452 425.92 235.992L424.233 243.812L416.413 242.125C415.873 242.009 415.341 242.352 415.225 242.892C415.108 243.432 415.452 243.964 415.991 244.08L424.789 245.978ZM350.5 247.514C351.322 248.084 351.321 248.084 351.321 248.085C351.321 248.085 351.321 248.085 351.321 248.085C351.321 248.085 351.321 248.084 351.322 248.084C351.322 248.083 351.324 248.08 351.326 248.077C351.331 248.071 351.339 248.06 351.349 248.045C351.371 248.015 351.404 247.969 351.45 247.907C351.541 247.784 351.681 247.6 351.87 247.363C352.248 246.889 352.82 246.206 353.59 245.382C355.13 243.734 357.454 241.53 360.577 239.324C366.818 234.915 376.245 230.5 389 230.5V228.5C375.755 228.5 365.932 233.092 359.423 237.69C356.171 239.988 353.745 242.287 352.129 244.016C351.32 244.882 350.713 245.605 350.306 246.117C350.102 246.372 349.948 246.575 349.844 246.716C349.791 246.786 349.752 246.841 349.724 246.879C349.71 246.899 349.7 246.914 349.692 246.924C349.688 246.93 349.685 246.934 349.683 246.937C349.682 246.939 349.681 246.94 349.68 246.941C349.68 246.942 349.679 246.942 349.679 246.943C349.679 246.943 349.678 246.944 350.5 247.514ZM389 230.5C401.787 230.5 410.595 234.308 416.191 238.079C418.994 239.968 420.998 241.853 422.297 243.257C422.946 243.959 423.418 244.541 423.725 244.942C423.879 245.142 423.991 245.298 424.063 245.4C424.098 245.452 424.124 245.49 424.141 245.514C424.149 245.526 424.154 245.534 424.157 245.539C424.159 245.541 424.16 245.543 424.16 245.543C424.161 245.544 424.161 245.544 424.16 245.544C424.16 245.544 424.16 245.543 424.16 245.543C424.16 245.543 424.16 245.542 425 245C425.84 244.458 425.84 244.458 425.84 244.457C425.839 244.457 425.839 244.456 425.839 244.455C425.838 244.454 425.837 244.453 425.836 244.451C425.834 244.448 425.831 244.444 425.828 244.439C425.821 244.429 425.812 244.415 425.8 244.398C425.777 244.363 425.744 244.314 425.7 244.252C425.613 244.128 425.485 243.95 425.314 243.727C424.972 243.28 424.46 242.651 423.765 241.899C422.377 240.397 420.256 238.407 417.309 236.421C411.405 232.442 402.213 228.5 389 228.5V230.5Z" fill="#313131"/>
<path d="M186.043 271.34C186.507 271.04 186.64 270.421 186.34 269.957C186.04 269.493 185.42 269.361 184.957 269.661L186.043 271.34ZM179 319.5L178.076 319.883L179 319.5ZM200 364L200.496 363.132L200 364ZM210.249 365.663C210.615 365.249 210.576 364.617 210.163 364.251L203.422 358.288C203.008 357.922 202.376 357.961 202.01 358.374C201.644 358.788 201.683 359.42 202.096 359.786L208.088 365.087L202.788 371.079C202.422 371.492 202.461 372.124 202.874 372.49C203.288 372.856 203.92 372.817 204.286 372.404L210.249 365.663ZM184.957 269.661C182.639 271.16 180.52 273.743 178.778 277.027C177.029 280.323 175.627 284.387 174.779 288.929C173.085 298.013 173.595 309.087 178.076 319.883L179.924 319.117C175.605 308.714 175.115 298.038 176.746 289.296C177.561 284.926 178.903 281.058 180.544 277.964C182.193 274.857 184.111 272.59 186.043 271.34L184.957 269.661ZM178.076 319.883C183.579 333.141 186.476 342.812 189.241 350.072C191.973 357.247 194.575 362.052 199.504 364.868L200.496 363.132C196.226 360.692 193.828 356.497 191.11 349.361C188.425 342.31 185.421 332.36 179.924 319.117L178.076 319.883ZM199.504 364.868C200.29 365.317 201.341 365.581 202.382 365.747C203.445 365.916 204.599 365.999 205.653 366.035C206.71 366.072 207.684 366.063 208.393 366.044C208.748 366.035 209.038 366.024 209.24 366.015C209.341 366.01 209.42 366.006 209.475 366.003C209.502 366.002 209.523 366 209.537 366C209.545 365.999 209.55 365.999 209.554 365.999C209.556 365.999 209.558 365.998 209.559 365.998C209.56 365.998 209.56 365.998 209.56 365.998C209.561 365.998 209.561 365.998 209.561 365.998C209.561 365.998 209.561 365.998 209.5 365C209.439 364.002 209.439 364.002 209.439 364.002C209.439 364.002 209.439 364.002 209.439 364.002C209.439 364.002 209.439 364.002 209.439 364.002C209.438 364.002 209.437 364.002 209.436 364.002C209.433 364.002 209.428 364.003 209.422 364.003C209.41 364.004 209.392 364.005 209.367 364.006C209.318 364.009 209.244 364.012 209.149 364.017C208.958 364.025 208.682 364.036 208.342 364.045C207.66 364.063 206.728 364.071 205.722 364.036C204.713 364.002 203.649 363.923 202.697 363.772C201.721 363.616 200.961 363.397 200.496 363.132L199.504 364.868Z" fill="#313131"/>
<path d="M345 322.5C348.667 326.667 354.1 337 346.5 345" stroke="#313131" stroke-width="2" stroke-linecap="round" stroke-linejoin="round"/>
<path d="M291 320.5C287.167 323.667 281 332.3 287 341.5" stroke="#313131" stroke-width="2" stroke-linecap="round" stroke-linejoin="round"/>
<path d="M306 284C304.833 291.333 302 306.4 300 308" stroke="#313131" stroke-width="2" stroke-linecap="round"/>
<path d="M347.5 281C351 284.5 358.1 292.2 358.5 295" stroke="#313131" stroke-width="2" stroke-linecap="round"/>
<path d="M380 358.5C382.5 361.5 387.5 368.2 387.5 371C387.5 373.8 383.5 381.833 381.5 385.5" stroke="#313131" stroke-width="2" stroke-linecap="round"/>
<path d="M263.5 351.5C260.333 354.167 253.7 360.2 252.5 363C251.3 365.8 252.667 374.5 253.5 378.5" stroke="#313131" stroke-width="2" stroke-linecap="round"/>
<path d="M230 361C231.5 363.5 233.8 370 231 376" stroke="#313131" stroke-width="2" stroke-linecap="round"/>
<path d="M290.5 279L276 290.5" stroke="#313131" stroke-width="2" stroke-linecap="round"/>
<path d="M417 414V501.5" stroke="#313131" stroke-width="2" stroke-linecap="round"/>
<path d="M229.5 417.5C232 449.333 236.5 513.9 234.5 517.5" stroke="#313131" stroke-width="2" stroke-linecap="round"/>
<path d="M285.5 491C284.833 498.167 287 514.6 301 523" stroke="#313131" stroke-width="2" stroke-linecap="round"/>
<path d="M233.5 479C214.667 496.333 175.1 531.3 167.5 532.5" stroke="#313131" stroke-width="2" stroke-linecap="round"/>
<path d="M417 465C417 465 425.5 476.5 439 484C452.96 491.756 475.833 503.167 485 509" stroke="#313131" stroke-width="2" stroke-linecap="round"/>
<path d="M322.5 351C322.833 348.667 325.2 343.6 332 342" stroke="#313131" stroke-width="2" stroke-linecap="round"/>
<circle cx="334.5" cy="346.5" r="6" fill="black" stroke="#313131" stroke-width="2"/>
<path d="M309.5 348.5C309 346.5 306.8 342.3 302 341.5" stroke="#313131" stroke-width="2" stroke-linecap="round"/>
<circle cx="299.5" cy="346.5" r="6" fill="black" stroke="#313131" stroke-width="2"/>
<path d="M168 532.5C159.5 530.5 146.5 532 138.5 543C122.167 547.833 85.5 562.9 69.5 584.5C64.6852 591 31.5 595.5 17 617.5C15.3523 620 4.3 627.5 1.5 633.5" stroke="#313131" stroke-width="2" stroke-linecap="round"/>
<path d="M168 532.5C166.167 543 183.6 568.7 268 587.5C373.5 611 488 552 485 509.5" stroke="#313131" stroke-width="2" stroke-linecap="round"/>
<path d="M485 509C492.5 506.5 504 505.5 514.5 517C531.5 518.5 531.337 528.38 542.5 533C553.663 537.621 573 537 586.5 551.5C600 566 630.5 566 645 584C653.667 591.167 673.8 608.6 685 621" stroke="#313131" stroke-width="2" stroke-linecap="round"/>
<path d="M514 517C514 561.5 426 628 310 621C194 614 141.167 570.167 139 542.5" stroke="#313131" stroke-width="2" stroke-linecap="round"/>
<circle cx="685.5" cy="621.5" r="6" fill="black" stroke="#313131" stroke-width="2"/>
<circle cx="416.5" cy="505.5" r="6" fill="black" stroke="#313131" stroke-width="2"/>
<circle cx="377.5" cy="355.5" r="6" fill="black" stroke="#313131" stroke-width="2"/>
<circle cx="234.5" cy="519.5" r="6" fill="black" stroke="#313131" stroke-width="2"/>
<circle cx="286.5" cy="487.5" r="6" fill="black" stroke="#313131" stroke-width="2"/>
<rect x="283.5" y="449.5" width="75.4" height="30" rx="3" fill="white"/>
<path d="M303.698 464.51C303.698 465.346 303.557 466.076 303.276 466.701C302.995 467.322 302.596 467.797 302.081 468.125C301.565 468.453 300.964 468.617 300.276 468.617C299.604 468.617 299.009 468.453 298.489 468.125C297.97 467.793 297.565 467.322 297.276 466.713C296.991 466.1 296.845 465.391 296.837 464.586V463.971C296.837 463.151 296.979 462.426 297.264 461.797C297.55 461.168 297.952 460.688 298.471 460.356C298.995 460.02 299.593 459.852 300.264 459.852C300.948 459.852 301.55 460.018 302.069 460.35C302.593 460.678 302.995 461.156 303.276 461.785C303.557 462.41 303.698 463.139 303.698 463.971V464.51ZM302.579 463.959C302.579 462.947 302.376 462.172 301.97 461.633C301.563 461.09 300.995 460.818 300.264 460.818C299.554 460.818 298.993 461.09 298.583 461.633C298.177 462.172 297.968 462.922 297.956 463.883V464.51C297.956 465.49 298.161 466.262 298.571 466.824C298.985 467.383 299.554 467.662 300.276 467.662C301.003 467.662 301.565 467.399 301.964 466.871C302.362 466.34 302.567 465.58 302.579 464.592V463.959ZM306.241 462.16L306.276 462.957C306.761 462.348 307.393 462.043 308.175 462.043C309.514 462.043 310.19 462.799 310.202 464.311V468.5H309.118V464.305C309.114 463.848 309.009 463.51 308.802 463.291C308.598 463.072 308.28 462.963 307.846 462.963C307.495 462.963 307.186 463.057 306.921 463.244C306.655 463.432 306.448 463.678 306.3 463.983V468.5H305.216V462.16H306.241ZM317.497 464.697C316.532 464.42 315.829 464.08 315.387 463.678C314.95 463.272 314.731 462.772 314.731 462.178C314.731 461.506 314.999 460.951 315.534 460.514C316.073 460.072 316.772 459.852 317.632 459.852C318.218 459.852 318.739 459.965 319.196 460.192C319.657 460.418 320.012 460.731 320.262 461.129C320.516 461.527 320.643 461.963 320.643 462.436H319.512C319.512 461.92 319.348 461.516 319.02 461.223C318.692 460.926 318.229 460.777 317.632 460.777C317.077 460.777 316.643 460.901 316.331 461.147C316.022 461.389 315.868 461.727 315.868 462.16C315.868 462.508 316.014 462.803 316.307 463.045C316.604 463.283 317.106 463.502 317.813 463.701C318.524 463.901 319.079 464.121 319.477 464.363C319.88 464.602 320.177 464.881 320.368 465.201C320.563 465.522 320.661 465.899 320.661 466.332C320.661 467.024 320.391 467.578 319.852 467.996C319.313 468.41 318.593 468.617 317.69 468.617C317.104 468.617 316.557 468.506 316.05 468.283C315.542 468.057 315.149 467.748 314.872 467.358C314.598 466.967 314.462 466.524 314.462 466.027H315.593C315.593 466.543 315.782 466.951 316.161 467.252C316.544 467.549 317.054 467.697 317.69 467.697C318.284 467.697 318.739 467.576 319.055 467.334C319.372 467.092 319.53 466.762 319.53 466.344C319.53 465.926 319.384 465.604 319.091 465.377C318.798 465.147 318.266 464.92 317.497 464.697ZM323.022 462.928C323.503 462.338 324.128 462.043 324.897 462.043C326.237 462.043 326.913 462.799 326.925 464.311V468.5H325.841V464.305C325.837 463.848 325.731 463.51 325.524 463.291C325.321 463.072 325.003 462.963 324.569 462.963C324.218 462.963 323.909 463.057 323.643 463.244C323.378 463.432 323.171 463.678 323.022 463.983V468.5H321.938V459.5H323.022V462.928ZM332.462 468.5C332.399 468.375 332.348 468.152 332.309 467.832C331.805 468.356 331.204 468.617 330.505 468.617C329.88 468.617 329.366 468.442 328.964 468.09C328.565 467.734 328.366 467.285 328.366 466.742C328.366 466.082 328.616 465.57 329.116 465.207C329.62 464.84 330.327 464.656 331.237 464.656H332.292V464.158C332.292 463.779 332.179 463.479 331.952 463.256C331.725 463.029 331.391 462.916 330.95 462.916C330.563 462.916 330.239 463.014 329.977 463.209C329.716 463.404 329.585 463.641 329.585 463.918H328.495C328.495 463.602 328.606 463.297 328.829 463.004C329.055 462.707 329.36 462.473 329.743 462.301C330.13 462.129 330.554 462.043 331.014 462.043C331.745 462.043 332.317 462.227 332.731 462.594C333.145 462.957 333.36 463.459 333.376 464.1V467.018C333.376 467.6 333.45 468.063 333.598 468.406V468.5H332.462ZM330.663 467.674C331.003 467.674 331.325 467.586 331.63 467.41C331.934 467.234 332.155 467.006 332.292 466.725V465.424H331.442C330.114 465.424 329.45 465.813 329.45 466.59C329.45 466.93 329.563 467.195 329.79 467.387C330.016 467.578 330.307 467.674 330.663 467.674ZM337.073 467.029L338.643 462.16H339.751L337.477 468.5H336.651L334.354 462.16H335.462L337.073 467.029ZM343.343 468.617C342.483 468.617 341.784 468.336 341.245 467.774C340.706 467.207 340.436 466.451 340.436 465.506V465.307C340.436 464.678 340.555 464.117 340.794 463.625C341.036 463.129 341.372 462.742 341.802 462.465C342.235 462.184 342.704 462.043 343.208 462.043C344.032 462.043 344.673 462.315 345.13 462.858C345.587 463.401 345.815 464.178 345.815 465.19V465.641H341.52C341.536 466.266 341.718 466.772 342.065 467.158C342.417 467.541 342.862 467.733 343.401 467.733C343.784 467.733 344.108 467.654 344.374 467.498C344.639 467.342 344.872 467.135 345.071 466.877L345.733 467.393C345.202 468.209 344.405 468.617 343.343 468.617ZM343.208 462.934C342.77 462.934 342.403 463.094 342.106 463.414C341.809 463.731 341.626 464.176 341.555 464.75H344.731V464.668C344.7 464.117 344.552 463.692 344.286 463.391C344.02 463.086 343.661 462.934 343.208 462.934Z" fill="black"/>
<rect x="555.5" y="544" width="89.4" height="30" rx="3" fill="white"/>
<path d="M575.409 559.01C575.409 559.846 575.268 560.576 574.987 561.201C574.706 561.822 574.307 562.297 573.792 562.625C573.276 562.953 572.675 563.117 571.987 563.117C571.315 563.117 570.72 562.953 570.2 562.625C569.68 562.293 569.276 561.822 568.987 561.213C568.702 560.6 568.555 559.891 568.548 559.086V558.471C568.548 557.65 568.69 556.926 568.975 556.297C569.261 555.668 569.663 555.188 570.182 554.855C570.706 554.52 571.304 554.352 571.975 554.352C572.659 554.352 573.261 554.518 573.78 554.85C574.304 555.178 574.706 555.656 574.987 556.285C575.268 556.91 575.409 557.639 575.409 558.471V559.01ZM574.29 558.459C574.29 557.447 574.087 556.672 573.68 556.133C573.274 555.59 572.706 555.318 571.975 555.318C571.264 555.318 570.704 555.59 570.294 556.133C569.888 556.672 569.679 557.422 569.667 558.383V559.01C569.667 559.99 569.872 560.762 570.282 561.324C570.696 561.883 571.264 562.162 571.987 562.162C572.714 562.162 573.276 561.898 573.675 561.371C574.073 560.84 574.278 560.08 574.29 559.092V558.459ZM577.952 556.66L577.987 557.457C578.471 556.848 579.104 556.543 579.886 556.543C581.225 556.543 581.901 557.299 581.913 558.811V563H580.829V558.805C580.825 558.348 580.72 558.01 580.513 557.791C580.309 557.572 579.991 557.463 579.557 557.463C579.206 557.463 578.897 557.557 578.632 557.744C578.366 557.932 578.159 558.178 578.011 558.482V563H576.927V556.66H577.952ZM586.694 563V554.469H589.102C589.845 554.469 590.501 554.633 591.071 554.961C591.641 555.289 592.081 555.756 592.389 556.361C592.702 556.967 592.86 557.662 592.864 558.447V558.992C592.864 559.797 592.708 560.502 592.395 561.107C592.087 561.713 591.643 562.178 591.065 562.502C590.491 562.826 589.821 562.992 589.055 563H586.694ZM587.819 555.395V562.08H589.003C589.87 562.08 590.544 561.811 591.024 561.271C591.509 560.732 591.751 559.965 591.751 558.969V558.471C591.751 557.502 591.522 556.75 591.065 556.215C590.612 555.676 589.968 555.402 589.132 555.395H587.819ZM597.464 557.633C597.3 557.605 597.122 557.592 596.93 557.592C596.22 557.592 595.737 557.895 595.483 558.5V563H594.399V556.66H595.454L595.471 557.393C595.827 556.826 596.331 556.543 596.983 556.543C597.194 556.543 597.354 556.57 597.464 556.625V557.633ZM600.979 563.117C600.12 563.117 599.421 562.836 598.882 562.273C598.343 561.707 598.073 560.951 598.073 560.006V559.807C598.073 559.178 598.192 558.617 598.43 558.125C598.673 557.629 599.009 557.242 599.438 556.965C599.872 556.684 600.341 556.543 600.845 556.543C601.669 556.543 602.309 556.814 602.766 557.357C603.223 557.9 603.452 558.678 603.452 559.689V560.141H599.157C599.173 560.766 599.354 561.271 599.702 561.658C600.054 562.041 600.499 562.232 601.038 562.232C601.421 562.232 601.745 562.154 602.011 561.998C602.276 561.842 602.509 561.635 602.708 561.377L603.37 561.893C602.839 562.709 602.042 563.117 600.979 563.117ZM600.845 557.434C600.407 557.434 600.04 557.594 599.743 557.914C599.446 558.23 599.263 558.676 599.192 559.25H602.368V559.168C602.337 558.617 602.188 558.191 601.923 557.891C601.657 557.586 601.298 557.434 600.845 557.434ZM608.403 561.318C608.403 561.025 608.292 560.799 608.069 560.639C607.85 560.475 607.466 560.334 606.915 560.217C606.368 560.1 605.932 559.959 605.608 559.795C605.288 559.631 605.05 559.436 604.893 559.209C604.741 558.982 604.665 558.713 604.665 558.4C604.665 557.881 604.884 557.441 605.321 557.082C605.763 556.723 606.325 556.543 607.009 556.543C607.727 556.543 608.309 556.729 608.755 557.1C609.204 557.471 609.429 557.945 609.429 558.523H608.339C608.339 558.227 608.212 557.971 607.958 557.756C607.708 557.541 607.391 557.434 607.009 557.434C606.614 557.434 606.305 557.52 606.083 557.691C605.86 557.863 605.749 558.088 605.749 558.365C605.749 558.627 605.852 558.824 606.059 558.957C606.266 559.09 606.639 559.217 607.179 559.338C607.721 559.459 608.161 559.604 608.497 559.771C608.833 559.939 609.081 560.143 609.241 560.381C609.405 560.615 609.487 560.902 609.487 561.242C609.487 561.809 609.261 562.264 608.807 562.607C608.354 562.947 607.766 563.117 607.044 563.117C606.536 563.117 606.087 563.027 605.696 562.848C605.305 562.668 604.999 562.418 604.776 562.098C604.557 561.773 604.448 561.424 604.448 561.049H605.532C605.552 561.412 605.696 561.701 605.966 561.916C606.239 562.127 606.598 562.232 607.044 562.232C607.454 562.232 607.782 562.15 608.028 561.986C608.278 561.818 608.403 561.596 608.403 561.318ZM614.591 561.318C614.591 561.025 614.479 560.799 614.257 560.639C614.038 560.475 613.653 560.334 613.102 560.217C612.555 560.1 612.12 559.959 611.796 559.795C611.475 559.631 611.237 559.436 611.081 559.209C610.929 558.982 610.852 558.713 610.852 558.4C610.852 557.881 611.071 557.441 611.509 557.082C611.95 556.723 612.513 556.543 613.196 556.543C613.915 556.543 614.497 556.729 614.942 557.1C615.391 557.471 615.616 557.945 615.616 558.523H614.526C614.526 558.227 614.399 557.971 614.145 557.756C613.895 557.541 613.579 557.434 613.196 557.434C612.802 557.434 612.493 557.52 612.27 557.691C612.048 557.863 611.936 558.088 611.936 558.365C611.936 558.627 612.04 558.824 612.247 558.957C612.454 559.09 612.827 559.217 613.366 559.338C613.909 559.459 614.348 559.604 614.684 559.771C615.02 559.939 615.268 560.143 615.429 560.381C615.593 560.615 615.675 560.902 615.675 561.242C615.675 561.809 615.448 562.264 614.995 562.607C614.542 562.947 613.954 563.117 613.231 563.117C612.723 563.117 612.274 563.027 611.884 562.848C611.493 562.668 611.186 562.418 610.964 562.098C610.745 561.773 610.636 561.424 610.636 561.049H611.72C611.739 561.412 611.884 561.701 612.153 561.916C612.427 562.127 612.786 562.232 613.231 562.232C613.641 562.232 613.97 562.15 614.216 561.986C614.466 561.818 614.591 561.596 614.591 561.318ZM618.264 563H617.18V556.66H618.264V563ZM617.093 554.979C617.093 554.803 617.145 554.654 617.251 554.533C617.36 554.412 617.52 554.352 617.731 554.352C617.942 554.352 618.102 554.412 618.212 554.533C618.321 554.654 618.376 554.803 618.376 554.979C618.376 555.154 618.321 555.301 618.212 555.418C618.102 555.535 617.942 555.594 617.731 555.594C617.52 555.594 617.36 555.535 617.251 555.418C617.145 555.301 617.093 555.154 617.093 554.979ZM621.03 556.66L621.065 557.457C621.55 556.848 622.182 556.543 622.964 556.543C624.304 556.543 624.979 557.299 624.991 558.811V563H623.907V558.805C623.903 558.348 623.798 558.01 623.591 557.791C623.388 557.572 623.069 557.463 622.636 557.463C622.284 557.463 621.975 557.557 621.71 557.744C621.444 557.932 621.237 558.178 621.089 558.482V563H620.005V556.66H621.03ZM626.368 559.777C626.368 558.789 626.596 558.004 627.054 557.422C627.511 556.836 628.116 556.543 628.87 556.543C629.643 556.543 630.247 556.816 630.68 557.363L630.733 556.66H631.723V562.848C631.723 563.668 631.479 564.314 630.991 564.787C630.507 565.26 629.854 565.496 629.034 565.496C628.577 565.496 628.13 565.398 627.692 565.203C627.255 565.008 626.921 564.74 626.69 564.4L627.253 563.75C627.718 564.324 628.286 564.611 628.958 564.611C629.485 564.611 629.895 564.463 630.188 564.166C630.485 563.869 630.634 563.451 630.634 562.912V562.367C630.2 562.867 629.608 563.117 628.858 563.117C628.116 563.117 627.514 562.818 627.054 562.221C626.596 561.623 626.368 560.809 626.368 559.777ZM627.458 559.9C627.458 560.615 627.604 561.178 627.897 561.588C628.19 561.994 628.6 562.197 629.128 562.197C629.811 562.197 630.313 561.887 630.634 561.266V558.371C630.302 557.766 629.804 557.463 629.139 557.463C628.612 557.463 628.2 557.668 627.903 558.078C627.606 558.488 627.458 559.096 627.458 559.9Z" fill="black"/>
<rect x="166.5" y="104.5" width="64.4" height="30" rx="3" fill="white"/>
<path d="M186.372 119.51C186.372 120.346 186.231 121.076 185.95 121.701C185.669 122.322 185.27 122.797 184.755 123.125C184.239 123.453 183.637 123.617 182.95 123.617C182.278 123.617 181.682 123.453 181.163 123.125C180.643 122.793 180.239 122.322 179.95 121.713C179.665 121.1 179.518 120.391 179.511 119.586V118.971C179.511 118.151 179.653 117.426 179.938 116.797C180.223 116.168 180.626 115.688 181.145 115.356C181.669 115.02 182.266 114.852 182.938 114.852C183.622 114.852 184.223 115.018 184.743 115.35C185.266 115.678 185.669 116.156 185.95 116.785C186.231 117.41 186.372 118.139 186.372 118.971V119.51ZM185.253 118.959C185.253 117.947 185.05 117.172 184.643 116.633C184.237 116.09 183.669 115.818 182.938 115.818C182.227 115.818 181.667 116.09 181.257 116.633C180.85 117.172 180.641 117.922 180.63 118.883V119.51C180.63 120.49 180.835 121.262 181.245 121.824C181.659 122.383 182.227 122.662 182.95 122.662C183.677 122.662 184.239 122.399 184.637 121.871C185.036 121.34 185.241 120.58 185.253 119.592V118.959ZM188.915 117.16L188.95 117.957C189.434 117.348 190.067 117.043 190.848 117.043C192.188 117.043 192.864 117.799 192.876 119.311V123.5H191.792V119.305C191.788 118.848 191.682 118.51 191.475 118.291C191.272 118.072 190.954 117.963 190.52 117.963C190.169 117.963 189.86 118.057 189.595 118.244C189.329 118.432 189.122 118.678 188.973 118.983V123.5H187.889V117.16H188.915ZM204.214 123.5H203.083V119.557H198.782V123.5H197.657V114.969H198.782V118.637H203.083V114.969H204.214V123.5ZM209.956 122.873C209.534 123.369 208.915 123.617 208.098 123.617C207.423 123.617 206.907 123.422 206.552 123.031C206.2 122.637 206.022 122.055 206.018 121.285V117.16H207.102V121.256C207.102 122.217 207.493 122.697 208.274 122.697C209.102 122.697 209.653 122.389 209.927 121.772V117.16H211.011V123.5H209.979L209.956 122.873ZM212.405 120.277C212.405 119.289 212.634 118.504 213.091 117.922C213.548 117.336 214.153 117.043 214.907 117.043C215.68 117.043 216.284 117.317 216.718 117.863L216.77 117.16H217.761V123.348C217.761 124.168 217.516 124.815 217.028 125.287C216.544 125.76 215.891 125.996 215.071 125.996C214.614 125.996 214.167 125.899 213.729 125.703C213.292 125.508 212.958 125.24 212.727 124.901L213.29 124.25C213.755 124.824 214.323 125.111 214.995 125.111C215.522 125.111 215.932 124.963 216.225 124.666C216.522 124.369 216.671 123.951 216.671 123.412V122.867C216.237 123.367 215.645 123.617 214.895 123.617C214.153 123.617 213.552 123.318 213.091 122.721C212.634 122.123 212.405 121.309 212.405 120.277ZM213.495 120.401C213.495 121.115 213.641 121.678 213.934 122.088C214.227 122.494 214.637 122.697 215.165 122.697C215.848 122.697 216.35 122.387 216.671 121.766V118.871C216.339 118.266 215.841 117.963 215.177 117.963C214.649 117.963 214.237 118.168 213.94 118.578C213.643 118.988 213.495 119.596 213.495 120.401Z" fill="black"/>
</svg>
