<svg width="111" height="110" viewBox="0 0 111 110" fill="none" xmlns="http://www.w3.org/2000/svg">
<g clip-path="url(#clip0)">
<path d="M0.820557 38.1333C0.820557 24.7855 0.820557 18.1115 3.41823 13.0132C5.70323 8.52869 9.34925 4.88267 13.8338 2.59767C18.932 0 25.6061 0 38.9539 0H72.6872C86.035 0 92.7091 0 97.8073 2.59767C102.292 4.88267 105.938 8.52869 108.223 13.0132C110.821 18.1115 110.821 24.7855 110.821 38.1333V71.8667C110.821 85.2145 110.821 91.8885 108.223 96.9868C105.938 101.471 102.292 105.117 97.8073 107.402C92.7091 110 86.035 110 72.6872 110H38.9539C25.6061 110 18.932 110 13.8338 107.402C9.34925 105.117 5.70323 101.471 3.41823 96.9868C0.820557 91.8885 0.820557 85.2145 0.820557 71.8667V38.1333Z" fill="#FFD02F"/>
<path fill-rule="evenodd" clip-rule="evenodd" d="M75.7771 14.6653H64.0346L74.4587 30.8247L52.4202 14.6653H40.6777L51.1016 35.838L29.0633 14.6653H17.321L27.574 41.9952L17.321 95.3319H29.0633L51.1016 38.1429L40.6777 95.3319H52.4202L74.4587 33.1297L64.0346 95.3319H75.7771L97.9863 27.0063L75.7771 14.6653V14.6653Z" fill="#050038"/>
</g>
<defs>
<clipPath id="clip0">
<rect width="110" height="110" fill="white" transform="translate(0.820557)"/>
</clipPath>
</defs>
</svg>
