<svg width="40" height="41" viewBox="0 0 40 41" fill="none" xmlns="http://www.w3.org/2000/svg">
<circle cx="20" cy="20.0029" r="20" fill="white"/>
<mask id="mask0" mask-type="alpha" maskUnits="userSpaceOnUse" x="0" y="0" width="40" height="41">
<circle cx="20" cy="20.0029" r="20" fill="white"/>
</mask>
<g mask="url(#mask0)">
<rect x="-3.19983" y="14.4043" width="43.2" height="3.2" fill="#B63232"/>
<rect x="-3.19983" y="8.80371" width="43.2" height="3.2" fill="#B63232"/>
<rect x="-3.19983" y="3.20312" width="43.2" height="3.2" fill="#B63232"/>
<rect x="-3.19983" y="-2.39648" width="43.2" height="3.2" fill="#B63232"/>
<rect x="-3.19983" y="20.0039" width="43.2" height="3.2" fill="#B63232"/>
<rect x="-3.19983" y="25.6035" width="43.2" height="3.2" fill="#B63232"/>
<rect x="-3.19983" y="31.2031" width="43.2" height="3.2" fill="#B63232"/>
<rect x="-3.19983" y="36.8037" width="43.2" height="3.2" fill="#B63232"/>
<rect x="-3.19983" y="-2.39648" width="20" height="20" fill="#27365C"/>
<path d="M14.0002 13.6035L14.2696 14.4327H15.1414L14.4361 14.9452L14.7055 15.7743L14.0002 15.2619L13.2948 15.7743L13.5642 14.9452L12.8589 14.4327H13.7308L14.0002 13.6035Z" fill="white"/>
<path d="M14.0002 8.80371L14.2696 9.63289H15.1414L14.4361 10.1454L14.7055 10.9745L14.0002 10.4621L13.2948 10.9745L13.5642 10.1454L12.8589 9.63289H13.7308L14.0002 8.80371Z" fill="white"/>
<path d="M14.0002 4.00391L14.2696 4.83309H15.1414L14.4361 5.34555L14.7055 6.17473L14.0002 5.66227L13.2948 6.17473L13.5642 5.34555L12.8589 4.83309H13.7308L14.0002 4.00391Z" fill="white"/>
<path d="M14.0002 -0.796875L14.2696 0.0323045H15.1414L14.4361 0.544766L14.7055 1.37395L14.0002 0.861484L13.2948 1.37395L13.5642 0.544766L12.8589 0.0323045H13.7308L14.0002 -0.796875Z" fill="white"/>
<path d="M11.6001 11.2031L11.8696 12.0323H12.7414L12.0361 12.5448L12.3055 13.3739L11.6001 12.8615L10.8948 13.3739L11.1642 12.5448L10.4589 12.0323H11.3307L11.6001 11.2031Z" fill="white"/>
<path d="M11.6001 6.4043L11.8696 7.23348H12.7414L12.0361 7.74594L12.3055 8.57512L11.6001 8.06266L10.8948 8.57512L11.1642 7.74594L10.4589 7.23348H11.3307L11.6001 6.4043Z" fill="white"/>
<path d="M11.6001 1.60352L11.8696 2.4327H12.7414L12.0361 2.94516L12.3055 3.77434L11.6001 3.26187L10.8948 3.77434L11.1642 2.94516L10.4589 2.4327H11.3307L11.6001 1.60352Z" fill="white"/>
<path d="M9.20024 13.6035L9.46966 14.4327H10.3415L9.63617 14.9452L9.90559 15.7743L9.20024 15.2619L8.4949 15.7743L8.76432 14.9452L8.05898 14.4327H8.93083L9.20024 13.6035Z" fill="white"/>
<path d="M9.20024 8.80371L9.46966 9.63289H10.3415L9.63617 10.1454L9.90559 10.9745L9.20024 10.4621L8.4949 10.9745L8.76432 10.1454L8.05898 9.63289H8.93083L9.20024 8.80371Z" fill="white"/>
<path d="M9.20024 4.00391L9.46966 4.83309H10.3415L9.63617 5.34555L9.90559 6.17473L9.20024 5.66227L8.4949 6.17473L8.76432 5.34555L8.05898 4.83309H8.93083L9.20024 4.00391Z" fill="white"/>
<path d="M9.20024 -0.796875L9.46966 0.0323045H10.3415L9.63617 0.544766L9.90559 1.37395L9.20024 0.861484L8.4949 1.37395L8.76432 0.544766L8.05898 0.0323045H8.93083L9.20024 -0.796875Z" fill="white"/>
<path d="M6.8001 11.2031L7.06951 12.0323H7.94137L7.23602 12.5448L7.50544 13.3739L6.8001 12.8615L6.09476 13.3739L6.36417 12.5448L5.65883 12.0323H6.53068L6.8001 11.2031Z" fill="white"/>
<path d="M6.8001 6.4043L7.06951 7.23348H7.94137L7.23602 7.74594L7.50544 8.57512L6.8001 8.06266L6.09476 8.57512L6.36417 7.74594L5.65883 7.23348H6.53068L6.8001 6.4043Z" fill="white"/>
<path d="M6.8001 1.60352L7.06951 2.4327H7.94137L7.23602 2.94516L7.50544 3.77434L6.8001 3.26187L6.09476 3.77434L6.36417 2.94516L5.65883 2.4327H6.53068L6.8001 1.60352Z" fill="white"/>
<path d="M4.4002 13.6035L4.66961 14.4327H5.54146L4.83612 14.9452L5.10554 15.7743L4.4002 15.2619L3.69485 15.7743L3.96427 14.9452L3.25893 14.4327H4.13078L4.4002 13.6035Z" fill="white"/>
<path d="M4.4002 8.80371L4.66961 9.63289H5.54146L4.83612 10.1454L5.10554 10.9745L4.4002 10.4621L3.69485 10.9745L3.96427 10.1454L3.25893 9.63289H4.13078L4.4002 8.80371Z" fill="white"/>
<path d="M4.4002 4.00391L4.66961 4.83309H5.54146L4.83612 5.34555L5.10554 6.17473L4.4002 5.66227L3.69485 6.17473L3.96427 5.34555L3.25893 4.83309H4.13078L4.4002 4.00391Z" fill="white"/>
<path d="M4.4002 -0.796875L4.66961 0.0323045H5.54146L4.83612 0.544766L5.10554 1.37395L4.4002 0.861484L3.69485 1.37395L3.96427 0.544766L3.25893 0.0323045H4.13078L4.4002 -0.796875Z" fill="white"/>
<path d="M2.00017 11.2031L2.26959 12.0323H3.14144L2.4361 12.5448L2.70551 13.3739L2.00017 12.8615L1.29483 13.3739L1.56425 12.5448L0.858903 12.0323H1.73075L2.00017 11.2031Z" fill="white"/>
<path d="M2.00017 6.4043L2.26959 7.23348H3.14144L2.4361 7.74594L2.70551 8.57512L2.00017 8.06266L1.29483 8.57512L1.56425 7.74594L0.858903 7.23348H1.73075L2.00017 6.4043Z" fill="white"/>
<path d="M2.00017 1.60352L2.26959 2.4327H3.14144L2.4361 2.94516L2.70551 3.77434L2.00017 3.26187L1.29483 3.77434L1.56425 2.94516L0.858903 2.4327H1.73075L2.00017 1.60352Z" fill="white"/>
<path d="M-0.399854 13.6035L-0.130437 14.4327H0.741414L0.0360719 14.9452L0.305489 15.7743L-0.399854 15.2619L-1.1052 15.7743L-0.835779 14.9452L-1.54112 14.4327H-0.66927L-0.399854 13.6035Z" fill="white"/>
<path d="M-0.399854 8.80371L-0.130437 9.63289H0.741414L0.0360719 10.1454L0.305489 10.9745L-0.399854 10.4621L-1.1052 10.9745L-0.835779 10.1454L-1.54112 9.63289H-0.66927L-0.399854 8.80371Z" fill="white"/>
<path d="M-0.399854 4.00391L-0.130437 4.83309H0.741414L0.0360719 5.34555L0.305489 6.17473L-0.399854 5.66227L-1.1052 6.17473L-0.835779 5.34555L-1.54112 4.83309H-0.66927L-0.399854 4.00391Z" fill="white"/>
<path d="M-0.399854 -0.796875L-0.130437 0.0323045H0.741414L0.0360719 0.544766L0.305489 1.37395L-0.399854 0.861484L-1.1052 1.37395L-0.835779 0.544766L-1.54112 0.0323045H-0.66927L-0.399854 -0.796875Z" fill="white"/>
</g>
</svg>
