<svg width="213" height="236" viewBox="0 0 213 236" fill="none" xmlns="http://www.w3.org/2000/svg">
<path fill-rule="evenodd" clip-rule="evenodd" d="M52 0C23.2812 0 0 23.2812 0 52V184C0 212.719 23.2812 236 52 236H152C180.719 236 204 212.719 204 184V52C204 23.2812 180.719 0 152 0H52ZM54 27C39.0883 27 27 39.0883 27 54V182C27 196.912 39.0883 209 54 209H150C164.912 209 177 196.912 177 182V54C177 39.0883 164.912 27 150 27H54Z" fill="#B2B2B2"/>
<path d="M204 53H206C209.866 53 213 56.134 213 60V87C213 90.866 209.866 94 206 94H204V53Z" fill="#B2B2B2"/>
<path fill-rule="evenodd" clip-rule="evenodd" d="M52 8C27.6995 8 8 27.6995 8 52V184C8 208.301 27.6995 228 52 228H152C176.301 228 196 208.301 196 184V52C196 27.6995 176.301 8 152 8H52ZM54 27C39.0883 27 27 39.0883 27 54V182C27 196.912 39.0883 209 54 209H150C164.912 209 177 196.912 177 182V54C177 39.0883 164.912 27 150 27H54Z" fill="black"/>
</svg>
