<svg width="213" height="363" viewBox="0 0 213 363" fill="none" xmlns="http://www.w3.org/2000/svg">
<path d="M34.5001 62.0564C43.5 48.0564 42 17.5564 46.5 11.0564C54.4562 -0.643765 96.5244 -0.0784553 101.882 0.0418139C107.341 -0.0795728 149.355 -0.626335 157.3 11.0564C161.8 17.5564 160.3 48.0564 169.3 62.0564C171.762 66.3659 175.759 69.6647 178.8 72.0564H25C28.0409 69.6647 32.0375 66.3659 34.5001 62.0564Z" fill="#B2B2B2"/>
<path d="M34.5001 300.056C43.5 314.056 42 344.556 46.5 351.056C54.4562 362.757 96.5244 362.191 101.882 362.071C107.341 362.192 149.355 362.739 157.3 351.056C161.8 344.556 160.3 314.056 169.3 300.056C171.762 295.747 175.759 292.448 178.8 290.056H25C28.0409 292.448 32.0375 295.747 34.5001 300.056Z" fill="#B2B2B2"/>
<path fill-rule="evenodd" clip-rule="evenodd" d="M52 63C23.2812 63 0 86.2812 0 115V247C0 275.719 23.2812 299 52 299H152C180.719 299 204 275.719 204 247V115C204 86.2812 180.719 63 152 63H52ZM54 90C39.0883 90 27 102.088 27 117V245C27 259.912 39.0883 272 54 272H150C164.912 272 177 259.912 177 245V117C177 102.088 164.912 90 150 90H54Z" fill="#B2B2B2"/>
<path d="M204 116H206C209.866 116 213 119.134 213 123V150C213 153.866 209.866 157 206 157H204V116Z" fill="#B2B2B2"/>
<path fill-rule="evenodd" clip-rule="evenodd" d="M52 71C27.6995 71 8 90.6995 8 115V247C8 271.301 27.6995 291 52 291H152C176.301 291 196 271.301 196 247V115C196 90.6995 176.301 71 152 71H52ZM54 90C39.0883 90 27 102.088 27 117V245C27 259.912 39.0883 272 54 272H150C164.912 272 177 259.912 177 245V117C177 102.088 164.912 90 150 90H54Z" fill="black"/>
</svg>
