<svg width="830" height="830" viewBox="0 0 830 830" fill="none" xmlns="http://www.w3.org/2000/svg">
<g clip-path="url(#clip0_708_70702)">
<path d="M528.741 397.558C529.57 382.898 528.741 335.986 521.281 315.173C511.956 289.156 500.766 276.148 501.388 247.653C502.01 219.159 492.063 197.478 464.088 186.328C436.113 175.178 372.704 179.515 359.027 166.506C345.351 153.498 336.026 162.79 319.241 170.223C302.456 177.656 252.723 193.142 258.318 217.92C263.913 242.698 242.776 261.281 237.803 278.006C232.83 294.731 231.586 404.992 234.695 418" stroke="#1BFF00" stroke-width="10"/>
<path d="M481 347C475.396 340.747 461.698 330 446.755 330C431.811 330 418.943 340.747 415 347" stroke="#1BFF00" stroke-width="10" stroke-linecap="round"/>
<path d="M337 347C331.396 340.379 317.698 329 302.755 329C287.811 329 274.943 340.379 271 347" stroke="#1BFF00" stroke-width="10" stroke-linecap="round"/>
<path d="M530.369 388.485C537.812 382.061 553.32 362.251 555.801 334.4C558.903 299.587 563.245 262.909 549.598 228.096C535.951 193.283 538.992 189.141 530.369 164.065C524.221 146.188 524.162 142.745 509.278 119.305C504.936 112.466 490.118 88.1528 482.605 80.7615C480.418 78.6092 486.948 96.3031 478.884 95.1242C474.121 93.7252 451.808 65.362 425.538 43.4617C403.906 25.4282 377.794 12.9999 372.191 13C366.162 13.0001 347.556 28.2114 331.872 47.1917C315.283 67.2665 301.572 91.4098 294.654 100.655C287.21 110.601 296.515 70.8149 288.451 74.5448C280.387 78.2747 274.048 93.7494 265.427 106.25C263.882 108.49 260.858 88.3931 259.296 90.7082C250.573 106.631 238.165 128.074 232.623 146.658C227.131 165.077 221.653 181.287 219.597 190.796C211.533 228.096 220.217 231.826 214.014 257.314C207.811 282.802 202.849 306.425 205.95 337.509C209.052 368.592 214.635 395.323 232.623 409" stroke="#1BFF00" stroke-width="10" stroke-linecap="round" stroke-linejoin="round"/>
<path d="M517 468.89C521.761 469.306 532.651 468.766 538.116 463.276C544.947 456.415 561.716 429.594 562.337 420.861C562.958 412.128 576 402.772 576 380.317C576 362.352 560.267 353.287 552.4 351" stroke="#1BFF00" stroke-width="10" stroke-linecap="round"/>
<path d="M529 396C526.105 430.54 514.486 505.453 491.165 528.783C462.013 557.946 429.759 602 382.62 602C335.481 602 307.57 580.283 287.101 559.187C266.633 538.09 248.646 518.235 240.582 464.873C238.722 450.602 235 420.819 235 415.855" stroke="#1BFF00" stroke-width="10"/>
<circle cx="445" cy="342" r="7" fill="#1BFF00"/>
<ellipse cx="304" cy="340.5" rx="8" ry="7.5" fill="#1BFF00"/>
<path d="M312 489.738C312 489.738 335.663 482.704 351.801 484.229C358.96 484.905 366.726 487.289 371.08 487.289C375.433 487.289 389.113 483.159 400.93 483.004C415.223 482.818 437 488.513 437 488.513M312 489.738C316.975 498.307 340.607 522.179 373.567 520.955C399.935 519.975 426.842 498.919 437 488.513M312 489.738C322.987 492.594 350.184 498.429 371.08 498.919C391.975 499.409 423.733 492.186 437 488.513" stroke="#1BFF00" stroke-width="10" stroke-linejoin="round"/>
<path d="M245 324C245 324 262.674 300.648 284.766 300.017C306.858 299.386 334 316.426 334 316.426" stroke="#1BFF00" stroke-width="10" stroke-linecap="round"/>
<path d="M412 319C412 319 427.436 296 459.544 296C491.651 296 504 315.791 504 315.791" stroke="#1BFF00" stroke-width="10" stroke-linecap="square"/>
<path d="M207.227 347C196.635 353.863 188.162 381.691 199.127 408.146C212.834 441.215 213.832 457.118 225.294 463.677C228.409 465.46 239 464.925 239 464.925" stroke="#1BFF00" stroke-width="10" stroke-linecap="round"/>
<path d="M405 412C409.813 417.185 416.945 430.044 406.969 440" stroke="#1BFF00" stroke-width="10" stroke-linecap="round" stroke-linejoin="round"/>
<path d="M332.176 435C324.573 423.455 332.387 412.621 337.245 408.647C343.369 402.163 355.491 385.557 354.985 371" stroke="#1BFF00" stroke-width="10" stroke-linecap="round" stroke-linejoin="round"/>
<path d="M494 525V634" stroke="#1BFF00" stroke-width="10" stroke-linecap="round"/>
<path d="M262 530C264.728 569.473 269.639 649.536 267.456 654" stroke="#1BFF00" stroke-width="10" stroke-linecap="round"/>
<path d="M267 606C243.601 627.383 194.442 670.52 185 672" stroke="#1BFF00" stroke-width="10" stroke-linecap="round"/>
<path d="M494 589C494 589 504.625 603.114 521.5 612.318C538.95 621.837 567.542 635.841 579 643" stroke="#1BFF00" stroke-width="10" stroke-linecap="round"/>
<path d="M377 447C377.421 444.148 380.411 437.956 389 436" stroke="#1BFF00" stroke-width="10" stroke-linecap="round"/>
<path d="M361 444C360.4 441.429 357.76 436.029 352 435" stroke="#1BFF00" stroke-width="10" stroke-linecap="round"/>
<path d="M185 671.932C174.432 669.455 158.27 671.313 148.324 684.934C128.018 690.919 82.4324 709.576 62.5405 736.323C56.5546 744.372 15.2973 749.945 -2.72973 777.187C-4.77826 780.283 -18.5189 789.57 -22 797" stroke="#1BFF00" stroke-width="10" stroke-linecap="round"/>
<path d="M185.157 671.698C182.879 684.799 204.535 716.866 309.375 740.323C440.425 769.645 582.655 696.029 578.928 643" stroke="#1BFF00" stroke-width="10" stroke-linecap="round"/>
<path d="M579 642.004C588.3 638.88 602.56 637.629 615.58 652.004C636.66 653.879 636.458 666.228 650.3 672.003C664.142 677.779 688.12 677.003 704.86 695.128C721.6 713.252 759.42 713.252 777.4 735.751C788.147 744.71 813.112 766.5 827 782" stroke="#1BFF00" stroke-width="10" stroke-linecap="round"/>
<path d="M614 653C614 708.353 504.88 791.072 361.04 782.365C217.2 773.657 151.687 719.134 149 684.719" stroke="#1BFF00" stroke-width="10" stroke-linecap="round"/>
</g>
<defs>
<clipPath id="clip0_708_70702">
<rect width="830" height="830" fill="white"/>
</clipPath>
</defs>
</svg>
